<?xml version="1.0" encoding="utf-8"?>
<!-- Generator: Adobe Illustrator 16.0.0, SVG Export Plug-In . SVG Version: 6.00 Build 0)  -->
<!DOCTYPE svg PUBLIC "-//W3C//DTD SVG 1.1//EN" "http://www.w3.org/Graphics/SVG/1.1/DTD/svg11.dtd">
<svg version="1.1" id="Layer_1" xmlns="http://www.w3.org/2000/svg" xmlns:xlink="http://www.w3.org/1999/xlink" x="0px" y="0px"
	 width="2500px" height="1068.1px" viewBox="0 0 2500 1068.1" enable-background="new 0 0 2500 1068.1" xml:space="preserve">
<g>
	<g>
		<defs>
			<rect id="SVGID_1_" x="1121.61" y="944.734" width="115.977" height="186.729"/>
		</defs>
		<clipPath id="SVGID_2_">
			<use xlink:href="#SVGID_1_"  overflow="visible"/>
		</clipPath>
		<g transform="matrix(1 0 0 1 0 0)" clip-path="url(#SVGID_2_)">
			
				<image overflow="visible" width="159" height="256" xlink:href="curtain-left.png"  transform="matrix(0.7294 0 0 0.7294 1121.6104 944.7344)">
			</image>
		</g>
	</g>
	<g>
		<defs>
			<rect id="SVGID_3_" x="1245.083" y="944.834" width="115.977" height="186.729"/>
		</defs>
		<clipPath id="SVGID_4_">
			<use xlink:href="#SVGID_3_"  overflow="visible"/>
		</clipPath>
		<g transform="matrix(1 0 0 1 1.220703e-004 6.103516e-005)" clip-path="url(#SVGID_4_)">
			
				<image overflow="visible" width="159" height="256" xlink:href="curtain-right.png"  transform="matrix(0.7294 0 0 0.7294 1245.083 944.834)">
			</image>
		</g>
	</g>
	
		<image overflow="visible" width="406" height="474" xlink:href="6643C351.html"  transform="matrix(0.264 0 0 0.264 176.5015 933.6826)">
	</image>
	
		<image overflow="visible" width="320" height="240" xlink:href="6643C353.html"  transform="matrix(0.4362 0 0 0.4362 1839.7305 823.6616)">
	</image>
	<path id="background-orange" fill="#ED6A49" d="M2478.7,977.35V1122.4h-69.5v341.1h-340.3l1.1-384.8h-270.301l0.001-240.3h-442.2
		l-1,335.999h-251.4V838.42l-806.6-0.02v240.3H168.7l0.8-240.3l-174.8,0.02v627.979H2502.1V837.5l-456.388,0.3v47.5L2478.7,977.35z
		 M335.6,1267.5v143.8h-192v-164.1h89.1H335.6V1267.5z"/>
	<path id="fail-girl-hand-right" fill="#EADCBE" d="M2166.8,668.2l-11.5,0.3l-18.6-31.6c0,0-3.5-9.4-4.602-13.302
		c-1.1-3.898-8-5.5-9.198-9c-1.2-3.5-3.602,1.7-0.2,4.5c2.5,2,1,3.2,1,3.2s-1.9-1.1-5.602-3c-0.5-0.2-3.198,0.2,0.602,3
		c0.2,0.102-2.5-1.5-2.602,0.4c0,1.398,3,2.7,3.2,3c0.3,0.5-2.5-2.3-2.898-0.2c-0.302,1.4,4.5,3.3,3.898,3.4c-0.2,0-1.8-1.5-2.3,0.1
		c-0.4,1.2,6.3,5.2,6.698,5.5c2.302,1.6,4.7,3.6,4.7,3.6s9.3,23.7,11,27.2s8,14.3,10.602,15.102c0.698,0.198,17-0.7,17-0.7l2.5-11
		L2166.8,668.2z	">
<animateTransform  type="rotate" fill="remove" attributeType="XML" attributeName="transform" values="0 2166.8 668.2; 20 2166.8 668.2; 20 2166.8 668.2; 20 2166.8 668.2; 20 2166.8 668.2; 20 2166.8 668.2; 0 2166.8 668.2; 0 2166.8 668.2; 0 2166.8 668.2; 0 2166.8 668.2" dur="4s" repeatDur="indefinite" accumulate="none" additive="replace" calcMode="linear" restart="always">
			</animateTransform>
	</path>
	<path fill="#EADCBE" d="M912.6,632.1c8.602,5.302,7,16.2-0.198,20.302c-0.802,0.5,7.5,44.1,6,48c-1.4,3.898-7.2,46.8-7.2,46.8
		s1.398,9.6,0,14.5c-1.4,4.8-6.3,13.5-6.3,13.5s-23.2,61.3-16.7,68.898c3.7,4.302,11.2,3.7,23.1,8.5c2.2,0.9,5.602-2.198,6.3,0.7
		c0.9,4.102-1.6,4.5-16.6,4c-14.9-0.5-27.7,0.9-30.6-3.5c-1.7-2.7,1-10,1-10s5.898-24.6,6.198-45.398
		c0.102-7.7,0.602-14.102,0.602-14.102c0.7-8.898,4.6-13.5,6.8-16.898c3.4-5.302,0.5-7.7,2.4-15.9c1.898-8.2-7.2-28.9-6.302-41.4
		c0.9-12.5,7.102-16.8,7.102-16.8s4.2-42.2-20.102-55c-8.5-4.5,0-31.2,0-31.2s7.7-11.1,15-0.3C891.2,618.4,905.7,627.9,912.6,632.1z
		"/>
	<path id="girl-skirt" fill="#3363AD" d="M888.9,689.5c0,0,8.5-1.9,16-1.8c7.5,0.1,13.398,4.5,13.398,4.5s3.102,7.5,5.602,17.1
		c6.8,27.102,18,29,18,29s-0.302,5.8-6,9.5c-2.5,1.602-6.9,2.4-6.9,2.4l0.2,2.5c0,0-12.3,3.898-17.4-0.9
		c-2-1.898-3.398-6.1-3.398-6.1s-3.102-4.3-7.802,0.2c-1,0.898-1.6,3-4.398,3.698c-2,0.5-4.5-0.698-5.3-2.398
		c-0.802-1.7-4-3.4-6.302-3.8C882.4,743,882.4,743,882.4,743s1.198,1.4-1.302,3.7c-2.3,2.2-11.6,2.6-13-2.3
		c-0.1-0.4-0.198-2.5-0.198-2.5s-0.9-2.5-2.802-3.7c-1.5-0.9-3.1,0.2-3.1,0.2s10.7-6.302,14.9-18.602c1.6-4.8,3.6-15.8,5.198-19.398
		C884.1,695.3,888.9,689.5,888.9,689.5z	">
<animate  fill="remove" attributeType="XML" attributeName="d" values="M888.9,689.5c0,0,8.5-1.9,16-1.8c7.5,0.1,13.4,4.5,13.4,4.5s3.1,7.5,5.6,17.1  c6.8,27.1,18,29,18,29s-0.3,5.8-6,9.5c-2.5,1.6-6.9,2.4-6.9,2.4l0.2,2.5c0,0-12.3,3.9-17.4-0.9c-2-1.9-3.4-6.1-3.4-6.1  s-3.1-4.3-7.8,0.2c-1,0.9-1.6,3-4.4,3.7c-2,0.5-4.5-0.7-5.3-2.4c-0.8-1.7-4-3.4-6.3-3.8c-2.2-0.4-2.2-0.4-2.2-0.4s1.2,1.4-1.3,3.7  c-2.3,2.2-11.6,2.6-13-2.3c-0.1-0.4-0.2-2.5-0.2-2.5s-0.9-2.5-2.8-3.7c-1.5-0.9-3.1,0.2-3.1,0.2s10.7-6.3,14.9-18.6  c1.6-4.8,3.6-15.8,5.2-19.4C884.1,695.3,888.9,689.5,888.9,689.5z;                                             M888.9,689.5c0,0,8.5-1.9,16-1.8c7.5,0.1,13.4,4.5,13.4,4.5s6.4,7.3,8.8,16.9  c6.8,27.1,12.9,31.2,12.9,31.2s2.1,7.4-6,9.5c-2.9,0.8-5,0.3-5,0.3l0.2,2.5c0,0-4.7-7.7-14.3-4c-2.6,1-6.5-3.1-6.5-3.1  s-3.1-4.3-7.8,0.2c-1,0.9-2.6,6.9-4.4,3.7c-1.1-1.8-4.5-2.8-5.3-4.6c-0.8-1.7-4-1.2-6.3-1.6c-2.2-0.4-2.2-0.4-2.2-0.4  s1.2,1.4-1.3,3.7c-2.3,2.2-11.6,2.6-13-2.3c-0.1-0.4-0.2-2.5-0.2-2.5s-0.9-2.5-2.8-3.7c-1.5-0.9-3.1,0.2-3.1,0.2s1.8-7.9,9.8-18.2  c5.3-6.9,8-5.6,10.3-19.8C882.8,694.9,888.9,689.5,888.9,689.5z;                          M888.8,689.5c0,0,8.5-1.9,16-1.8c7.5,0.1,13.4,4.5,13.4,4.5s6.1,8.6,7.9,18.3  c4.5,24.8,14.1,28.8,14.1,28.8s1.8,8.5-6.2,10.6c-2.9,0.8-5,0.3-5,0.3l0.2,2.5c0,0-7.5-2.4-13.3-2.4c-2.8,0-7.5-4.7-7.5-4.7  s-3.1-4.3-7.8,0.2c-1,0.9-0.8,3.3-4.4,3.7c-2.1,0.2-5.4-2.3-6.2-4.1c-0.8-1.7-3.1-1.7-5.4-2.1c-2.2-0.4-2.2-0.4-2.2-0.4  s1.2,1.4-1.3,3.7c-2.3,2.2-11.6,2.6-13-2.3c-0.1-0.4-0.2-2.5-0.2-2.5s-0.9-2.5-2.8-3.7c-1.5-0.9-3.1,0.2-3.1,0.2s5.8-5.3,11.5-17.1  c3.9-8.1,6.4-6.8,8.6-20.9C882.7,694.9,888.8,689.5,888.8,689.5z;                                               M888.9,689.5c0,0,8.5-1.9,16-1.8c7.5,0.1,13.4,4.5,13.4,4.5s6.4,7.3,8.8,16.9  c6.8,27.1,12.9,31.2,12.9,31.2s2.1,7.4-6,9.5c-2.9,0.8-5,0.3-5,0.3l0.2,2.5c0,0-4.7-7.7-14.3-4c-2.6,1-6.5-3.1-6.5-3.1  s-3.1-4.3-7.8,0.2c-1,0.9-2.6,6.9-4.4,3.7c-1.1-1.8-4.5-2.8-5.3-4.6c-0.8-1.7-4-1.2-6.3-1.6c-2.2-0.4-2.2-0.4-2.2-0.4  s1.2,1.4-1.3,3.7c-2.3,2.2-11.6,2.6-13-2.3c-0.1-0.4-0.2-2.5-0.2-2.5s-0.9-2.5-2.8-3.7c-1.5-0.9-3.1,0.2-3.1,0.2s1.8-7.9,9.8-18.2  c5.3-6.9,8-5.6,10.3-19.8C882.8,694.9,888.9,689.5,888.9,689.5z;                                             M888.9,689.5c0,0,8.5-1.9,16-1.8c7.5,0.1,13.4,4.5,13.4,4.5s3.1,7.5,5.6,17.1  c6.8,27.1,18,29,18,29s-0.3,5.8-6,9.5c-2.5,1.6-6.9,2.4-6.9,2.4l0.2,2.5c0,0-12.3,3.9-17.4-0.9c-2-1.9-3.4-6.1-3.4-6.1  s-3.1-4.3-7.8,0.2c-1,0.9-1.6,3-4.4,3.7c-2,0.5-4.5-0.7-5.3-2.4c-0.8-1.7-4-3.4-6.3-3.8c-2.2-0.4-2.2-0.4-2.2-0.4s1.2,1.4-1.3,3.7  c-2.3,2.2-11.6,2.6-13-2.3c-0.1-0.4-0.2-2.5-0.2-2.5s-0.9-2.5-2.8-3.7c-1.5-0.9-3.1,0.2-3.1,0.2s10.7-6.3,14.9-18.6  c1.6-4.8,3.6-15.8,5.2-19.4C884.1,695.3,888.9,689.5,888.9,689.5z" dur="2s" repeatDur="indefinite" accumulate="none" additive="replace" calcMode="linear" restart="always">
			</animate>
	</path>
	<polygon fill="none" points="143.5,1247.2 143.5,1411.3 335.6,1411.3 335.6,1267.5 335.6,1247.2 232.7,1247.2 	"/>
	<polygon fill="#FAB65B" points="2478.7,977.7 2229.6,918.6 2070.5,876 2070,1081.7 2478.7,1078.7 	"/>
	<path fill="#FAB65B" d="M2409.2,1463.5v-341.1h69.5v-43.7H2070l-1.1,384.8H2409.2z M2319.1,1171.6V1382.2H2133V1171.6H2319.1z"/>
	<path fill="#6FCCDA" d="M2133,1171.6V1382.2h186.2V1171.6H2133z M2310.8,1372.6h-169.5v-191.3h169.5V1372.6z"/>
	<rect x="50.6" y="1162.7" fill="#6FCCDA" width="369.5" height="48.699"/>
	<polygon fill="#6FCCDA" points="335.6,1411.3 143.5,1411.3 143.5,1247.2 232.7,1247.2 50.6,1211.4 50.6,1463.6 420.1,1463.6 
		420.1,1284.1 335.6,1267.5 	"/>
	<rect x="420.1" y="1211.4" fill="#488C93" width="0" height="72.6"/>
	<polygon fill="#488C93" points="50.6,1211.4 232.7,1247.2 335.6,1247.2 335.6,1267.5 420.1,1284.1 420.1,1211.4 	"/>
	<path fill="#FAB65B" d="M976.8,1439H1481.4V874.9L1227.6,697.2L976.8,874.9V1439z M1119.5,958.5h227.9V1160h-227.9V958.5z"/>
	<path fill="#6FCCDA" d="M1227.5,666.6L951.8,861.9V1464.1h554.7V861.9L1227.5,666.6z M1481.4,1439H976.8V874.9L1227.6,697.3
		L1481.4,875V1439L1481.4,1439z"/>
	<polygon fill="#FAB65B" points="808.6,1463.6 420.1,1463.6 420.1,881.5 612.9,725.7 808.6,886.1 	"/>
	<polygon fill="#6FCCDA" points="408.3,919 394.8,903 612.8,717.8 808.7,886 808.8,915.6 612.7,745.3 	"/>
	<polygon fill="#B27E3E" points="654.3,781.4 420.1,910.6 612.5,745.6 	"/>
	<polygon fill="#8A6D43" points="736.4,1071.9 496.8,1071.9 499.8,898.2 736.5,897.9 	"/>
	<g>
		<rect x="496.8" y="898.1" fill="#3463AE" width="112.4" height="164.7"/>
		<path fill="#6FCCDA" d="M614.4,1068H491.6V892.9H614.4V1068z M502.1,1057.5H604V903.3H502.1V1057.5z"/>
	</g>
	<g>
		<rect x="614.2" y="898.1" fill="#3463AE" width="112.398" height="164.7"/>
		<path fill="#6FCCDA" d="M731.8,1068H609V892.9h122.8V1068L731.8,1068z M619.4,1057.5H721.3V903.3H619.4V1057.5z"/>
	</g>
	<path fill="none" stroke="#54483E" stroke-width="0.5" stroke-linecap="round" stroke-miterlimit="10" d="M382.6,1014.4"/>
	<path fill="none" stroke="#54483E" stroke-width="0.5" stroke-linecap="round" stroke-miterlimit="10" d="M382.6,1014.4"/>
	<path fill="none" stroke="#54483E" stroke-width="0.5" stroke-linecap="round" stroke-miterlimit="10" d="M132,1002.5"/>
	<path fill="none" stroke="#54483E" stroke-width="0.5" stroke-linecap="round" stroke-miterlimit="10" d="M132,1002.5"/>
	<path fill="none" stroke="#54483E" stroke-width="0.5" stroke-linecap="round" stroke-miterlimit="10" d="M418.5,905.5"/>
	<path fill="none" stroke="#54483E" stroke-width="0.5" stroke-linecap="round" stroke-miterlimit="10" d="M418.5,905.5"/>
	<polygon fill="#FAB65B" points="434.8,1202.4 29.8,1202.4 29,1096.9 434.8,1096.9 	"/>
	<rect x="29.8" y="1199.7" fill="#F1D3B8" width="390.2" height="11.8"/>
	<g>
		<rect x="49.5" y="1439.5" fill="#291524" width="369.5" height="5.5"/>
		<rect x="49.5" y="1436.7" fill="#9A886A" width="369.5" height="5.5"/>
	</g>
	<g>
		<rect x="417.3" y="1435.3" fill="#8A6D43" width="390.3" height="5.5"/>
		<rect x="417.3" y="1432.6" fill="#9A886A" width="390.3" height="5.5"/>
	</g>
	<rect x="29.4" y="881.5" fill="#F1D3B8" width="390.6" height="27.4"/>
	<path fill="#3463AE" d="M667,1464.9H553V1250.1h114V1464.9z M565.5,1454.4h89v-193.9h-89V1454.4z"/>
	<polygon fill="#6FCCDA" points="299.8,934.7 298.6,934.6 298.6,934.7 	"/>
	<polygon fill="#6FCCDA" points="418.5,947 402.6,945.3 402.6,1061.4 400.5,1061.4 400.5,1066.1 298.5,1066.1 298.5,1080.4 
		168.7,1080.4 168.7,1073.2 163,1073.2 163,1066.1 70.2,1066.1 70.2,1061.4 68.1,1061.4 68.1,934.7 163,934.7 163,920.5 50.6,908.9 
		50.6,1106.3 420.1,1106.3 420.1,908.9 	"/>
	<path fill="#488C93" d="M420.1,908.9L420.1,908.9L420.1,908.9z"/>
	<polygon fill="#488C93" points="163,919.6 296.7,919.6 296.7,926.6 298.6,926.6 298.6,934.6 299.8,934.7 402.6,934.7 402.6,945.3 
		418.5,947 420.1,908.9 420.1,908.9 50.6,908.9 163,920.5 	"/>
	<rect x="70.2" y="1061.4" fill="#291524" width="92.8" height="4.6"/>
	<path fill="#54483E" d="M78.6,943.6h72.7c0.4,0,0.6-0.3,0.6-0.698c0-0.4-0.3-0.7-0.6-0.7H78.6c-0.4,0-0.6,0.3-0.6,0.7
		C78,943.3,78.2,943.6,78.6,943.6z"/>
	<path fill="#54483E" d="M151.2,950.6H78.6c-0.4,0-0.6,0.302-0.6,0.7c0,0.4,0.3,0.7,0.6,0.7h72.7c0.4,0,0.6-0.3,0.6-0.7
		C151.9,951,151.6,950.6,151.2,950.6z"/>
	<path fill="#54483E" d="M151.2,959.1H78.6c-0.4,0-0.6,0.302-0.6,0.7c0,0.4,0.3,0.7,0.6,0.7h72.7c0.4,0,0.6-0.3,0.6-0.7
		C151.9,959.5,151.6,959.1,151.2,959.1z"/>
	<path fill="#54483E" d="M151.2,967.6H78.6c-0.4,0-0.6,0.302-0.6,0.7c0,0.4,0.3,0.7,0.6,0.7h72.7c0.4,0,0.6-0.3,0.6-0.7
		C151.9,967.9,151.6,967.6,151.2,967.6z"/>
	<path fill="#54483E" d="M151.2,976.1H78.6c-0.4,0-0.6,0.302-0.6,0.7c0,0.4,0.3,0.7,0.6,0.7h72.7c0.4,0,0.6-0.3,0.6-0.7
		C151.9,976.4,151.6,976.1,151.2,976.1z"/>
	<path fill="#54483E" d="M151.2,984.6H78.6c-0.4,0-0.6,0.302-0.6,0.7c0,0.4,0.3,0.7,0.6,0.7h72.7c0.4,0,0.6-0.3,0.6-0.7
		C151.9,984.9,151.6,984.6,151.2,984.6z"/>
	<path fill="#54483E" d="M151.2,993.1H78.6c-0.4,0-0.6,0.302-0.6,0.7c0,0.4,0.3,0.7,0.6,0.7h72.7c0.4,0,0.6-0.3,0.6-0.7
		C151.9,993.4,151.6,993.1,151.2,993.1z"/>
	<path fill="#54483E" d="M151.2,1001.6H78.6c-0.4,0-0.6,0.302-0.6,0.7c0,0.4,0.3,0.7,0.6,0.7h72.7c0.4,0,0.6-0.3,0.6-0.7
		C151.9,1001.9,151.6,1001.6,151.2,1001.6z"/>
	<path fill="#54483E" d="M151.2,1010.1H78.6c-0.4,0-0.6,0.302-0.6,0.7c0,0.4,0.3,0.7,0.6,0.7h72.7c0.4,0,0.6-0.3,0.6-0.7
		C151.9,1010.4,151.6,1010.1,151.2,1010.1z"/>
	<path fill="#54483E" d="M151.2,1018.6H78.6c-0.4,0-0.6,0.302-0.6,0.7c0,0.4,0.3,0.7,0.6,0.7h72.7c0.4,0,0.6-0.3,0.6-0.7
		C151.9,1018.9,151.6,1018.6,151.2,1018.6z"/>
	<path fill="#54483E" d="M151.2,1027.1H78.6c-0.4,0-0.6,0.302-0.6,0.7c0,0.4,0.3,0.7,0.6,0.7h72.7c0.4,0,0.6-0.3,0.6-0.7
		C151.9,1027.4,151.6,1027.1,151.2,1027.1z"/>
	<path fill="#54483E" d="M151.2,1035.6H78.6c-0.4,0-0.6,0.302-0.6,0.7c0,0.4,0.3,0.7,0.6,0.7h72.7c0.4,0,0.6-0.3,0.6-0.7
		C151.9,1035.9,151.6,1035.6,151.2,1035.6z"/>
	<path fill="#54483E" d="M151.2,1044.1H78.6c-0.4,0-0.6,0.302-0.6,0.7c0,0.4,0.3,0.7,0.6,0.7h72.7c0.4,0,0.6-0.3,0.6-0.7
		C151.9,1044.4,151.6,1044.1,151.2,1044.1z"/>
	<path fill="#54483E" d="M151.2,1052.5H78.6c-0.4,0-0.6,0.3-0.6,0.7c0,0.398,0.3,0.699,0.6,0.699h72.7c0.4,0,0.6-0.301,0.6-0.699
		C151.9,1052.9,151.6,1052.5,151.2,1052.5z"/>
	<rect x="298.5" y="1061.4" fill="#291524" width="101.9" height="4.6"/>
	<polygon fill="#FAB65B" points="298.6,963 298.8,937.7 328.3,937.6 299.8,934.7 298.6,934.7 	"/>
	<path fill="#FAB65B" d="M299.8,934.7l-1,3l-0.2,25.3v98.4h101.9h2.1V945.3v-10.7L299.8,934.7L299.8,934.7z M389.3,1054H310.9
		c-0.4,0-0.7-0.3-0.7-0.7c0-0.398,0.3-0.699,0.7-0.699H389.3c0.4,0,0.7,0.301,0.7,0.699C390,1053.7,389.7,1054,389.3,1054z
		 M389.3,1045.5H310.9c-0.4,0-0.7-0.3-0.7-0.7c0-0.398,0.3-0.699,0.7-0.699H389.3c0.4,0,0.7,0.301,0.7,0.699
		C390,1045.2,389.7,1045.5,389.3,1045.5z M389.3,1037H310.9c-0.4,0-0.7-0.3-0.7-0.7c0-0.398,0.3-0.699,0.7-0.699H389.3
		c0.4,0,0.7,0.301,0.7,0.699C390,1036.7,389.7,1037,389.3,1037z M389.3,1028.5H310.9c-0.4,0-0.7-0.3-0.7-0.7
		c0-0.398,0.3-0.699,0.7-0.699H389.3c0.4,0,0.7,0.301,0.7,0.699C390,1028.2,389.7,1028.5,389.3,1028.5z M389.3,1020H310.9
		c-0.4,0-0.7-0.3-0.7-0.7c0-0.398,0.3-0.7,0.7-0.7H389.3c0.4,0,0.7,0.302,0.7,0.7C390,1019.7,389.7,1020,389.3,1020z M389.3,1011.5
		H310.9c-0.4,0-0.7-0.3-0.7-0.7c0-0.398,0.3-0.7,0.7-0.7H389.3c0.4,0,0.7,0.302,0.7,0.7C390,1011.2,389.7,1011.5,389.3,1011.5z
		 M389.3,1003H310.9c-0.4,0-0.7-0.3-0.7-0.7c0-0.398,0.3-0.7,0.7-0.7H389.3c0.4,0,0.7,0.302,0.7,0.7
		C390,1002.7,389.7,1003,389.3,1003z M389.3,994.5H310.9c-0.4,0-0.7-0.3-0.7-0.7c0-0.398,0.3-0.7,0.7-0.7H389.3
		c0.4,0,0.7,0.302,0.7,0.7C390,994.2,389.7,994.5,389.3,994.5z M389.3,986H310.9c-0.4,0-0.7-0.3-0.7-0.7c0-0.398,0.3-0.7,0.7-0.7
		H389.3c0.4,0,0.7,0.302,0.7,0.7C390,985.7,389.7,986,389.3,986z M389.3,977.6H310.9c-0.4,0-0.7-0.3-0.7-0.698
		c0-0.4,0.3-0.7,0.7-0.7H389.3c0.4,0,0.7,0.3,0.7,0.7C390,977.2,389.7,977.6,389.3,977.6z M389.3,969.1H310.9
		c-0.4,0-0.7-0.3-0.7-0.698c0-0.4,0.3-0.7,0.7-0.7H389.3c0.4,0,0.7,0.3,0.7,0.7C390,968.7,389.7,969.1,389.3,969.1z M389.3,960.6
		H310.9c-0.4,0-0.7-0.3-0.7-0.698c0-0.4,0.3-0.7,0.7-0.7H389.3c0.4,0,0.7,0.3,0.7,0.7C390,960.2,389.7,960.6,389.3,960.6z
		 M389.3,952.1H310.9c-0.4,0-0.7-0.3-0.7-0.698c0-0.4,0.3-0.7,0.7-0.7H389.3c0.4,0,0.7,0.3,0.7,0.7
		C390,951.8,389.7,952.1,389.3,952.1z M389.3,943.6h-3.7H310.9c-0.4,0-0.7-0.3-0.7-0.698c0-0.4,0.3-0.7,0.7-0.7H371.8h17.5
		c0.4,0,0.7,0.3,0.7,0.7C390,943.3,389.7,943.6,389.3,943.6z"/>
	<path fill="#54483E" d="M310.9,942.2c-0.4,0-0.7,0.3-0.7,0.7c0,0.398,0.3,0.698,0.7,0.698H385.6l-13.8-1.398H310.9z"/>
	<path fill="#54483E" d="M390,942.9c0-0.4-0.3-0.7-0.7-0.7h-17.5l13.8,1.398h3.7C389.7,943.6,390,943.3,390,942.9z"/>
	<path fill="#54483E" d="M310.9,952.1H389.3c0.4,0,0.7-0.3,0.7-0.698c0-0.4-0.3-0.7-0.7-0.7H310.9c-0.4,0-0.7,0.3-0.7,0.7
		C310.1,951.8,310.5,952.1,310.9,952.1z"/>
	<path fill="#54483E" d="M389.3,959.1H310.9c-0.4,0-0.7,0.302-0.7,0.7c0,0.4,0.3,0.7,0.7,0.7H389.3c0.4,0,0.7-0.3,0.7-0.7
		C390,959.5,389.7,959.1,389.3,959.1z"/>
	<path fill="#54483E" d="M389.3,967.6H310.9c-0.4,0-0.7,0.302-0.7,0.7c0,0.4,0.3,0.7,0.7,0.7H389.3c0.4,0,0.7-0.3,0.7-0.7
		C390,968,389.7,967.6,389.3,967.6z"/>
	<path fill="#54483E" d="M389.3,976.1H310.9c-0.4,0-0.7,0.302-0.7,0.7c0,0.4,0.3,0.7,0.7,0.7H389.3c0.4,0,0.7-0.3,0.7-0.7
		C390,976.4,389.7,976.1,389.3,976.1z"/>
	<path fill="#54483E" d="M389.3,984.6H310.9c-0.4,0-0.7,0.302-0.7,0.7c0,0.4,0.3,0.7,0.7,0.7H389.3c0.4,0,0.7-0.3,0.7-0.7
		C390,984.9,389.7,984.6,389.3,984.6z"/>
	<path fill="#54483E" d="M389.3,993.1H310.9c-0.4,0-0.7,0.302-0.7,0.7c0,0.4,0.3,0.7,0.7,0.7H389.3c0.4,0,0.7-0.3,0.7-0.7
		C390,993.4,389.7,993.1,389.3,993.1z"/>
	<path fill="#54483E" d="M389.3,1001.6H310.9c-0.4,0-0.7,0.302-0.7,0.7c0,0.4,0.3,0.7,0.7,0.7H389.3c0.4,0,0.7-0.3,0.7-0.7
		C390,1001.9,389.7,1001.6,389.3,1001.6z"/>
	<path fill="#54483E" d="M389.3,1010.1H310.9c-0.4,0-0.7,0.302-0.7,0.7c0,0.4,0.3,0.7,0.7,0.7H389.3c0.4,0,0.7-0.3,0.7-0.7
		C390,1010.4,389.7,1010.1,389.3,1010.1z"/>
	<path fill="#54483E" d="M389.3,1018.6H310.9c-0.4,0-0.7,0.302-0.7,0.7c0,0.4,0.3,0.7,0.7,0.7H389.3c0.4,0,0.7-0.3,0.7-0.7
		C390,1018.9,389.7,1018.6,389.3,1018.6z"/>
	<path fill="#54483E" d="M389.3,1027.1H310.9c-0.4,0-0.7,0.302-0.7,0.7c0,0.4,0.3,0.7,0.7,0.7H389.3c0.4,0,0.7-0.3,0.7-0.7
		C390,1027.4,389.7,1027.1,389.3,1027.1z"/>
	<path fill="#54483E" d="M389.3,1035.6H310.9c-0.4,0-0.7,0.302-0.7,0.7c0,0.4,0.3,0.7,0.7,0.7H389.3c0.4,0,0.7-0.3,0.7-0.7
		C390,1035.9,389.7,1035.6,389.3,1035.6z"/>
	<path fill="#54483E" d="M389.3,1044.1H310.9c-0.4,0-0.7,0.302-0.7,0.7c0,0.4,0.3,0.7,0.7,0.7H389.3c0.4,0,0.7-0.3,0.7-0.7
		C390,1044.4,389.7,1044.1,389.3,1044.1z"/>
	<path fill="#54483E" d="M389.3,1052.5H310.9c-0.4,0-0.7,0.3-0.7,0.7c0,0.398,0.3,0.699,0.7,0.699H389.3c0.4,0,0.7-0.301,0.7-0.699
		C390,1052.9,389.7,1052.5,389.3,1052.5z"/>
	<polygon fill="#291524" points="297.6,1061.4 297.6,1061.4 297.6,934.7 298.6,934.7 298.6,934.6 296.7,934.4 296.7,1073.2 
		168.7,1073.2 168.7,1080.4 298.5,1080.4 298.5,1066.1 297.6,1066.1 	"/>
	<polygon fill="#291524" points="298.6,934.6 298.6,926.6 296.7,926.6 296.7,934.4 	"/>
	<polygon fill="#291524" points="297.6,1061.4 297.6,1066.1 298.5,1066.1 298.5,1061.4 	"/>
	<polygon fill="#291524" points="297.6,934.7 297.6,1061.4 297.6,1061.4 298.6,963 298.6,934.7 	"/>
	<polygon fill="#291524" points="298.5,1061.4 298.6,963 297.6,1061.4 	"/>
	<polygon fill="#FAB65B" points="168.9,1061.4 168.8,1066.1 170.2,1066.1 170.2,1061.4 	"/>
	<polygon fill="#FAB65B" points="170.2,936.7 170.1,937.7 170.2,937.7 	"/>
	<polygon fill="#FAB65B" points="170.3,926.9 223.4,926.8 223.2,926.8 170.2,926.8 170.2,934.7 170.2,934.7 	"/>
	<polygon fill="#FAB65B" points="234.2,926.8 223.2,926.8 223.4,926.8 	"/>
	<path fill="#FAB65B" d="M170.2,934.7v2V934.7z"/>
	<path fill="#FAB65B" d="M163,919.6v0.9v14.2H68.1v126.7h2.2H163v4.6v7.1h5.7h128V934.4v-7.7v-7L163,919.6L163,919.6z M151.2,1054
		H78.6c-0.4,0-0.6-0.3-0.6-0.7c0-0.398,0.3-0.699,0.6-0.699h72.7c0.4,0,0.6,0.301,0.6,0.699C151.9,1053.7,151.6,1054,151.2,1054z
		 M151.2,1045.5H78.6c-0.4,0-0.6-0.3-0.6-0.7c0-0.398,0.3-0.699,0.6-0.699h72.7c0.4,0,0.6,0.301,0.6,0.699
		C151.9,1045.2,151.6,1045.5,151.2,1045.5z M151.2,1037H78.6c-0.4,0-0.6-0.3-0.6-0.7c0-0.398,0.3-0.699,0.6-0.699h72.7
		c0.4,0,0.6,0.301,0.6,0.699C151.9,1036.7,151.6,1037,151.2,1037z M151.2,1028.5H78.6c-0.4,0-0.6-0.3-0.6-0.7
		c0-0.398,0.3-0.699,0.6-0.699h72.7c0.4,0,0.6,0.301,0.6,0.699C151.9,1028.2,151.6,1028.5,151.2,1028.5z M151.2,1020H78.6
		c-0.4,0-0.6-0.3-0.6-0.7c0-0.398,0.3-0.7,0.6-0.7h72.7c0.4,0,0.6,0.302,0.6,0.7C151.9,1019.7,151.6,1020,151.2,1020z M151.2,1011.5
		H78.6c-0.4,0-0.6-0.3-0.6-0.7c0-0.398,0.3-0.7,0.6-0.7h72.7c0.4,0,0.6,0.302,0.6,0.7C151.9,1011.2,151.6,1011.5,151.2,1011.5z
		 M151.2,1003H78.6c-0.4,0-0.6-0.3-0.6-0.7c0-0.398,0.3-0.7,0.6-0.7h72.7c0.4,0,0.6,0.302,0.6,0.7
		C151.9,1002.7,151.6,1003,151.2,1003z M151.2,994.5H78.6c-0.4,0-0.6-0.3-0.6-0.7c0-0.398,0.3-0.7,0.6-0.7h72.7
		c0.4,0,0.6,0.302,0.6,0.7C151.9,994.2,151.6,994.5,151.2,994.5z M151.2,986H78.6c-0.4,0-0.6-0.3-0.6-0.7c0-0.398,0.3-0.7,0.6-0.7
		h72.7c0.4,0,0.6,0.302,0.6,0.7C151.9,985.7,151.6,986,151.2,986z M151.2,977.6H78.6c-0.4,0-0.6-0.3-0.6-0.698
		c0-0.4,0.3-0.7,0.6-0.7h72.7c0.4,0,0.6,0.3,0.6,0.7C151.9,977.2,151.6,977.6,151.2,977.6z M151.2,969.1H78.6
		c-0.4,0-0.6-0.3-0.6-0.698c0-0.4,0.3-0.7,0.6-0.7h72.7c0.4,0,0.6,0.3,0.6,0.7C151.9,968.7,151.6,969.1,151.2,969.1z M151.2,960.6
		H78.6c-0.4,0-0.6-0.3-0.6-0.698c0-0.4,0.3-0.7,0.6-0.7h72.7c0.4,0,0.6,0.3,0.6,0.7C151.9,960.2,151.6,960.6,151.2,960.6z
		 M151.2,952.1H78.6c-0.4,0-0.6-0.3-0.6-0.698c0-0.4,0.3-0.7,0.6-0.7h72.7c0.4,0,0.6,0.3,0.6,0.7
		C151.9,951.8,151.6,952.1,151.2,952.1z M151.2,943.6H78.6c-0.4,0-0.6-0.3-0.6-0.698c0-0.4,0.3-0.7,0.6-0.7h72.7
		c0.4,0,0.6,0.3,0.6,0.7C151.9,943.3,151.6,943.6,151.2,943.6z M170.2,1066.1h-1.3v-4.6h1.3V1066.1z M282.4,1058.9H177.3v-125h105.1
		V1058.9z"/>
	<rect x="-3.2" y="1464.1" fill="#7B7778" width="2511.3" height="56.2"/>
	<rect x="-5.9" y="1504.7" fill="#555054" width="2521.6" height="295.398"/>
	<path fill="#0E103B" d="M108.1,802.1"/>
	<rect x="565.5" y="1260.5" fill="#232323" width="89" height="203.1"/>
	<g>
		<polygon fill="#6FCCDA" points="1422.6,869.9 1032.2,869.9 1227.4,737.6 		"/>
		<path fill="#FAB65B" d="M1446.5,877.2h-438.1l219-148.4L1446.5,877.2z M1056.1,862.5h342.7L1227.4,746.4L1056.1,862.5z"/>
	</g>
	<polygon fill="#488C93" points="1072,863 1251.4,762.8 1228.3,747.1 1054.6,863 	"/>
	<g>
		<path fill="none" stroke="#988F86" stroke-width="0.25" stroke-miterlimit="10" d="M1480.2,885.2"/>
		<path fill="none" stroke="#988F86" stroke-width="0.25" stroke-miterlimit="10" d="M977.4,885.2"/>
		<path fill="none" stroke="#988F86" stroke-width="0.25" stroke-miterlimit="10" d="M1480.2,896.1"/>
		<path fill="none" stroke="#988F86" stroke-width="0.25" stroke-miterlimit="10" d="M977.4,896.1"/>
	</g>
	<g>
		<polygon fill="#FAB65B" points="1751.9,1105 1504.9,1232.4 1504.9,861.2 1751.9,861.2 		"/>
		<g>
			<g>
				<g>
					<g>
						<g>
							<g>
								<defs>
									<polygon id="SVGID_5_" points="1742.1,1098.9 1512.3,1217.5 1512.3,872 1742.1,872 									"/>
								</defs>
								<clipPath id="SVGID_6_">
									<use xlink:href="#SVGID_5_"  overflow="visible"/>
								</clipPath>
								<g clip-path="url(#SVGID_6_)">
									<rect x="1495" y="859.8" fill="#ED6A49" width="264.4" height="4.2"/>
									<rect x="1495" y="871.1" fill="#ED6A49" width="264.4" height="4.2"/>
									<rect x="1495" y="882.4" fill="#ED6A49" width="264.4" height="4.198"/>
									<rect x="1495" y="893.6" fill="#ED6A49" width="264.4" height="4.2"/>
									<rect x="1495" y="904.9" fill="#ED6A49" width="264.4" height="4.198"/>
									<rect x="1495" y="916.1" fill="#ED6A49" width="264.4" height="4.2"/>
									<rect x="1495" y="927.4" fill="#ED6A49" width="264.4" height="4.198"/>
									<rect x="1495" y="938.7" fill="#ED6A49" width="264.4" height="4.2"/>
									<rect x="1495" y="949.9" fill="#ED6A49" width="264.4" height="4.198"/>
									<rect x="1495" y="961.2" fill="#ED6A49" width="264.4" height="4.2"/>
									<rect x="1495" y="972.4" fill="#ED6A49" width="264.4" height="4.198"/>
									<rect x="1495" y="983.7" fill="#ED6A49" width="264.4" height="4.2"/>
									<rect x="1495" y="994.9" fill="#ED6A49" width="264.4" height="4.198"/>
									<rect x="1495" y="1006.2" fill="#ED6A49" width="264.4" height="4.2"/>
									<rect x="1495" y="1017.5" fill="#ED6A49" width="264.4" height="4.2"/>
									<rect x="1495" y="1028.7" fill="#ED6A49" width="264.4" height="4.199"/>
									<rect x="1495" y="1040" fill="#ED6A49" width="264.4" height="4.2"/>
									<rect x="1495" y="1051.2" fill="#ED6A49" width="264.4" height="4.199"/>
									<rect x="1495" y="1062.5" fill="#ED6A49" width="264.4" height="4.2"/>
									<rect x="1495" y="1073.7" fill="#ED6A49" width="264.4" height="4.199"/>
									<rect x="1495" y="1085" fill="#ED6A49" width="264.4" height="4.2"/>
									<rect x="1495" y="1096.3" fill="#ED6A49" width="264.4" height="4.2"/>
									<rect x="1495" y="1107.5" fill="#ED6A49" width="264.4" height="4.2"/>
									<rect x="1495" y="1118.8" fill="#ED6A49" width="264.4" height="4.2"/>
									<rect x="1495" y="1130" fill="#ED6A49" width="264.4" height="4.2"/>
									<rect x="1495" y="1141.3" fill="#ED6A49" width="264.4" height="4.2"/>
									<rect x="1495" y="1152.5" fill="#ED6A49" width="264.4" height="4.2"/>
									<rect x="1495" y="1163.8" fill="#ED6A49" width="264.4" height="4.2"/>
									<rect x="1495" y="1175.1" fill="#ED6A49" width="264.4" height="4.2"/>
									<rect x="1495" y="1186.3" fill="#ED6A49" width="264.4" height="4.2"/>
									<rect x="1495" y="1197.6" fill="#ED6A49" width="264.4" height="4.2"/>
									<rect x="1495" y="1208.8" fill="#ED6A49" width="264.4" height="4.2"/>
									<rect x="1495" y="1220.1" fill="#ED6A49" width="264.4" height="4.2"/>
									<rect x="1495" y="1231.3" fill="#ED6A49" width="264.4" height="4.2"/>
									<rect x="1495" y="1242.6" fill="#ED6A49" width="264.4" height="4.2"/>
								</g>
							</g>
						</g>
					</g>
				</g>
			</g>
		</g>
	</g>
	<rect x="976.8" y="1212.5" fill="#CE9D60" width="504.5" height="251.7"/>
	<g>
		<g>
			<path fill="#B22225" d="M1118.4,1364.7l28.5-11.301l0.198-0.101l0.4-0.1c3.8-1.2,7.6-1.7,11.2-1.7c8.699,0,16.398,3.3,21.898,9.4
				c3,3.398,5.2,7.398,6.5,11.8c2.2-5.101,3.102-12.101-0.8-20.7C1166.6,1322,1118.4,1364.7,1118.4,1364.7z"/>
			<path fill="#020202" d="M1023,1356.3c-1.7,0-3.2-1.398-3.2-3.199l0,0c0-1.699,1.4-3.199,3.2-3.199l0,0h31.6
				c1.7,0,3.2,1.398,3.2,3.199l0,0c0,1.699-1.399,3.199-3.2,3.199l0,0H1023L1023,1356.3z"/>
			<path fill="#B22225" d="M1046.2,1362.1c-12,0-23.102,3.7-32.2,10c-4,0-15,0-15,0c-1.7,0-3.1,2.802-3.1,6.302l0,0l0,0l0,0
				c0,3.5,1.398,6.3,3.1,6.3h1.8c-7.3,9.6-11.6,21.5-11.6,34.399c0,3.101,0.2,6.101,0.7,9.101c0,0,5.698-1.2,5.3-9.101
				c0-28.101,22.898-51,51-51c12.6,0,24.1,4.601,33,12.199l6.2-2.5C1075.3,1368.1,1061.4,1362.1,1046.2,1362.1z"/>
			<path fill="#B22225" d="M1221.8,1398.9l6.8,9.6c-2.698,3.2-4.3,7.4-4.3,11.9c0,10.3,8.4,18.698,18.7,18.698
				s18.7-8.398,18.7-18.698c0-10.302-8.4-18.7-18.7-18.7c-1.9,0-3.7,0.3-5.5,0.8l-17-28.2c6.8-3.3,14.4-5.3,22.5-5.3
				c9.5,0,18.4,2.601,26,7.101c6.4,3.199,8.8-1.699,8.8-1.699c-9.7-7.4-21.8-11.7-34.8-11.7c-9.3,0-18,2.2-25.7,6.1l-1.7-2.698
				l-14.1-18.2c-1.4-2.2-4.4-2.8-6.6-1.4c-2.2,1.4-2.801,4.4-1.4,6.602l10.4,20.698l1.8,2.602c-12.5,10.6-20.5,26.398-20.5,44.1
				c0,8.9,2,17.4,5.7,25c0,0,5-2.8,3.398-8.5c-1.8-5.2-2.698-10.7-2.698-16.5c0-15.5,7-29.4,17.898-38.8l3.9,5.399"/>
			<path fill="#B22225" d="M1176.1,1364.8c-4-4.5-10.1-7.398-17.398-7.398c-3,0-6.102,0.5-9.5,1.5l-0.2,0.1l-108.9,43.4l0,0
				c-7.198,2.6-12.3,9.398-12.3,17.398c0,4.301,1.5,8.301,4,11.4l0,0l0,0c0.102,0.1,0.102,0.1,0.102,0.2l0,0
				c2,2.398,4.5,4.398,7.5,5.6l1.398-2.6l1.602-2.802c-0.302-0.1-0.5-0.198-0.7-0.3c-4.602-1.8-7.9-6.3-7.9-11.5
				c0-6.899,5.601-12.5,12.5-12.5c5.8,0,10.7,4,12.101,9.4h-6.899c-1-1.8-3-3-5.2-3c-3.3,0-6,2.7-6,6s2.602,5.898,5.8,6h0.4
				c2.2-0.102,4-1.3,5-3.102h6.9c-1,4-3.9,7.2-7.7,8.7h10c2-2.5,3.398-5.398,3.898-8.7h11.9c-0.3,3-1.1,5.9-2.2,8.602h15.2
				c0.8-2.8,1.3-5.7,1.5-8.602h6.7c0.5,0.9,1.5,1.602,2.6,1.602h20.5c-2.5-2.3-4.1-5.5-4.1-9.2c0-3,1.1-5.7,2.8-7.9H1102
				c-1.6-7.198-4.5-13.898-8.4-19.8l34.2-13.6h46.8c0.9,2.3,1.4,4.8,1.5,7.3c0,0.9-0.1,1.8-0.198,2.8l-3.7,24.9
				c2,0.8,3.9,1.899,5.6,3.2l4-27.2c0.2-1.2,0.301-2.4,0.301-3.601C1182.2,1375.2,1180.1,1369.3,1176.1,1364.8z M1064.8,1416.7
				c-1-6-4.898-11-10.2-13.602l12.9-5.1c5,4.8,8.4,11.4,9.1,18.8L1064.8,1416.7L1064.8,1416.7z M1097.3,1416.7h-6.2
				c-0.6-9.2-4-17.602-9.398-24.4l6.2-2.5C1093.4,1397.5,1096.8,1406.7,1097.3,1416.7z"/>
		</g>
		<path fill="#020202" d="M1116.9,1357.2c0,1.898-6.9,13.5-18.9,13.5c-8.1,0-13.6-4.602-18.7-6.4c-6.1-2.1-10.8-2.8-10.8-2.8
			c-3.3,0-4.3-1.8-4.3-3.9c0-2.1,2-3.898,3.898-3.898h45.302C1115.3,1353.7,1116.9,1355.2,1116.9,1357.2L1116.9,1357.2z"/>
		<path fill="#4C4C4D" d="M1107.4,1437.4h56.3c3.2,0,5.8-2.602,5.8-5.802c0-2-1-3.698-2.5-4.8c-0.9,2-1.6,4.601-7.5,4.7
			c-8.6,0-38.2,0-62.3,0C1101.4,1431.8,1105.1,1434.1,1107.4,1437.4z"/>
		<path fill="#4C4C4D" d="M1226.5,1339.5c0-8.1-1.8-14.6-4.1-14.8l0,0c0,0,0,0-0.102,0l0,0l0,0c-13.898,0-25.1,6.6-25.199,14.8
			c0.199,0,0.301,0,0.5,0c3.699,0,7.101,1.8,9.101,4.8l7.2,9.2c2.6,0.6,5.398,0.9,8.398,0.9l0,0l0,0c0,0,0,0,0.102,0l0,0
			C1224.7,1354.1,1226.5,1347.6,1226.5,1339.5z"/>
		<path fill="#4C4C4D" d="M1170.1,1383.1c0.102-0.6,0.102-1.3,0.102-1.8c0-0.398-0.102-0.898-0.102-1.3h-41c-1.698,0-3,1.399-3,3
			c0,0,0,13.2,0,20.3c0.102,0,0.302-0.1,0.4-0.1c4.4-3.801,10.9-6,17.7-6c7,0,13.5,2.3,17.898,6.199
			c1.7,0.5,3.302,1.301,4.602,2.399L1170.1,1383.1z"/>
		<path fill="#4C4C4D" d="M1185.4,1339c-2-3.3-4.7-3.4-5.602-3.4l0,0c-0.1,0-0.1,0-0.1,0l0,0h-0.2h-14.7l0,0c-1.698,0-3-1.3-3-3l0,0
			c0-1.698,1.302-3,3-3l0,0h14.302c0.198,0,0.398,0,0.698,0l0,0c1.9-0.1,7.4,0.7,10.802,6.4l0,0c0.898,1.4,0.398,3.3-1,4.1l0,0
			c-0.5,0.302-1,0.4-1.602,0.4l0,0C1186.9,1340.4,1185.9,1339.9,1185.4,1339L1185.4,1339z"/>
		<path fill="#020202" d="M1164.1,1411.6c-1.1-1.6-2.8-2.6-4.8-2.698c-3.1-3.4-8.7-5.7-15-5.7s-11.899,2.3-15,5.7l0,0
			c-3.5,0-6.3,2.8-6.3,6.3s2.8,6.3,6.3,6.3l0,0c3.101,3.4,8.601,5.7,15,5.7c6.4,0,11.9-2.3,15-5.7c2.101-0.1,3.9-1.3,5-3
			c6.3,0.3,11.3,5.5,11.3,11.8c0,6.5-5.3,11.802-11.898,11.802h-60.5c-1.102-2.802-3.9-4.7-7.102-4.7H1046.2l-6.7,11.8
			c-13.3-3.2-23.3-15.1-23.3-29.398c0-16.7,13.6-30.302,30.3-30.302c2.5,0,5,0.4,7.3,0.9l18.2-7.2c-7.2-5.1-16-8.1-25.5-8.1
			c-24.6,0-44.7,20.1-44.7,44.699c0,24.601,20.102,44.699,44.7,44.699c11.6,0,22.2-4.5,30.2-11.8h19.398c3.102,0,5.802-1.9,7-4.6
			h60.602c9.898,0,17.898-8,17.898-17.9C1181.5,1420.5,1173.8,1412.6,1164.1,1411.6z M1144,1419.7c-2.5,0-4.5-2-4.5-4.5
			s2-4.5,4.5-4.5s4.5,2,4.5,4.5C1148.6,1417.7,1146.5,1419.7,1144,1419.7z"/>
		<path fill="#020202" d="M1208.8,1391.7c-6.5,7.8-10.5,17.8-10.5,28.699c0,24.601,20.102,44.699,44.7,44.699
			c24.7,0,44.7-20.1,44.7-44.699c0-24.601-20.102-44.699-44.7-44.699c-4.7,0-9.1,0.699-13.4,2.1l7.802,12.9
			c1.8-0.301,3.698-0.5,5.6-0.5c16.7,0,30.3,13.6,30.3,30.3s-13.6,30.3-30.3,30.3s-30.3-13.6-30.3-30.3c0-5.4,1.5-10.5,4-14.9"/>
		<path fill="#020202" d="M1232.5,1414l6,8.5c0.9,1.4,2.4,2.2,4,2.2c0.9,0,1.8-0.2,2.6-0.801c2.2-1.399,2.802-4.399,1.4-6.601
			l-5.5-9.1c0.7-0.102,1.3-0.2,2-0.2c6.8,0,12.4,5.5,12.4,12.4c0,6.8-5.5,12.3-12.4,12.398c-6.8,0-12.4-5.5-12.4-12.398l0,0
			C1230.7,1418,1231.4,1415.9,1232.5,1414z"/>
		<g>
			<path fill="#4C4C4D" d="M1268.1,1357.2c-0.8,2.1-2.8,3.199-4.6,2.699c-7.5-2.399-15.4-3.399-23.3-3.101
				c-1.8,0.101-3.5-1.6-3.7-3.8c-0.1-1.3-0.2-2.7-0.4-4c-0.198-2.2,1.4-4.2,3.602-4.3c9.3-0.4,18.5,0.898,27.398,3.6
				c2.102,0.7,3.2,3,2.4,5.1C1269.1,1354.7,1268.6,1356,1268.1,1357.2z"/>
		</g>
	</g>
	<rect x="1829.1" y="979.4" fill="#FAB65B" width="252.301" height="485.398"/>
	<polygon fill="#705F5F" points="2229.4,1122.1 2409.2,1122.1 2409.2,1149 	"/>
	<rect x="2229.4" y="925.2" fill="#705F5F" width="15.6" height="0.3"/>
	<rect x="2229.4" y="932.9" fill="#705F5F" width="36.198" height="0.3"/>
	<rect x="2229.4" y="940.7" fill="#705F5F" width="63.3" height="0.3"/>
	<rect x="2229.4" y="948.4" fill="#705F5F" width="94.398" height="0.3"/>
	<rect x="2229.4" y="956.2" fill="#705F5F" width="127.5" height="0.3"/>
	<rect x="2229.4" y="963.9" fill="#705F5F" width="156" height="0.3"/>
	<rect x="2229.4" y="971.7" fill="#705F5F" width="193.1" height="0.3"/>
	<rect x="2229.4" y="979.4" fill="#705F5F" width="243.398" height="0.3"/>
	<rect x="2229.4" y="987.2" fill="#705F5F" width="243.398" height="0.3"/>
	<rect x="2229.4" y="995" fill="#705F5F" width="243.398" height="0.3"/>
	<rect x="2229.4" y="1002.7" fill="#705F5F" width="243.398" height="0.3"/>
	<rect x="2229.4" y="1010.5" fill="#705F5F" width="243.398" height="0.3"/>
	<rect x="2229.4" y="1018.2" fill="#705F5F" width="243.398" height="0.3"/>
	<rect x="2229.4" y="1026" fill="#705F5F" width="243.398" height="0.3"/>
	<rect x="2229.4" y="1033.7" fill="#705F5F" width="243.398" height="0.3"/>
	<rect x="2229.4" y="1041.5" fill="#705F5F" width="243.398" height="0.3"/>
	<rect x="2229.4" y="1049.2" fill="#705F5F" width="243.398" height="0.3"/>
	<rect x="2229.4" y="1057" fill="#705F5F" width="243.398" height="0.3"/>
	<rect x="2229.4" y="1064.7" fill="#705F5F" width="243.398" height="0.3"/>
	<rect x="2229.4" y="1072.5" fill="#705F5F" width="243.398" height="0.3"/>
	<rect x="2229.4" y="1080.2" fill="#705F5F" width="243.398" height="0.3"/>
	<rect x="2229.4" y="1088" fill="#705F5F" width="243.398" height="0.3"/>
	<rect x="2229.4" y="1095.7" fill="#705F5F" width="243.398" height="0.3"/>
	<rect x="2229.4" y="1103.5" fill="#705F5F" width="243.398" height="0.3"/>
	<rect x="2229.4" y="1111.2" fill="#705F5F" width="243.398" height="0.3"/>
	<rect x="2229.4" y="1119" fill="#705F5F" width="243.398" height="0.3"/>
	<g>
		<rect x="1915.3" y="1176.4" fill="#046096" width="120.602" height="288.5"/>
		<g>
			<path fill="#016096" d="M2034.2,1460.4H1917.1v-279.5H2034.2V1460.4z M1931.2,1449.9h88.898V1191.3H1931.2V1449.9z"/>
			<rect x="1924.1" y="1186.1" fill="#DBE6E6" width="103" height="277.4"/>
		</g>
		<rect x="1924" y="1236.8" fill="#046096" width="103.3" height="4.602"/>
	</g>
	<rect x="138.2" y="1241.9" fill="none" stroke="#016096" stroke-width="12" stroke-miterlimit="10" width="202.8" height="174.8"/>
	<g>
		<path fill="#3463AE" d="M1724.8,1426.4c-1-1.9-2.1-4.102-3.3-6.4c1-1.1,1.7-2.5,1.7-4.1c0-3.302-2.7-6-6-6h-1.2
			c-0.4-0.802-0.9-1.5-1.3-2.302c-7.8-13.3-17.602-26.5-31.602-42.6c-21.3-24.4-39.398-39.5-58.6-49c-19.8-9.8-41.6-14.2-70.8-14.2
			c-14.801,0-31,0.8-48.9,6.5c-23.3,7.4-42.898,21.602-58.2,42c-0.3,0.3-0.5,0.8-1,1.102c0,0-1.398,0.1-1.5,0.1
			c-37.3,0.3-73.898,13.3-87.8,25.8l0,0l-6.5,5.9c-1.398,0.7-10.7,0.398-10.7,6.5v11c0,0.2,0,0.398,0,0.5c0,0.8,0,1.7,0,2.5
			c-0.8,2-1.5,4-2.198,6.1h-2.2c-3.3,0-6,2.7-6,6c0,3.2,2.5,5.801,5.6,6c-0.2,3.801,0.2,6.5,0.2,6.5c4.2,0.4,6.7-1.398,7.2-5
			c2.5-18.6,21.8-31.199,41.398-31.199c21.5,0,39.302,15.801,42.5,36.399c0.302,2.2,3.802,10.7,18,10.7c18.5,0,141.9,0,141.9,0
			c11.2,0,12.5-8.3,12.8-10.4c3.102-20.699,21-36.6,42.602-36.6c20,0,36.898,13.8,41.698,32.3c0.9,3.4,3.802,10.8,20.7,10.8
			c8.9,0,15.102-1,17.4-1.398c0.699,0,1.398-0.2,2-0.5C1725.1,1432,1726.1,1428.9,1724.8,1426.4z M1546.5,1356.4h-2.1h-12.7h-70.4
			c-1.8,0-3.3-1.5-3.3-3.2c0-0.5,0.1-0.9,0.3-1.4c29.4-35.5,67-39.3,88.2-39.8V1356.4L1546.5,1356.4z M1653.3,1356.4h-96.6V1312
			c41.6,0.5,68.7,10.6,98.399,38.6C1655.5,1351,1660.7,1356.4,1653.3,1356.4z"/>
		<path fill="#010101" d="M1640.8,1428.4c3.8,0,6.9,3.1,6.9,6.898c0,3.8-3.101,6.9-6.9,6.9c-3.799,0-6.898-3.101-6.898-6.9
			C1633.901,1431.5,1637,1428.4,1640.8,1428.4z"/>
		<path fill="#010101" d="M1640.8,1403.2c-17.7,0-32.1,14.398-32.1,32.1s14.399,32.102,32.1,32.102c17.701,0,32-14.4,32-32.102
			S1658.4,1403.2,1640.8,1403.2z M1640.8,1454.6c-10.7,0-19.3-8.698-19.3-19.3c0-10.7,8.7-19.3,19.3-19.3
			c10.602,0,19.3,8.7,19.3,19.3C1660.1,1445.9,1651.4,1454.6,1640.8,1454.6z"/>
		<circle fill="#010101" cx="1383" cy="1435.3" r="6.9"/>
		<path fill="#010101" d="M1383,1403.2c-2.8,0-5.4,0.398-8,1c-13.8,3.6-24.1,16.1-24.1,31.1c0,14.9,10.198,27.5,24.1,31
			c2.6,0.7,5.2,1,8,1c17.7,0,32.1-14.398,32.1-32.1C1415,1417.6,1400.7,1403.2,1383,1403.2z M1363.7,1435.3
			c0-10.699,8.7-19.3,19.3-19.3s19.3,8.7,19.3,19.3c0,10.602-8.7,19.301-19.3,19.301C1372.3,1454.6,1363.7,1445.9,1363.7,1435.3z"/>
	</g>
	<polygon fill="#FAB65B" points="951.8,1212.5 853.5,1137 853.5,861 951.8,861 	"/>
	<circle fill="#6FCCDA" cx="1979.3" cy="889.8" r="8.3"/>
	<rect x="1965.8" y="866.5" fill="#6FCCDA" width="27" height="5.8"/>
	<rect x="1965.8" y="856.9" fill="#6FCCDA" width="27" height="5.8"/>
	<circle fill="#6FCCDA" cx="1979.3" cy="912.7" r="8.3"/>
	<rect x="1965.8" y="866.5" fill="#8F9393" width="27" height="5.8"/>
	<circle fill="#8F9393" cx="1979.3" cy="889.8" r="8.3"/>
	<rect x="1965.8" y="856.9" fill="#8F9393" width="27" height="5.8"/>
	<circle fill="#8F9393" cx="1979.3" cy="912.7" r="8.3"/>
	<circle fill="#FFFFFF" cx="1979.3" cy="889.8" r="8.3"/>
	<circle fill="#FFFFFF" cx="1979.3" cy="912.7" r="8.3"/>
	<rect x="1965.8" y="856.9" fill="#FFFFFF" width="27" height="5.8"/>
	<rect x="1965.8" y="866.5" fill="#FFFFFF" width="27" height="5.8"/>
	<path fill="none" stroke="#4591CE" stroke-width="2" stroke-linecap="round" stroke-miterlimit="10" d="M609.7,233.8"/>
	<path fill="none" stroke="#4591CE" stroke-width="2" stroke-linecap="round" stroke-miterlimit="10" d="M609.7,52.2"/>
	<path fill="none" stroke="#4591CE" stroke-width="2" stroke-linecap="round" stroke-miterlimit="10" d="M699.8,110"/>
	<path fill="none" stroke="#4591CE" stroke-width="2" stroke-linecap="round" stroke-miterlimit="10" d="M610.8,79.5"/>
	<path fill="none" stroke="#4591CE" stroke-width="2" stroke-linecap="round" stroke-miterlimit="10" d="M529.8,108.1"/>
	<path fill="#8F9393" d="M1799.7,782.9V1084H2101.1V782.9H1799.7z M1999.4,931.1c0,3.4-2.802,6.102-6.102,6.102h-155.5
		c-3.398,0-6.1-2.8-6.1-6.102V820.9c0-3.4,2.8-6.102,6.1-6.102h155.5c3.4,0,6.102,2.8,6.102,6.102V931.1z"/>
	<path fill="#6FCCDA" d="M1788.1,762.2v310.5H2090V762.2H1788.1z M1999.4,931.1c0,3.4-2.802,6.102-6.102,6.102h-155.5
		c-3.398,0-6.1-2.8-6.1-6.102V820.9c0-3.4,2.8-6.102,6.1-6.102h155.5c3.4,0,6.102,2.8,6.102,6.102V931.1z"/>
	<path fill="#3463AE" d="M1808,782.9V1052h261.7V782.9H1808z M1999.4,931.1c0,3.4-2.802,6.102-6.102,6.102h-155.5
		c-3.398,0-6.1-2.8-6.1-6.102V820.9c0-3.4,2.8-6.102,6.1-6.102h155.5c3.4,0,6.102,2.8,6.102,6.102V931.1z"/>
	<rect x="1965.8" y="828.3" fill="#6FCCDA" width="27" height="5.8"/>
	<rect x="1965.8" y="847.4" fill="#6FCCDA" width="27" height="5.8"/>
	<rect x="1965.8" y="837.8" fill="#6FCCDA" width="27" height="5.8"/>
	<rect x="1965.8" y="847.4" fill="#8F9393" width="27" height="5.8"/>
	<rect x="1965.8" y="828.3" fill="#8F9393" width="27" height="5.8"/>
	<rect x="1965.8" y="837.8" fill="#8F9393" width="27" height="5.8"/>
	<path fill="#191918" d="M1993.3,814.8h-155.5c-3.398,0-6.1,2.8-6.1,6.102V931.1c0,3.4,2.8,6.102,6.1,6.102h155.5
		c3.4,0,6.102-2.8,6.102-6.102V820.9C1999.4,817.5,1996.7,814.8,1993.3,814.8z M1956.8,900c0,13.2-10.8,24-24,24h-64.2
		c-13.198,0-24-10.8-24-24v-48c0-13.2,10.802-24,24-24h64.2c13.2,0,24,10.8,24,24V900z M1979.3,921c-4.6,0-8.3-3.7-8.3-8.3
		c0-4.602,3.7-8.3,8.3-8.3c4.602,0,8.3,3.698,8.3,8.3C1987.6,917.3,1983.9,921,1979.3,921z M1979.3,898.1c-4.6,0-8.3-3.698-8.3-8.3
		c0-4.6,3.7-8.3,8.3-8.3c4.602,0,8.3,3.7,8.3,8.3C1987.6,894.4,1983.9,898.1,1979.3,898.1z M1992.8,872.3h-27v-5.8h27V872.3z
		 M1992.8,862.7h-27v-5.8h27V862.7z M1992.8,853.2h-27v-5.8h27V853.2z M1992.8,843.6h-27v-5.8h27V843.6z M1992.8,834.1h-27v-5.8h27
		V834.1z"/>
	<rect x="1965.8" y="828.3" fill="#FFFFFF" width="27" height="5.8"/>
	<rect x="1965.8" y="837.8" fill="#FFFFFF" width="27" height="5.8"/>
	<rect x="1965.8" y="847.4" fill="#FFFFFF" width="27" height="5.8"/>
	<path fill="#D7CAAF" d="M2006.5,926.8l-35.4-1c0,0,6.802-17.3,2.5-29.7c-2.398-6.898,28-6.698,26.2,0.302
		C1995.3,913.6,2006.5,926.8,2006.5,926.8z"/>
	<path fill="#D7CAAF" d="M1967.9,883.7c0,0-3.5-3.3-2.802,1.6c0.7,4.9,3.7,10.9,4.5,9.102c0.802-1.802,1.4-3.602,1.4-4.2
		c0-0.7-3-6.2-3-6.2"/>
	<path fill="#D7CAAF" d="M2004.9,883.2c0,0,3.5-3.3,2.8,1.6c-0.7,4.9-3.7,10.9-4.5,9.102c-0.8-1.802-1.4-3.602-1.4-4.2
		c0-0.7,3-6.2,3-6.2"/>
	<path fill="#939293" d="M2002.9,871.3c3.6,4.3,6.3,11.602-0.9,23.9c-1.5,2.6-5.3,7.898-7.5,8.8c-5.9,2.5-11.8,1.6-16.6-0.6
		c-3-1.4-5.602-7.102-7.302-9.102c-3-3.5-7.3-18.398-1.8-24.1c1.602-1.602,5.102-4,5.3-3.7c0.5,0.7,3.7,7.5,12.302,7.7
		c10.898,0.3,11-6.9,11-6.9S2001.2,869.4,2002.9,871.3z"/>
	<path fill="#E6E640" d="M1937.6,1045.5l6.102-100.3c0.898-22.5,10.5-17.4,20.3-22.9c8.9-5,7.6-7.7,9-8.8c1.2-0.9,4.9-0.4,13.2-0.4
		c1.199,0,14-1.698,15.1,0.602c3,6.7,7.5,9.1,15.602,10.398c12.8,2,21,13.102,23.1,20.4c0,0,10.8,22.8,2.699,101"/>
	<path fill="#232323" d="M2059.2,1034.9c0,8.398-5.4,15.198-12.101,15.198h-183.601c-6.7,0-12.1-6.8-12.1-15.198V973.6
		c0-8.398,5.398-15.198,12.1-15.198H2047.1c6.699,0,12.101,6.8,12.101,15.198V1034.9z"/>
	<rect x="1939.9" y="781.1" fill="#6FCCDA" width="6.8" height="270.9"/>
	<rect x="1806" y="912.8" fill="#6FCCDA" width="264.5" height="5"/>
	<ellipse fill="#D7CAAF" cx="1985.6" cy="870.6" rx="13.2" ry="7.9"/>
	<rect x="976.9" y="966.6" fill="#3463AE" width="118.5" height="4.2"/>
	<rect x="1371.4" y="966.6" fill="#3463AE" width="110" height="4.2"/>
	<rect x="976.9" y="989.3" fill="#3463AE" width="118.5" height="4.2"/>
	<rect x="1371.4" y="989.3" fill="#3463AE" width="110" height="4.2"/>
	<rect x="1371.4" y="1011.9" fill="#3463AE" width="110" height="4.198"/>
	<rect x="976.9" y="1011.9" fill="#3463AE" width="118.5" height="4.198"/>
	<rect x="1371.4" y="1034.5" fill="#3463AE" width="110" height="4.2"/>
	<rect x="976.9" y="1034.5" fill="#3463AE" width="118.5" height="4.2"/>
	<rect x="976.9" y="1057.1" fill="#3463AE" width="118.5" height="4.2"/>
	<rect x="1371.4" y="1057.1" fill="#3463AE" width="110" height="4.2"/>
	<rect x="976.9" y="1079.8" fill="#3463AE" width="118.5" height="4.2"/>
	<rect x="1371.4" y="1079.8" fill="#3463AE" width="110" height="4.2"/>
	<rect x="1371.4" y="1102.4" fill="#3463AE" width="110" height="4.198"/>
	<rect x="976.9" y="1102.4" fill="#3463AE" width="118.5" height="4.198"/>
	<rect x="976.9" y="1125" fill="#3463AE" width="118.5" height="4.2"/>
	<rect x="1371.4" y="1125" fill="#3463AE" width="110" height="4.2"/>
	<rect x="1371.4" y="1147.6" fill="#3463AE" width="110" height="4.2"/>
	<rect x="976.9" y="1147.6" fill="#3463AE" width="118.5" height="4.2"/>
	<rect x="976.9" y="1170.2" fill="#3463AE" width="118.5" height="4.199"/>
	<rect x="1371.4" y="1170.2" fill="#3463AE" width="110" height="4.199"/>
	<rect x="976.9" y="1192.9" fill="#3463AE" width="504.5" height="4.198"/>
	<rect x="976.9" y="1213.9" fill="#3463AE" width="505" height="4.198"/>
	<rect x="976.9" y="942.3" fill="#3463AE" width="118.5" height="4.2"/>
	<rect x="1371.4" y="942.3" fill="#3463AE" width="109.898" height="4.2"/>
	<rect x="976.9" y="918.9" fill="#3463AE" width="504.6" height="4.198"/>
	<path fill="none" stroke="#54483E" stroke-width="0.5" stroke-linecap="round" stroke-miterlimit="10" d="M374.9,898.4"/>
	<path fill="none" stroke="#54483E" stroke-width="0.5" stroke-linecap="round" stroke-miterlimit="10" d="M374.9,898.4"/>
	<path fill="#0E103B" d="M103.5,795"/>
	<g>
		<path fill="none" stroke="#988F86" stroke-width="0.25" stroke-miterlimit="10" d="M1436.7,878.1"/>
		<path fill="none" stroke="#988F86" stroke-width="0.25" stroke-miterlimit="10" d="M933.8,878.1"/>
		<path fill="none" stroke="#988F86" stroke-width="0.25" stroke-miterlimit="10" d="M1436.7,889"/>
		<path fill="none" stroke="#988F86" stroke-width="0.25" stroke-miterlimit="10" d="M933.8,889"/>
	</g>
	<g>
		
			<rect x="947.412" y="835.133" transform="matrix(0.8193 -0.5733 0.5733 0.8193 -309.174 701.7495)" fill="#F4F4F4" width="22.9" height="12.601"/>
		
			<rect x="943.793" y="838.119" transform="matrix(0.8194 -0.5733 0.5733 0.8194 -316.0802 696.3318)" fill="#F4F4F4" width="6.199" height="23.2"/>
		
			<rect x="967.562" y="821.419" transform="matrix(0.8194 -0.5732 0.5732 0.8194 -302.2015 706.8273)" fill="#F4F4F4" width="6.2" height="23.201"/>
		<path fill="#F4F4F4" d="M985.1,823.9c0.2,0.398,0.2,0.8-0.198,1.1l-50.4,35.3c-0.4,0.2-0.8,0.2-1.1-0.2l0,0
			c-0.2-0.398-0.2-0.8,0.198-1.1l50.4-35.3C984.4,823.4,984.9,823.5,985.1,823.9L985.1,823.9z"/>
	</g>
	<g>
		<g id="Your_Icon_4_">
			<path fill="#5B3839" d="M211.4,791.4c0.4-1.5,0.3-1.102,1.5-1.602c1.1-0.5,4.8-0.2,6.3,0.102c1.5,0.3,3.2-0.802,5-0.7
				c1.8,0.1,16.3-1.102,22-1.5c5.7-0.4,12.1-0.3,13.5-1.7c1.4-1.4,5.2-2.2,7-2.9c1.8-0.698,5.1-1,7.9-5.1c2.8-4.2,1-7.5,0.4-11.1
				c-0.6-3.602-2.1-3.602-4.9-2.102c-2.8,1.5-3.8,5.4-4.4,7c-0.7,1.5-5,2.9-5,2.9s-7.9,1.6-11.2,1.6s-5.3,0-5.3,0
				c-1.1,0.102-4.7-0.398-7.2-0.7c-2.5-0.3-14.3-1.3-17.4-1.8c-3.1-0.6-6.1-1.898-8.2-2.8c-2.1-0.8-4.7-2.6-5.6-3.8"/>
		</g>
	</g>
	<g>
		<g id="Your_Icon_7_">
			<path fill="#5B3839" d="M209.8,779.1c0.1-1.398,0-1,0.9-1.698c0.9-0.602,4.1-1.102,5.5-1.102c1.4-0.1,2.6-1.3,4.2-1.6
				c1.6-0.2,13.7-4.102,18.6-5.602c4.8-1.5,10.3-2.6,11.2-4c0.9-1.5,4-2.898,5.4-3.8c1.4-0.898,4.2-1.8,5.8-5.898
				c1.6-4.102-0.6-6.602-1.8-9.602c-1.2-3-2.5-2.7-4.6-0.8c-2.1,1.8-2.2,5.4-2.5,6.8c-0.3,1.4-3.7,3.5-3.7,3.5s-6.5,2.9-9.3,3.602
				c-2.8,0.6-4.6,1.1-4.6,1.1c-0.9,0.3-4.1,0.6-6.3,0.8c-2.2,0.2-12.5,1.7-15.3,1.8c-2.7,0.102-5.6-0.5-7.6-0.8
				c-1.9-0.3-4.6-1.398-5.5-2.1"/>
		</g>
	</g>
	<path id="dog-body_1_" fill="#5B3839" d="M140.7,880.3c5.7,1.3,23,1.3,23,1.3h13.6h28.2c0-11.198-8.8-7.1-8.8-7.1
		c5.7-7.3,17.3-35.3-12.4-37.3c0,0,1.8-4.3,3.6-6.5c10.5-12.9,45.4-18.9,35.5-60.4c-2.4-10-19.4-22.7-7.5-27.7
		c3.1-1.3,10.2-9.6,10.4-10.6c0.2-1,1.5-3.3,2.1-3.7c1-0.7,1.5-1.2,2.3-3.398c0.8-2.2,0-7.2-0.5-9.102
		c-0.5-1.898-1.9-2.898-1.9-2.898s0.9-0.2-0.7-2.9c-1.4-2.5-4.3-0.8-5.2-0.5c-0.9,0.2-6.3,3.2-10.7,5.8
		c-4.4,2.602-6.1,0.102-7.9-0.5c-1.8-0.6-4.5-1.5-7.5,0c-1.7,0.8-4.8,2.3-8,4.5c-0.3,0-0.7,0.102-1,0.2c-1.3,0.4-2.4,0.4-5.1,2.8
		c-2.5,2.3-3.4,6.4-3.2,7.602l0,0c-1.7,5.398-3.3,10.1-3.3,12.5c0,3,2.2,4.6,1.2,12.1s-1.9,11.3-4.1,16.1
		c-12.4,25.2-21.1,53.4-28.6,70.9c-8.1,18.9-0.4,31.5-0.4,31.5"/>
	<g>
		<path fill="#998462" d="M269.1,751.7c0.9,5.5-4,10.5-11,11.2c-7,0.698-13.4-3.102-14.3-8.602c-0.9-5.5,4-10.5,11-11.2
			C261.7,742.3,268.1,746.2,269.1,751.7z"/>
		<path fill="#FFFFFF" d="M263,770.9c-0.6,3.698-4.8,6.3-9.6,5.898l-0.9-0.1c-4.7-0.4-8.1-3.8-7.6-7.5l2.6-17.4
			c0.6-3.7,4.8-6.3,9.6-5.898l0.9,0.1c4.7,0.4,8.1,3.8,7.6,7.5L263,770.9z"/>
		<path fill="#AA9268" d="M266.5,766.2c0.9,5.5-4,10.5-11,11.2c-7,0.698-13.4-3.102-14.3-8.602c-0.9-5.5,4-10.5,11-11.2
			C259.1,756.9,265.6,760.8,266.5,766.2z"/>
		<path fill="#A08C6B" d="M253.3,783.4c-0.1,0.698-1.3,1.3-2.7,1.1l0,0c-1.4-0.1-2.5-0.8-2.4-1.5l2.4-16c0.1-0.7,1.3-1.3,2.7-1.1
			h-0.2c1.4,0.1,2.5,0.8,2.4,1.5L253.3,783.4z"/>
	</g>
	<path fill="#EADCBE" d="M916.3,637l8.2,7.1l20.1-25.898c0,0,5.5-9.2,7.4-13c1.9-3.9,9.3-4.2,11.3-7.602c1.9-3.398,3.4,2.5-0.7,4.7
		c-3,1.602-1.698,3.102-1.698,3.102s2.198-0.802,6.398-2c0.5-0.102,3.3,0.8-1.2,3c-0.198,0.1,2.9-1.102,2.602,0.898
		c-0.2,1.5-3.602,2.3-3.9,2.602c-0.398,0.5,3-1.9,3.102,0.3c0,1.6-5.302,2.6-4.7,2.8c0.2,0.1,2.1-1.2,2.398,0.6
		c0.2,1.302-7.6,4.2-8,4.4c-2.698,1.2-5.5,2.9-5.5,2.9S937.9,643.8,935.5,647.2c-2.4,3.398-11.8,15.7-14,13.7
		c-2.2-1.9-8.9-8.7-8.9-8.7v-12.3L916.3,637z	">
<animateTransform  type="rotate" fill="remove" attributeType="XML" attributeName="transform" values="0 916.3 637; 6 916.3 637; 0 916.3 637" dur="2s" repeatDur="indefinite" accumulate="none" additive="replace" calcMode="linear" restart="always">
			</animateTransform>
	</path>
	<path fill="#6FCCDA" d="M887.2,679.8c-2-10.5-2-36-18.602-41.2c-9.198-2.898,0-31.398,0-31.398s23.9,21.6,29.802,18.3
		c2.8-1.5-14-14.4-15.7-17.8c-0.3-0.5,0.7-0.8,0.7-0.8c7.5,9.398,22.3,21,29.198,25.3c8.7,5.3,7,16.398-0.198,20.5
		c-0.302,0.2,4.398,21.1,4.898,28.7"/>
	<path fill="#EADCBE" d="M893.2,576.5c0,0,1,2.3,1,6.9c0,4.698-0.102,4.5,0.898,6.1s4,3.5,3.102,4.8c-1,1.3-2.4,1.3-2.4,2.102
		c0,0.8,0.9,2.198,0,2.698c-0.898,0.5-2.7,0.7-2.2,1.302c0.5,0.6,1.5,0.8,1.302,1.3c-0.2,0.398-0.802,0.7-0.802,1.7s1,4.1-0.6,4.1
		s-5.5-0.6-7.4-0.8c-1.8-0.2-4.3-0.2-4.1,2.2c0.2,2.398-13.8,0.1-13.8-1.802c0-5.398,1.5-8.3,0.3-17c-1.2-8.698,8.7-17.8,8.7-17.8
		l9.398,2.4L893.2,576.5z"/>
	<path fill="#3E2B2F" d="M919.8,853.4c0,0,2.7,1.6,0.8,4.198c-2.1,3-7.6,2.102-16.898,2.5c-9.3,0.302-26.5,0.2-29.602,0
		C869.9,859.9,870,857.2,869.7,854.9c-0.3-2.9,0.3-6.4,0.3-6.4s0.4,4.2,4,4.6c3.6,0.4,26.3,3.7,28.2,0.4c1.898-3.3-0.2-4.2,2.2-4.2
		C913.6,849.7,919.8,853.4,919.8,853.4z"/>
	<path fill="#3E2B2F" d="M872.1,592.6c0-0.8,4.102-4.698,6.2,0.7c0.5,1.2,0.4,3.9,0.4,3.9s1.5-1.8,1.5-4.4c0-2.7,1.1-3.8,3.2-5
		c0.5-0.3-13.2-2.398-13.2-2.398S872.1,594.5,872.1,592.6z"/>
	<path fill="#FCC87A" d="M864.9,640.8"/>
	<path fill="#6FCCDA" d="M886.9,685.5"/>
	<path id="girl-hair" fill="#3E2B2F" d="M875,572.7c-13.8,6.3-8.9,12.5-18,14.5s-13-1-24.2-5.8c-11.2-4.802-23.8-3.102-29.1,6.398
		s-14.8,5.5-18.102,11.2c-4.6,7.9-4.898,22.4,14.302,23.7c13.1,0.898,13.398-10,27.698-4.9c10.102,3.602,23.2,4,29.602-9.3
		c6.398-13.3,15-2.4,14.898-12.1c-0.1-4.9-0.6-5.802,8.802-7.302c0.1,0,3.3-0.6,4.198-4c0.5-2-0.3-4.198-0.3-4.1
		c3,2.2,2.102,6.4,2.102,6.4c6.3,0.199,8.198-2.801,8.198-2.801s0.7-5.601-3.1-10C888.8,570.9,881.6,569.6,875,572.7z	">
<animate  fill="remove" attributeType="XML" attributeName="d" values="M875,572.7c-13.8,6.3-8.9,12.5-18,14.5c-9.1,2-13-1-24.2-5.8c-11.2-4.8-23.8-3.1-29.1,6.4  c-5.3,9.5-14.8,5.5-18.1,11.2c-4.6,7.9-4.9,22.4,14.3,23.7c13.1,0.9,13.4-10,27.7-4.9c10.1,3.6,23.2,4,29.6-9.3  c6.4-13.3,15-2.4,14.9-12.1c-0.1-4.9-0.6-5.8,8.8-7.3c0.1,0,3.3-0.6,4.2-4c0.5-2-0.3-4.2-0.3-4.1c3,2.2,2.1,6.4,2.1,6.4  c6.3,0.2,8.2-2.8,8.2-2.8s0.7-5.6-3.1-10C888.8,570.9,881.6,569.6,875,572.7z;                                                    M875.1,572.8c-13.8,6.3-8.9,12.5-18,14.4c-9.1,2-14.2-16.1-24.1-5.8  c-8.4,8.8-20.7-9.7-29,6.4c-7.5,14.4-7.9,2.2-17.9,6.1c-8.4,3.4-12,34.8,14.1,28.6c12.6-3,16.5,5.3,27.6-4.9  c10.7-9.8,23.1,4,29.5-9.3c6.4-13.3,15-2.4,14.8-12.1c-0.1-4.9-0.6-5.8,8.7-7.3c0.1,0,3.3-0.6,4.2-4c0.5-2-0.3-4.2-0.3-4.1  c3,2.2,2.1,6.4,2.1,6.4c6.2,0.2,8.2-2.8,8.2-2.8s0.7-5.5-3.1-9.9C888.8,571,881.7,569.7,875.1,572.8z;                                                   M875.1,572.8c-13.8,6.3-9,12-18,14.5c-12.5,3.4-15.8-11.5-24.2-5.8  c-14.8,9.9-19.8-9-29.1,6.4c-5.6,9.3-8.5,6.2-18.1,11.2c-9.8,5.2-1.9,31.1,14.3,23.7c14.6-6.7,16.9-3.6,27.7-4.9  c8.6-1.1,20.6,7.1,29.6-9.3c7.1-13,15-2.4,14.9-12.1c-0.1-4.9-0.6-5.8,8.8-7.3c0.1,0,3.3-0.6,4.2-4c0.5-2-0.3-4.2-0.3-4.1  c3,2.2,2.1,6.4,2.1,6.4c6.3,0.2,8.2-2.8,8.2-2.8s0.7-5.6-3.2-10C888.9,571,881.7,569.7,875.1,572.8z;                                                         M875.1,572.8c-13.8,6.3-8.9,12.5-18,14.4c-9.1,2-14.2-16.1-24.1-5.8  c-8.4,8.8-20.7-9.7-29,6.4c-7.5,14.4-7.9,2.2-17.9,6.1c-8.4,3.4-12,34.8,14.1,28.6c12.6-3,16.5,5.3,27.6-4.9  c10.7-9.8,23.1,4,29.5-9.3c6.4-13.3,15-2.4,14.8-12.1c-0.1-4.9-0.6-5.8,8.7-7.3c0.1,0,3.3-0.6,4.2-4c0.5-2-0.3-4.2-0.3-4.1  c3,2.2,2.1,6.4,2.1,6.4c6.2,0.2,8.2-2.8,8.2-2.8s0.7-5.5-3.1-9.9C888.8,571,881.7,569.7,875.1,572.8z;                                                    M875,572.7c-13.8,6.3-8.9,12.5-18,14.5c-9.1,2-13-1-24.2-5.8c-11.2-4.8-23.8-3.1-29.1,6.4  c-5.3,9.5-14.8,5.5-18.1,11.2c-4.6,7.9-4.9,22.4,14.3,23.7c13.1,0.9,13.4-10,27.7-4.9c10.1,3.6,23.2,4,29.6-9.3  c6.4-13.3,15-2.4,14.9-12.1c-0.1-4.9-0.6-5.8,8.8-7.3c0.1,0,3.3-0.6,4.2-4c0.5-2-0.3-4.2-0.3-4.1c3,2.2,2.1,6.4,2.1,6.4  c6.3,0.2,8.2-2.8,8.2-2.8s0.7-5.6-3.1-10C888.8,570.9,881.6,569.6,875,572.7z" dur="2s" repeatDur="indefinite" accumulate="none" additive="replace" calcMode="linear" restart="always">
			</animate>
	</path>
	<g id="fail-kite">
		<g>
			<g>
				<path fill="none" stroke="#FFFFFF" stroke-width="4" stroke-linecap="round" stroke-miterlimit="10" d="M2123,671.6
					c0,0,12.8,12.602,7.7,32c-5,19.4-15,24.802-3,47.302"/>
				<path fill="none" stroke="#FCEE22" stroke-width="4" stroke-linecap="round" stroke-miterlimit="10" d="M2122.9,671.7
					c0,0,14.698,9.5,12.698,29.398c-2,19.9-6.398,28,3.802,47.102"/>
			</g>
			<path fill="#FFFFFF" d="M2072.9,644.9c0,0,1.3-7.802,7-18.2c4.398-8.102,9.898-16.102,9.898-16.102l38.602,11.9l-2.4,48.8
				l-4,2.102L2072.9,644.9z"/>
		</g>
		<path id="fail-kite-string" fill="none" stroke="#FFFFFF" stroke-width="2" stroke-miterlimit="10" d="M1611.4,628.4
			c42.5-0.7,281.398,10.898,490.898,6"/>
		
			<animateTransform  type="rotate" fill="remove" attributeType="XML" attributeName="transform" values="0 1611.4 628.4; -12 1611.4 628.4; -25 1611.4 628.4; -10 1611.4 628.4; 0 1611.4 628.4; 0 1611.4 628.4; 0 1611.4 628.4" dur="4s" repeatDur="indefinite" accumulate="none" additive="replace" calcMode="linear" restart="always">
			</animateTransform>
	</g>
	<path fill="none" stroke="#FFFFFF" stroke-width="2" stroke-miterlimit="10" d="M1618.3,845.9c0,0,28.4-49.602-11.5-92.602
		c-39.898-43-57-32.898-58.6-61.898c-1.5-29.102,18.7-27.102,24.7-29.102c5.8-1.898-0.7-18.6,28.3-31.8"/>
	<path fill="#EADCBE" d="M2162.4,680.3c-7.9,5.4-11.2,9.8-4.2,13.3c0.8,0.4-1.102,45.302,0.398,48.9s1.7,24.6,9.302,40.1
		c7.6,15.602,13,23.7,13,28.5c-0.2,10.5,8.3,19.102,8.3,19.102s17.8,58.898,12,66.398c-3.3,4.302-23.102,4.302-8.3,8.5
		c13.6,3.9,13.898,6.302,26.698,3.5c2.9-0.698-1.5-9.3-1.5-9.3s-6.5-24.1-5.1-49.7c1-18-5.5-28.8-7.7-32
		c-3.398-4.8-4.602-13.898-5.5-19.398c-1.602-10.8-4.7-33.8-4.7-33.8s0.802-6.9,2.4-15.102c2.198-11.7-11.302-21.6-11.302-21.6
		s-10.6-34.102,11.7-47.3c7.8-4.602,3.5-28.102,3.5-28.102s-10.7-11.398-14.2,0.4C2183.3,666.3,2168.7,676,2162.4,680.3z"/>
	<path fill="#5A479D" d="M2187.1,716.5c1.4-10,0.802-23.2,15.602-39.4c7.5-8.198-1.5-29.6-1.5-29.6s-10.8-11.5-14.3,0.4
		c-4.102,13.8-24.302,24-30.602,28.3c-8,5.398-5.898,15.7,1.102,19.3c0.3,0.2-1.602,15.3-1.7,22.4"/>
	<path fill="#EADCBE" d="M2176.6,619.7c0,0-0.8,2.2-0.6,6.6c0.2,4.4,0.3,4.2-0.6,5.8c-0.9,1.602-3.602,3.5-2.7,4.7
		c1,1.2,2.398,1.102,2.398,1.9c0,0.7-0.698,2.1,0.102,2.6c0.8,0.4,2.6,0.5,2.2,1.102c-0.4,0.6-1.4,0.898-1.2,1.3
		c0.2,0.398,0.8,0.6,0.8,1.6c0,0.9-0.7,3.9,0.8,3.9c1.5-0.102,5.2-0.8,6.9-1.102c1.7-0.198,4-0.398,3.898,1.9
		c-0.1,2.3,12.2,6.2,12.9,2.3c0.698-3.898-1.802-12.398-1-20.7c0.698-8.198-9-16.398-9-16.398l-8.7,2.7L2176.6,619.7z"/>
	<path fill="#0E103B" d="M2175.6,615.8c0,0,1-3.6,5.4-6c3.9-2.1,22.9-12.2,27.4,7.4c3.698,16.1-13.4,25.3,0,34.7
		c5.3,3.698,12.1,1.5,12.1,1.5s-5.6,9.8-15.7,7.3c-10.1-2.5-15.6-12.2-9.2-23.602c2.9-5.198,4.102-9.1-2.5-8.1
		c-6.6,1-12.198-1.9-15.1-6.8C2175,617.5,2175.6,615.8,2175.6,615.8z"/>
	<path fill="#EADCBE" d="M2159.1,731.5c-0.1,3.9-5.8,24.7-11.6,39.5c-6.1,15.3-10.9,22.4-11.3,27.1c-0.4,4.7,0.898,14,0.898,14
		s10.4,64.4,2,68.9c-4.698,2.5-11.198-0.6-23.3-0.4c-2.2,0-4.2-3.898-5.8-1.5c-2.2,3.302-0.102,4.5,13.198,9.2
		c13.302,4.7,24,10.3,28.102,7.4c2.398-1.8,2.5-9.102,2.5-9.102s0.7-23.198,5.898-42.1c4.9-17.7-2-28.5-2.698-32.3
		c-1.2-5.8,1.8-9.7,6.6-16c5.7-7.5,23.9-26.4,23.9-26.4s0.8-4.7,4.3-16s-4.2-23.3-4.2-23.3"/>
	<path fill="#5A479D" d="M2108.3,878.6c0,0-2.8,0.7-1.898,3.602c1.1,3.3,6.198,4,14.6,6.8c8.302,2.8,23.9,7.4,26.7,8.1
		c3.8,0.9,4.5-1.398,5.398-3.5c1.102-2.5,1.5-5.898,1.5-5.898s-1.5,3.7-4.898,3.1c-3.398-0.7-24.8-3.8-25.602-7.399
		c-0.8-3.5,1.302-3.801-0.8-4.399C2115,876.9,2108.3,878.6,2108.3,878.6z"/>
	<path fill="#6AC2CC" d="M2148.9,765.8c0,0,0.5-11.8,3.898-24.2c3.3-12.398,4.8-18,4.8-18l14.4,7.102l-5.302,37.5
		c0,0-7.6,0-11.698-0.602C2151.2,766.9,2148.9,765.8,2148.9,765.8z"/>
	<path fill="#6FCCDA" d="M2157.6,723.5c0,6.8,0.102,12.5,0.7,13.8c1.3,3.102,1.602,18.3,6.102,32.5l32.3-3.398
		c-0.602-4-0.898-6.602-0.898-6.602s3.898-3.5,2.398-15.5c-1.398-12.1-11.602-22.1-11.602-22.1"/>
	<path id="fail-girl-hand-left" fill="#EADCBE" d="M2191.7,675.1c-0.8-4-4.8-7.1-8.8-6.3L2149.3,676.9l0.2,0.198l-13.602,3.5
		l-31.5-22.698c0,0-7.1-7.102-9.8-10.2c-2.7-3.102-9.5-1.7-12.1-4.4c-2.5-2.6-2.602,3.102,1.698,4.2c3.102,0.8,2.302,2.5,2.302,2.5
		s-2.2-0.3-6.4-0.4c-0.5,0-2.8,1.5,1.8,2.4c0.2,0-2.898-0.4-2.199,1.5c0.601,1.3,3.899,1.2,4.101,1.4c0.5,0.398-3.2-1.102-2.8,1
		c0.3,1.398,5.398,1.198,5,1.5c-0.102,0.1-2.2-0.602-2,1.1c0.1,1.3,7.898,2.1,8.398,2.2c2.7,0.5,5.7,1.398,5.7,1.398
		s18.3,17.7,21.3,20.2s13.2,9.602,15.9,9.4c5.7-0.5,11.2-1.102,15.398-1.7h0.102l35.398-5.2C2190.4,683.8,2192.5,679.1,2191.7,675.1
		z	">
<animateTransform  type="rotate" fill="remove" attributeType="XML" attributeName="transform" values="0 2191.7 675.1; 20 2191.7 675.1; 20 2191.7 675.1; 20 2191.7 675.1; 20 2191.7 675.1; 20 2191.7 675.1; 0 2191.7 675.1; 0 2191.7 675.1; 0 2191.7 675.1; 0 2191.7 675.1" dur="4s" repeatDur="indefinite" accumulate="none" additive="replace" calcMode="linear" restart="always">
			</animateTransform>
	</path>
	<path fill="#0E103B" d="M2221.1,612.5c1.7,3.3,0.302,7.4-3,9.1l-4.6,2.302c-2,1.198-7.8,12.698,0.2,22.198c0.6,0.802-8.9,0-8-16.3
		c0.398-6.398-0.602-7.6-1.3-8.898l0,0c-1.7-3.302-4.302-11.2,2.6-8.2l5-3.2C2215.3,607.8,2219.4,609.1,2221.1,612.5L2221.1,612.5z"
		/>
	<polyline fill="#0E103B" points="2209.4,605.5 2211.4,603.8 2211.5,606.4 2206.6,615.1 	"/>
	<path fill="#5A479D" d="M2175,898.2c0,0-2.8,0.8-1.7,3.7c1.3,3.3,6.4,3.698,14.9,6.1s24.2,6.2,27.1,6.7c3.9,0.7,4.4-1.7,5.2-3.8
		c0.9-2.602,0-6.602,0-6.602s-0.1,4.5-3.5,4s-19.3-2.398-21.4-5.3c-2.8-4,4-4,1.802-4.5C2189,896.7,2175,898.2,2175,898.2z"/>
	<g>
		<rect x="1606.8" y="842.8" fill="#F4F4F4" width="22.9" height="12.602"/>
		<rect x="1600.7" y="837.5" fill="#F4F4F4" width="6.2" height="23.2"/>
		<rect x="1629.8" y="837.5" fill="#F4F4F4" width="6.2" height="23.2"/>
		<path fill="#F4F4F4" d="M1650,849.9c0,0.398-0.4,0.8-0.8,0.8h-61.5c-0.4,0-0.8-0.4-0.8-0.8l0,0c0-0.4,0.398-0.802,0.8-0.802h61.5
			C1649.6,849.1,1650,849.4,1650,849.9L1650,849.9z"/>
	</g>
	<g>
		<path fill="#9B8D7B" d="M1536.2,776.5c-0.3,1.5,0.8,4.1,0.5,7.4c-0.7,6.898-2.9,8.198-3.5,9.8c-9.602,26.3-15.5,46.3-6.3,51.1
			c6.398,3.4,10.3,9.602,13.398,8.7c2-0.6-17.8,0.4-23.2,1.9c-7.1,1.898-12.1,0.5-9.3-8.9c2.602-8.6,4.602-14.9,6.102-21.8
			c3.198-15.4,1.198-18.602,1.1-25.9c-0.1-10.1,4.1-14.8,4.7-19.5c0.3-2.1,0.198-9.7-0.4-11.2c-2-5.8,0.7-18.898,0.1-24.198"/>
	</g>
	<g>
		<path fill="#B7A68A" d="M1547,776c-0.2,1.6,1.2,4,1.2,7.3c0,6.9-2.102,8.4-2.5,10.102c-7,27.198-10.9,47.6-1.3,51.5
			c6.698,2.698-3.602,9.5-8.802,11.5c-6.898,2.6-12,1.698-10.1-8c1.7-8.9,3.1-15.302,3.899-22.2
			c1.699-15.602-0.601-18.602-1.399-25.9c-1.101-10.1,2.6-15.1,2.8-19.898c0.102-2.102-0.8-9.7-1.5-11.102
			c-2.5-5.6-1.2-18.898-2.3-24.1"/>
	</g>
	<path fill="#2B589A" d="M1504.9,712.1c0,0-0.102,12.9,0.398,16.602c2.102,17.3,11.9,25.8,11.9,25.8c0.7,4.7-2.102,27.1-2.102,27.1
		l23-2.198L1533.7,699.3l-18.7,4.3L1504.9,712.1z"/>
	<path fill="#3765B0" d="M1527.2,777l-3.2-27.5c0,0-9.2-0.2-14.4-7.6c-12.3-17.602-1.5-39.5-1.5-39.5l39.102,1.3l5.898,73
		L1527.2,777z"/>
	<g>
		<path fill="#EADCBE" d="M1558.4,589.1c0,0-0.5,5.102,1.5,8.302c1.398,2.3,1.6,3.398,0.6,3.6c-1,0.1-2.1,0-2.1,0s-0.4,1.2,0,2
			c0.398,0.8,1.398,1.6,0.698,1.7c-0.698,0.2-3.3,0.8-2,1.6c1.302,0.8,1.2,1.2,0.602,1.7c-0.7,0.5-0.3,2.6-0.3,3.8
			s-0.802,4.2-4.102,3.4c-3.398-0.8-4.3-2-5.1-0.4c-0.801,1.602-3.2,14.602-3.2,14.602s-29.3-0.302-24.8-2.602
			c11.699-6,11.398-17.3,12-19.6c0.6-2.2-5.602-11.7-3.102-13.7s7.5-6,12.5-8.9C1559.1,574.7,1558.4,589.1,1558.4,589.1z"/>
	</g>
	<path fill="#230F14" d="M1539.2,595.2c0.398-4.3,1.3-6.4,4.3-6.602c1.3-0.1,7,0.5,9-0.1c3.6-1.1,3.9-2.9,4-2.7
		c0,0.5-1.2,1.9-2.2,2.7c-1.6,1.2-4,1.3-3.8,1.5c0.6,0.5,2.5,0.8,3.2,0.7c8.2-0.8,7.898-10.602,4.3-12.8
		c-14.2-8.5-26.2-4.5-31.2,2.3c-1.898,2.6-3.2,3.398-3.2,12.398c0,10.2,7.802,19.2,7.802,19.2s3.398-6.6,0.898-9.6
		c-3.398-4.2-2.898-6.8-1.6-8.601c0.6-0.801,2.7-2,4.8-0.101c1.602,1.4,0.801,4.4,0.801,4.4l2.801,0.6
		C1539.2,598.5,1539.1,596.3,1539.2,595.2z"/>
	<path fill="#EADCBE" d="M1515.2,693.5c7.1-0.9,8.2-0.4,13.5-2.4c7.5-2.898,11.398-4.198,11.398-4.898c-0.1-4.2,2.9-3,3.7-7
		c0.8-3.5,3-2.9,3,0c0.102,2.898-1.7,3.2-1.2,4.3c0.2,0.6,1.4-0.1,1.4-0.1l11-3.802l2.6-1.6c0,0,1.102-0.2,1.302,0.7
		c0.198,0.8-1.9,2.5-3.102,3.2c-0.699,0.398-1.5,0.8-2.1,1.1c-0.602,0.3-0.9,0.5-0.9,0.5s0.602-0.1,1.4-0.3
		c0.5-0.102,1-0.3,1.5-0.602c1.5-0.698,3.3-2.8,3.8-1.6c0.9,2-3.8,4.3-3.8,4.3l-3.3,1.5l3.6-1.1c0,0,3.1-2.3,3.5-1.9
		c1.5,1.4-1.8,3.3-3.6,4.3c-1.5,0.802-3.2,1.2-3.2,1.2s2-0.5,2.5-0.6c0.398-0.102,1.5-0.9,2.1-1c1.4-0.3,1.7,1-0.3,2.1
		c-0.1,0.102-0.7,0.5-1.2,0.8c-0.898,0.4-2,0.9-2,0.9s-8.199,3.6-9.8,4.2c-3.3,1.1-4.1-0.2-4.1-0.2l-1,0.3
		c0,0-26.302,13.8-30.7,15.2"/>
	<path fill="#6FCCDA" d="M1555.8,653.6c1.3-13.1-4-30.698-14.7-32.6c-53-9.2-50.398,91-42.898,97.5c2.1,1.8,5.2-1.3,7.5-3.1
		c9.3-7.4,25-14.9,37.2-0.2c2.698,3.2,4.898,2.8,4.898,2.8c4.602-3.6,0.7-10.2,0.102-19.2C1547.2,686,1555,661.8,1555.8,653.6z"/>
	<path fill="#FFFFFF" d="M1606.1,627.9c0,0,9.2-1.802,12.602-1.7c3.5,0.1,1,1.7,1,1.7s-3.602,0.3-8.301,0.698
		c-4.699,0.4-6.899,0.9-6.899,0.9l0.899-1.6"/>
	<g>
		<path fill="#FFFFFF" d="M1508.7,842.4c0,0-3.3,2.8-3.7,6.398c-0.4,3.102-0.9,6.9-0.9,6.9l0,0c0,0,27.5,4.6,38.5,3.898
			c0.7,0,0.7-1.1,0.5-1.8c-0.1-0.398-0.698-0.6-1.6-1c-3-1.3-9.9-4.6-11.8-7.7c-2.4-4-2.4-4-2.4-4s-2.899,2.302-7.899,1.602
			C1514.6,846.1,1508.7,842.4,1508.7,842.4z"/>
		<path fill="#2665B0" d="M1527.6,846.1c0,0-0.698,0.302-3.198,2.102c-1,0.7-1.102,1.2-0.802,1.7c0.5,1,1.802,0.398,3.7-0.802
			c1.3-0.898,1.4-1.1,1.4-1.1L1527.6,846.1z"/>
		<path fill="#2665B0" d="M1529.9,849.9c0,0-0.5,0.198-2.602,1.698c-0.8,0.602-0.898,1-0.699,1.4c0.399,0.8,1.5,0.3,3.101-0.7
			c1.1-0.7,1.5-1,1.5-1.1C1530.7,850.9,1529.9,849.9,1529.9,849.9z"/>
		<path fill="#2665B0" d="M1543.4,859.1L1543.4,859.1c-0.2,1.302-0.9,2.2-1.5,2.102l-36.802-4.7c-0.698-0.1-1.1-1.2-1-2.4l0,0"/>
	</g>
	<g>
		<path fill="#FFFFFF" d="M1526,844.4c0,0-3.3,3.6-3.3,7.698c0,3.602,0,7.9,0,7.9l0,0c0,0,31.6,1.2,43.898-1.2
			c0.802-0.2,0.7-1.3,0.302-2.1c-0.2-0.4-0.9-0.602-1.9-0.9c-3.6-1.1-11.8-3.7-14.3-7c-3.3-4.2-3.3-4.2-3.3-4.2s-3,3-8.602,3
			C1533.2,847.7,1526,844.4,1526,844.4z"/>
		<path fill="#2665B0" d="M1547.9,845.9c0,0-0.7,0.398-3.302,2.8c-1,0.898-1,1.5-0.698,2c0.698,1.1,2.1,0.2,4.1-1.5
			c1.4-1.2,1.4-1.4,1.4-1.4L1547.9,845.9z"/>
		<path fill="#2665B0" d="M1551,849.8c0,0-0.5,0.3-2.7,2.3c-0.898,0.802-0.8,1.302-0.6,1.7c0.6,0.9,1.7,0.2,3.399-1.2
			c1.101-1,1.601-1.398,1.5-1.398C1552,850.8,1551,849.8,1551,849.8z"/>
		<path fill="#2665B0" d="M1567.5,858.2L1567.5,858.2c0,1.398-0.6,2.6-1.4,2.6H1524c-0.8,0-1.4-1.2-1.4-2.6l0,0"/>
	</g>
	<g id="kite-white">
		<path fill="none" stroke="#FFFFFF" stroke-width="2" stroke-miterlimit="10" d="M960.9,605.4c0,0,683.6-63.9,923.1-330.9"/>
		<g>
			<path fill="#EEE83B" d="M1770.6,302.4c-0.898-0.5-1.398-1.6-1.1-2.6c0.3-0.8,6.5-20.2,26-27.9c21.2-8.4,31.9,0.7,42.1,9.4
				c3.2,2.7,6.602,5.6,10.2,7.9c5,3.1,9.9,4.1,14.7,2.9c9.5-2.3,15.6-12.4,15.7-12.5c0.6-1,2-1.4,3-0.8c1,0.6,1.398,2,0.8,3
				c-0.3,0.5-7,11.7-18.4,14.5c-6,1.5-12.1,0.3-18.1-3.5c-3.9-2.5-7.4-5.4-10.7-8.2c-10.1-8.6-18.899-16-37.7-8.6
				c-17.6,6.9-23.398,24.9-23.398,25.1c-0.4,1.2-1.602,1.8-2.7,1.4C1770.8,302.5,1770.7,302.4,1770.6,302.4z"/>
			<g>
				<path fill="#6FCBD9" d="M1865.3,286.2c-0.898-0.1-1.1-1.2-0.7-1.8l5.602-7.4c0.398-0.6,1.5-0.9,2,0.1c1.2,2.3,3.7,8.7,3.7,8.7
					l0.8,1.9C1876.6,287.6,1868,286.5,1865.3,286.2z"/>
				<path fill="#6FCBD9" d="M1885.4,287.1c0.898,0.1,1.198,1.2,0.698,1.7l-5.6,7.4c-0.4,0.6-1.5,0.9-2-0.1c-1.2-2.3-3.7-8.7-3.7-8.7
					l-0.8-1.9C1874.1,285.7,1882.6,286.7,1885.4,287.1z"/>
			</g>
			<g>
				<path fill="#6FCBD9" d="M1827.1,264.7c0-0.9,1.102-1.3,1.7-0.9l7.9,4.8c0.6,0.4,1,1.4,0.1,2c-2.2,1.4-8.3,4.5-8.3,4.5l-1.8,1
					C1826.8,276.1,1827,267.5,1827.1,264.7z"/>
				<path fill="#6FCBD9" d="M1828.2,284.9c0,0.9-1.102,1.3-1.7,0.9l-7.9-4.8c-0.6-0.4-1-1.4-0.1-2c2.2-1.4,8.3-4.5,8.3-4.5l1.8-1
					C1828.5,273.4,1828.3,282,1828.2,284.9z"/>
			</g>
			<g>
				<path fill="#6FCBD9" d="M1770.8,285.1c-0.898,0-1.3-1.1-0.898-1.7l4.8-7.9c0.398-0.6,1.398-1,2-0.1c1.398,2.2,4.5,8.2,4.5,8.2
					l1,1.8C1782.3,285.4,1773.7,285.2,1770.8,285.1z"/>
				<path fill="#6FCBD9" d="M1791,284c0.9,0,1.3,1.1,0.9,1.7l-4.802,7.9c-0.398,0.6-1.398,1-2,0.1c-1.398-2.2-4.5-8.2-4.5-8.2
					l-1-1.8C1779.6,283.7,1788.2,283.9,1791,284z"/>
			</g>
		</g>
		<path fill="#FFFFFF" d="M1882.1,281.7l71.5-49.7c0,0-1.398-15.9-6-29c-4-11.3-14.198-26.9-14.198-26.9s-13.2-2.5-34.5,4.5
			c-13.7,4.5-22.602,12-22.602,12l0,0l1.9,87.1"/>
		<circle fill="#6FCBD9" cx="1912.2" cy="217.7" r="21.5"/>
		
			<animateTransform  type="rotate" fill="remove" attributeType="XML" attributeName="transform" values="-2 960.9 605.4;2 960.9 605.4;-2 960.9 605.4" dur="4s" repeatDur="indefinite" accumulate="none" additive="replace" calcMode="linear" restart="always">
			</animateTransform>
	</g>
	
		<rect x="1794.287" y="153.394" transform="matrix(0.894 0.4481 -0.4481 0.894 308.4207 -809.9255)" fill="none" width="143.205" height="186.906"/>
	<g id="kite-blue">
		<g>
			<g>
				<path fill="#FFFFFF" d="M851.8,399.5c-1.2-0.5-1.898-1.9-1.398-3.1c5.5-15.3,22.6-23.5,46.198-34.7l0.302-0.2
					c21.3-10.1,20-38.7,20-39c-0.102-1.4,1-2.5,2.3-2.6c1.398-0.1,2.5,1,2.6,2.3c0,0.3,0.4,8.1-2.1,17.4
					c-3.4,12.5-10.602,21.6-20.7,26.4l-0.3,0.2C876.1,376.9,859.8,384.7,855,398.1C854.6,399.3,853.2,400,851.8,399.5
					C851.9,399.5,851.9,399.5,851.8,399.5z"/>
				<path fill="#FCED20" d="M864,408.8c-1.1-0.399-1.7-1.6-1.5-2.8c3.1-16,18.7-26.6,40.4-41.4l0.3-0.2
					c19.6-13.3,13.8-41.3,13.8-41.6c-0.3-1.3,0.6-2.7,1.9-2.9c1.3-0.3,2.698,0.6,2.898,1.9c0.102,0.3,1.7,7.9,0.602,17.5
					c-1.5,12.8-7.102,22.9-16.4,29.3l-0.3,0.2C885,382.8,870,393,867.4,407c-0.302,1.3-1.602,2.2-2.9,2
					C864.3,408.9,864.2,408.9,864,408.8z"/>
			</g>
			<path fill="#6FCBD9" d="M904.5,251.3c0,0,8.7-5.1,23.6-8.1c11.602-2.3,23.9-3.5,23.9-3.5s10.9,10.8,16.3,19.3
				c7.9,12.5,15.2,24,15.2,24l-61.3,42l-5.3-2.1L904.5,251.3z"/>
		</g>
		
			<rect x="871.001" y="232.891" transform="matrix(0.928 0.3725 -0.3725 0.928 188.5148 -317.647)" fill="none" width="90.594" height="192.289"/>
		<path fill="none" stroke="#FFFFFF" stroke-width="2" stroke-miterlimit="10" d="M399.2,660c0,0-6.8-25.7,16.2-31.2
			c99-23.6,392.1-83.1,500.898-299.8"/>
		
			<animateTransform  type="rotate" fill="remove" attributeType="XML" attributeName="transform" values="-3 399.2 660;3 399.2 660;-3 399.2 660" dur="4s" repeatDur="indefinite" accumulate="none" additive="replace" calcMode="linear" restart="always">
			</animateTransform>
	</g>
	<path fill="none" stroke="#FFFFFF" stroke-width="2" stroke-miterlimit="10" d="M261.2,754.7c37.7-2.4,149.2-55.3,139.3-102.8"/>
	<g id="kite-guy">
		<path fill="#232323" d="M300.6,729.6c0,0-0.1,12.802,0.4,16.5c2.1,17.302,11.8,25.7,11.8,25.7c2.2,15.102-23,97.102-23,97.102
			H310.4L327.3,808.8l1.8-91.898l-18.6,4.3L300.6,729.6z"/>
		<path fill="#232323" d="M350.1,871.5h-19.8l-1.1-58.7L319.6,770.9c0,0-9.1-0.2-14.3-7.602c-12.3-17.5-1.5-39.3-1.5-39.3
			l34.602-7.9l10.6,86.7L350.1,871.5z"/>
		<path fill="#EADCBE" d="M320.3,673.4c5.602,4.898,5,7.6,5.8,8.5c1.4,1.698,3,3.8,3,3.8s3.9-4.7,11.2-8.9c6.2-3.6,7.3-3.5,11.4-7.5
			c5.7-5.5,8.8-8.3,8.6-8.898c-1.7-3.802,1.5-3.802,0.7-7.9c-0.7-3.5,1.6-3.8,2.8-1.2c1.2,2.602-0.3,3.602,0.5,4.4
			c0.4,0.5,1.2-0.7,1.2-0.7l8.6-7.8l1.802-2.4c0,0,0.898-0.6,1.398,0.2c0.4,0.6-0.8,3.1-1.6,4.2c-0.5,0.7-1.102,1.3-1.5,1.8
			c-0.4,0.5-0.602,0.9-0.602,0.9s0.5-0.4,1.2-0.802c0.4-0.3,0.8-0.698,1.102-1.1c1.1-1.3,1.898-3.8,2.898-3
			c1.602,1.5-1.8,5.4-1.8,5.4l-2.4,2.698l2.9-2.398c0,0,2-3.3,2.5-3.102c1.9,0.7-0.3,3.7-1.6,5.4c-1.102,1.3-2.5,2.4-2.5,2.4
			s1.698-1.2,2.1-1.5c0.3-0.2,1-1.4,1.6-1.7c1.2-0.8,2,0.3,0.602,2.1c-0.102,0.102-0.4,0.8-0.8,1.2c-0.7,0.8-1.5,1.6-1.5,1.6
			s-6.102,6.5-7.4,7.7c-2.6,2.3-3.8,1.4-3.8,1.4l-0.8,0.7c0,0-18.7,22.8-22.2,25.8c-7.4,6.5-12.3,9.5-12.9,9.5
			c-0.7,0-12.7-4.3-19.1-11.4c-5.102-5.6-10.7-13.1-10.7-13.1l11.3-11.3C311.9,668.4,315.6,669.3,320.3,673.4z"/>
		<g>
			<path fill="#EADCBE" d="M353.9,607.1c0,0-0.5,5.102,1.5,8.302c1.398,2.3,1.6,3.398,0.6,3.6c-1,0.1-2.1,0-2.1,0s-0.4,1.2,0,2
				c0.398,0.8,1.398,1.6,0.6,1.7c-0.7,0.2-3.3,0.8-2,1.6s1.2,1.2,0.6,1.7c-0.698,0.5-0.3,2.6-0.3,3.8s-0.8,4.2-4.1,3.4
				s-4.2-1.9-5.102-0.4c-0.8,1.602-3.198,14.5-3.198,14.5S311.3,647,315.8,644.7c11.7-6,11.4-17.2,11.9-19.5
				c0.6-2.2-5.602-11.7-3.102-13.602c2.5-1.898,7.4-6,12.5-8.8C354.5,592.9,353.9,607.1,353.9,607.1z"/>
		</g>
		<path fill="#305DAB" d="M349.1,672.3c0.7-5.2-0.5-11.8-3.1-18.398c-2.5-6.5-7-11.9-12.3-12.7c-3.9-0.5-7.7-2.7-11-1.8
			C289.6,648.2,281,716.8,294.3,753.1c0.9,2.602,6.101,2.5,6.2-0.5c0.9-14.8,21.1-35.8,37.9-20.1c3.1,2.9,4.898,2.8,4.898,2.8
			c6.2-1.6,0.3-9.5-1.898-26.3C338.2,684.2,346.7,690.4,349.1,672.3z"/>
		<path fill="#230F14" d="M333.8,618.6c0,0-1.898-6.898,1.602-10.3c2.398-2.3,4.398-3,10.898-2.7c12.3,0.602,6.8-10.3,6.8-10.3
			s-0.898,1-3.8,0.3c-4.6-1.1-8-6.1-15.7-2.8c-3.198,1.4-4.1,4.3-4.1,4.3s-11.1,2.302-11.1,14.4c0,15.4,8.5,18.3,8.5,18.3
			s2.698-5.398,0.3-8.398c-1.8-2.2-4-6.5-1.602-8.102c2-1.398,3.602-0.3,4.9,2.2s1.2,3.7,1.2,3.7L333.8,618.6z"/>
		<path fill="#305DAB" d="M307.2,674.3c0,0,19.8,27.5,31.1,25.602c11.3-1.9,22.5-19.802,24.9-22
			c2.398-2.2-9.102-12.802-9.102-12.802s-13.3,9.2-15,11.302c-1.698,2.1-11.398-11.7-14.5-13.802c-3.1-2.1-4.1-2.6-4.1-2.6"/>
		<g>
			<g>
				<path fill="#FFF186" d="M291.5,864.4c0,0-3.3,3.6-3.3,7.698c0,3.602,0,7.9,0,7.9l0,0c0,0,31.398,1.2,43.7-1.2
					c0.8-0.1,0.698-1.3,0.3-2.1c-0.2-0.4-0.9-0.602-1.9-0.9c-3.6-1.1-11.8-3.7-14.3-6.898c-3.3-4.102-3.3-4.102-3.3-4.102
					s-3,3-8.601,3C298.6,867.7,291.5,864.4,291.5,864.4z"/>
				<path fill="#2665B0" d="M313.2,865.9c0,0-0.7,0.398-3.3,2.8c-1,0.898-1,1.5-0.7,2c0.7,1.1,2.1,0.2,4.1-1.5
					c1.4-1.2,1.4-1.4,1.4-1.4L313.2,865.9z"/>
				<path fill="#2665B0" d="M316.3,869.8c0,0-0.5,0.3-2.6,2.3c-0.9,0.802-0.8,1.302-0.602,1.7c0.602,0.9,1.7,0.2,3.4-1.2
					c1.1-1,1.6-1.398,1.5-1.398C317.3,870.8,316.3,869.8,316.3,869.8z"/>
				<path fill="#2665B0" d="M332.7,878.2L332.7,878.2c0,1.398-0.602,2.6-1.4,2.6h-41.9c-0.8,0-1.4-1.2-1.4-2.6l0,0"/>
			</g>
			<g>
				<path fill="#FFF186" d="M329.3,864.4c0,0-3.3,3.6-3.3,7.698c0,3.602,0.7,7.302,0.7,7.302l0.2,0.198c0,0,30.6,1.602,42.8-0.8
					c0.8-0.1,0.7-1.3,0.3-2.1c-0.2-0.4-0.9-0.602-1.9-0.9c-3.6-1.1-11.8-3.7-14.3-6.898c-3.3-4.102-3.3-4.102-3.3-4.102s-3,3-8.6,3
					C336.4,867.7,329.3,864.4,329.3,864.4z"/>
				<path fill="#2665B0" d="M351,865.9c0,0-0.7,0.398-3.3,2.8c-1,0.898-1,1.5-0.7,2c0.7,1.1,2.1,0.2,4.1-1.5
					c1.4-1.2,1.4-1.4,1.4-1.4L351,865.9z"/>
				<path fill="#2665B0" d="M354.1,869.8c0,0-0.5,0.3-2.6,2.3c-0.9,0.802-0.8,1.302-0.6,1.7c0.6,0.9,1.698,0.2,3.398-1.2
					c1.102-1,1.602-1.398,1.5-1.398C355.1,870.8,354.1,869.8,354.1,869.8z"/>
				<path fill="#2665B0" d="M370.5,878.2L370.5,878.2c0,1.398-0.6,2.6-1.4,2.6H327.2c-0.8,0-1.4-1.2-1.4-2.6l0,0"/>
			</g>
		</g>
		<g>
			<path fill="#EADCBE" d="M355,664.9c5.6,4.898,5,7.6,5.8,8.5c1.4,1.698,3,3.8,3,3.8s3.9-4.7,11.2-8.9c6.2-3.6,7.3-3.5,11.5-7.5
				c5.7-5.5,8.8-8.3,8.6-8.898c-1.698-3.802,1.5-3.802,0.7-7.9c-0.7-3.5,1.602-3.8,2.8-1.2c1.2,2.602-0.3,3.602,0.5,4.4
				c0.5,0.5,1.2-0.7,1.2-0.7l8.602-7.8l1.8-2.4c0,0,0.898-0.6,1.398,0.2c0.4,0.6-0.8,3.1-1.6,4.2c-0.5,0.6-1.1,1.3-1.5,1.8
				s-0.7,0.9-0.7,0.9s0.5-0.4,1.2-0.802c0.4-0.3,0.8-0.698,1.1-1.1c1.102-1.3,1.9-3.8,2.9-3c1.6,1.5-1.8,5.4-1.8,5.4l-2.4,2.698
				l2.9-2.398c0,0,2-3.3,2.5-3.102c1.898,0.7-0.3,3.7-1.602,5.4c-1.1,1.3-2.5,2.4-2.5,2.4s1.7-1.2,2.102-1.5
				c0.3-0.302,1-1.4,1.6-1.802c1.2-0.8,2,0.302,0.602,2.102c-0.102,0.1-0.4,0.8-0.802,1.2c-0.698,0.8-1.5,1.6-1.5,1.6
				s-6.1,6.5-7.398,7.7c-2.602,2.3-3.8,1.398-3.8,1.398l-0.802,0.7c0,0-18.698,22.8-22.198,25.8c-7.4,6.5-12.302,9.5-12.9,9.5
				c-0.7,0-12.7-4.3-19.1-11.398c-5.102-5.6-10.701-13.1-10.701-13.1l11.3-11.3C346.6,660,350.4,660.9,355,664.9z"/>
			<path fill="#305DAB" d="M333.7,672.4c0,0,19.8,27.5,31.1,25.6s22.5-19.8,24.9-22c2.398-2.2-9.102-12.8-9.102-12.8
				s-13.3,9.2-15,11.3c-1.698,2-11.398-11.7-14.5-13.8C348,658.6,347,658.1,347,658.1"/>
			
				<animateTransform  type="rotate" fill="remove" attributeType="XML" attributeName="transform" values="-10 355 664.9; 5 355 664.9; -10 355 664.9" dur="2s" repeatDur="indefinite" accumulate="none" additive="replace" calcMode="linear" restart="always">
				</animateTransform>
		</g>
		<path fill="#305DAB" d="M323.2,635.2l-1.9,4.5l21.3,5.898l-1-4.3c0,0-8-0.898-10.198-2C329.1,638.3,323.2,635.2,323.2,635.2z"/>
	</g>
	<path id="dog-tail" fill="#5B3839" d="M143.5,872.2c-16.9-2.102-25.4-19.602-26.9-25.602c-0.5-2.198-5.9-5.1-5.8,0.102
		c-0.8,1.1,5.6,16.8,15.1,26.898c3.4,4.2,11.4,5.2,14.4,5.9c5.7,1.3,23,1.3,23,1.3	">
<animate  fill="remove" attributeType="XML" attributeName="d" values="M143.5,872.2c-16.9-2.1-25.4-19.6-26.9-25.6c-0.5-2.2-5.9-5.1-5.8,0.1  c-0.8,1.1,5.6,16.8,15.1,26.9c3.4,4.2,11.4,5.2,14.4,5.9c5.7,1.3,23,1.3,23,1.3;                                             M143.5,872.2c-16.9-2.1-13.8-29.3-15.2-35.4c-0.5-2.2-2.1-4.9-5-1  c-1.9,2.6-1.7,28.7,6.7,37.6c3.4,4.2,7.3,5.4,10.4,6.1c5.7,1.3,23,1.3,23,1.3;                          M143.5,872.2c-16.9-2.1-25.4-19.6-26.9-25.6c-0.5-2.2-5.9-5.1-5.8,0.1  c-0.8,1.1,5.6,16.8,15.1,26.9c3.4,4.2,11.4,5.2,14.4,5.9c5.7,1.3,23,1.3,23,1.3;" dur="0.5s" repeatDur="indefinite" accumulate="none" additive="replace" calcMode="linear" restart="always">
			</animate>
	</path>
	<path fill="none" stroke="#FFFFFF" stroke-width="2" stroke-miterlimit="10" d="M952,838.4C928.5,790.8,898.4,625.5,963.3,604.3"/>
	<g>
		<path fill="#EADCBE" d="M878.6,646.3c0,0,4.102,19,5.2,19.8c0.9,0.602,4.5,1.102,4.5,1.102l26.4,3.5l3.898-3.3
			c0,0,12.7-0.4,13.2-0.102c0.602,0.3-0.7,2.3-1.3,2.3s-6.2,0-6.2,0s5.3,0.4,5.5,0.602c0.4,0.5-1.2,2-1.5,2c-0.5,0-4.898,0-4.898,0
			s4,0.6,4.1,0.7c0.4,0.5-1.2,2.1-1.5,2.1c-0.8,0-4.5,0-4.5,0s3.5,0.3,3.6,0.5c0,0.1-0.898,1.7-1.398,1.7
			c-6.602,0-30.3,0.6-39.9,0.6c-1,0-4.1,0-4.898,0c-5.2,0-7-2.5-8.302-8.8c-0.398-1.8-5.698-22.6-5.698-22.6L878.6,646.3
			L878.6,646.3L878.6,646.3z"/>
		<path fill="#6FCCDA" d="M878.6,646.3c0,0,3.9-5.8,2.4-15.5c-0.9-5.6-5.3-8.398-9.6-8.398l0,0c-4.302,0-10,4.398-10.4,8.6
			c-0.9,9.5,4,15.3,4,15.3"/>
		
			<animateTransform  type="rotate" fill="remove" attributeType="XML" attributeName="transform" values="12 878.6 646.3; -12 878.6 646.3; 12 878.6 646.3" dur="2s" repeatDur="indefinite" accumulate="none" additive="replace" calcMode="linear" restart="always">
			</animateTransform>
	</g>
	<path id="fail-guy-hand" fill="#EADCBE" d="M1559.5,647.2c5.6,4.898,5,7.6,5.8,8.6c1.4,1.7,3,3.8,3,3.8s3.9-4.8,11.3-9
		c6.2-3.6,7.4-3.5,11.5-7.5c5.802-5.6,8.9-8.398,8.602-8.898c-1.7-3.9,1.5-3.9,0.7-7.9c-0.7-3.5,1.6-3.8,2.8-1.2
		c1.2,2.602-0.3,3.602,0.5,4.4c0.5,0.5,1.2-0.7,1.2-0.7l8.6-7.8c0,0,2.5,0.8,1.6,1.9c-0.5,0.698-1.1,1.3-1.5,1.8
		c-0.398,0.5-0.698,0.898-0.698,0.898s0.5-0.398,1.198-0.8c0.4-0.3,0.802-0.7,1.102-1.1c1.1-1.3,1.1,2.5,1.1,2.5l-2.399,2.7
		l2.899-2.4c0,0,2.2,0.7,0.9,2.3c-1.102,1.3-2.5,2.4-2.5,2.4s1.7-1.2,2.1-1.5c0.3-0.3,1.7,1.1,1.3,1.6c-0.698,0.8-1.5,1.7-1.5,1.7
		s-6.1,6.5-7.398,7.7c-2.602,2.3-3.9,1.398-3.9,1.398l-0.8,0.7c0,0-18.8,22.9-22.3,26c-7.4,6.5-12.4,9.5-13,9.5
		c-0.7,0-12.802-4.398-19.2-11.398c-5.2-5.7-10.8-13.2-10.8-13.2l11.3-11.3C1551.1,642.2,1554.9,643.1,1559.5,647.2z	">
<animateTransform  type="rotate" fill="remove" attributeType="XML" attributeName="transform" values="0 1559.5 647.2; -5 1559.5 647.2; -10 1559.5 647.2; -5 1559.5 647.2; -10 1559.5 647.2; -5 1559.5 647.2; 0 1559.5 647.2; 0 1559.5 647.2; 0 1559.5 647.2; 0 1559.5 647.2" dur="4s" repeatDur="indefinite" accumulate="none" additive="replace" calcMode="linear" restart="always">
			</animateTransform>
	</path>
	<g>
		<defs>
			<rect id="SVGID_7_" y="52.2" width="2500" height="1015.899"/>
		</defs>
		<clipPath id="SVGID_8_">
			<use xlink:href="#SVGID_7_"  overflow="visible"/>
		</clipPath>
		<g clip-path="url(#SVGID_8_)">
			<defs>
				<rect id="SVGID_9_" x="-3.2" width="2503.2" height="1068.1"/>
			</defs>
			<clipPath id="SVGID_10_">
				<use xlink:href="#SVGID_9_"  overflow="visible"/>
			</clipPath>
			<rect y="52.2" clip-path="url(#SVGID_10_)" fill="none" width="2502.1" height="858.399"/>
		</g>
	</g>
	
		<image overflow="visible" width="114" height="143" xlink:href="aunty.png"  transform="matrix(0.8835 0 0 0.8835 625.8794 926.8301)">
	</image>
	<image overflow="visible" width="114" height="314" xlink:href="rope.png"  transform="matrix(1 0 0 1 618.667 1052.999)">
	</image>
</g>
</svg>
