<?xml version="1.0" encoding="utf-8"?>
<!-- Generator: Adobe Illustrator 16.0.0, SVG Export Plug-In . SVG Version: 6.00 Build 0)  -->
<!DOCTYPE svg PUBLIC "-//W3C//DTD SVG 1.1//EN" "http://www.w3.org/Graphics/SVG/1.1/DTD/svg11.dtd">
<svg version="1.1" id="Layer_1" xmlns="http://www.w3.org/2000/svg" xmlns:xlink="http://www.w3.org/1999/xlink" x="0px" y="0px"
	 width="2500px" height="1796px" viewBox="0 0 2500 1796" enable-background="new 0 0 2500 1796" xml:space="preserve">
<path id="background-orange" fill="#ED6A49" d="M2478.7,977.35V1122.4h-69.5v341.1h-340.3l1.1-384.8h-270.301l0.001-240.3h-442.2
	l-1,336h-251.4V838.42l-806.6-0.02l0,240.3H168.7l0.8-240.3l-174.8,0.02v627.98H2502.1V837.5l-456.388,0.3v47.5L2478.7,977.35z
	 M335.6,1267.5v143.8h-192v-164.1h89.1H335.6V1267.5z"/>
<path id="fail-girl-hand-right" fill="#EADCBE" d="M2166.8,668.2l-11.5,0.3l-18.6-31.6c0,0-3.5-9.4-4.601-13.301
	c-1.1-3.899-8-5.5-9.199-9c-1.2-3.5-3.601,1.7-0.2,4.5c2.5,2,1,3.2,1,3.2s-1.9-1.1-5.601-3c-0.5-0.2-3.199,0.2,0.601,3
	c0.2,0.101-2.5-1.5-2.601,0.4c0,1.399,3,2.7,3.2,3c0.3,0.5-2.5-2.3-2.899-0.2c-0.301,1.4,4.5,3.3,3.899,3.4c-0.2,0-1.8-1.5-2.3,0.1
	c-0.4,1.2,6.3,5.2,6.699,5.5c2.301,1.6,4.7,3.6,4.7,3.6s9.3,23.7,11,27.2s8,14.3,10.601,15.101c0.699,0.199,17-0.7,17-0.7l2.5-11
	L2166.8,668.2z">
<animateTransform  fill="remove" type="rotate" restart="always" calcMode="linear" additive="replace" accumulate="none" repeatDur="indefinite" dur="4s" values="0 2166.8 668.2; 20 2166.8 668.2; 20 2166.8 668.2; 20 2166.8 668.2; 20 2166.8 668.2; 20 2166.8 668.2; 0 2166.8 668.2; 0 2166.8 668.2; 0 2166.8 668.2; 0 2166.8 668.2" attributeName="transform" attributeType="XML">
		</animateTransform>
</path>
<path fill="#EADCBE" d="M912.6,632.1c8.601,5.301,7,16.2-0.199,20.301c-0.801,0.5,7.5,44.1,6,48c-1.4,3.899-7.2,46.8-7.2,46.8
	s1.399,9.6,0,14.5c-1.4,4.8-6.3,13.5-6.3,13.5s-23.2,61.3-16.7,68.899c3.7,4.301,11.2,3.7,23.1,8.5c2.2,0.9,5.601-2.199,6.3,0.7
	c0.9,4.101-1.6,4.5-16.6,4c-14.9-0.5-27.7,0.9-30.6-3.5c-1.7-2.7,1-10,1-10s5.899-24.6,6.199-45.399
	c0.101-7.7,0.601-14.101,0.601-14.101c0.7-8.899,4.6-13.5,6.8-16.899c3.4-5.301,0.5-7.7,2.4-15.9c1.899-8.2-7.2-28.9-6.301-41.4
	c0.9-12.5,7.101-16.8,7.101-16.8s4.2-42.2-20.101-55c-8.5-4.5,0-31.2,0-31.2s7.7-11.1,15-0.3C891.2,618.4,905.7,627.9,912.6,632.1z"
	/>
<path id="girl-skirt" fill="#3363AD" d="M888.9,689.5c0,0,8.5-1.9,16-1.8c7.5,0.1,13.399,4.5,13.399,4.5s3.101,7.5,5.601,17.1
	c6.8,27.101,18,29,18,29s-0.301,5.8-6,9.5c-2.5,1.601-6.9,2.4-6.9,2.4l0.2,2.5c0,0-12.3,3.899-17.4-0.9
	c-2-1.899-3.399-6.1-3.399-6.1s-3.101-4.3-7.801,0.2c-1,0.899-1.6,3-4.399,3.699c-2,0.5-4.5-0.699-5.3-2.399
	c-0.801-1.7-4-3.4-6.301-3.8C882.4,743,882.4,743,882.4,743s1.199,1.4-1.301,3.7c-2.3,2.2-11.6,2.6-13-2.3
	c-0.1-0.4-0.199-2.5-0.199-2.5s-0.9-2.5-2.801-3.7c-1.5-0.9-3.1,0.2-3.1,0.2s10.7-6.301,14.9-18.601c1.6-4.8,3.6-15.8,5.199-19.399
	C884.1,695.3,888.9,689.5,888.9,689.5z">
<animate  fill="remove" restart="always" calcMode="linear" additive="replace" accumulate="none" repeatDur="indefinite" dur="2s" values="M888.9,689.5c0,0,8.5-1.9,16-1.8c7.5,0.1,13.4,4.5,13.4,4.5s3.1,7.5,5.6,17.1  c6.8,27.1,18,29,18,29s-0.3,5.8-6,9.5c-2.5,1.6-6.9,2.4-6.9,2.4l0.2,2.5c0,0-12.3,3.9-17.4-0.9c-2-1.9-3.4-6.1-3.4-6.1  s-3.1-4.3-7.8,0.2c-1,0.9-1.6,3-4.4,3.7c-2,0.5-4.5-0.7-5.3-2.4c-0.8-1.7-4-3.4-6.3-3.8c-2.2-0.4-2.2-0.4-2.2-0.4s1.2,1.4-1.3,3.7  c-2.3,2.2-11.6,2.6-13-2.3c-0.1-0.4-0.2-2.5-0.2-2.5s-0.9-2.5-2.8-3.7c-1.5-0.9-3.1,0.2-3.1,0.2s10.7-6.3,14.9-18.6  c1.6-4.8,3.6-15.8,5.2-19.4C884.1,695.3,888.9,689.5,888.9,689.5z;                                             M888.9,689.5c0,0,8.5-1.9,16-1.8c7.5,0.1,13.4,4.5,13.4,4.5s6.4,7.3,8.8,16.9  c6.8,27.1,12.9,31.2,12.9,31.2s2.1,7.4-6,9.5c-2.9,0.8-5,0.3-5,0.3l0.2,2.5c0,0-4.7-7.7-14.3-4c-2.6,1-6.5-3.1-6.5-3.1  s-3.1-4.3-7.8,0.2c-1,0.9-2.6,6.9-4.4,3.7c-1.1-1.8-4.5-2.8-5.3-4.6c-0.8-1.7-4-1.2-6.3-1.6c-2.2-0.4-2.2-0.4-2.2-0.4  s1.2,1.4-1.3,3.7c-2.3,2.2-11.6,2.6-13-2.3c-0.1-0.4-0.2-2.5-0.2-2.5s-0.9-2.5-2.8-3.7c-1.5-0.9-3.1,0.2-3.1,0.2s1.8-7.9,9.8-18.2  c5.3-6.9,8-5.6,10.3-19.8C882.8,694.9,888.9,689.5,888.9,689.5z;                          M888.8,689.5c0,0,8.5-1.9,16-1.8c7.5,0.1,13.4,4.5,13.4,4.5s6.1,8.6,7.9,18.3  c4.5,24.8,14.1,28.8,14.1,28.8s1.8,8.5-6.2,10.6c-2.9,0.8-5,0.3-5,0.3l0.2,2.5c0,0-7.5-2.4-13.3-2.4c-2.8,0-7.5-4.7-7.5-4.7  s-3.1-4.3-7.8,0.2c-1,0.9-0.8,3.3-4.4,3.7c-2.1,0.2-5.4-2.3-6.2-4.1c-0.8-1.7-3.1-1.7-5.4-2.1c-2.2-0.4-2.2-0.4-2.2-0.4  s1.2,1.4-1.3,3.7c-2.3,2.2-11.6,2.6-13-2.3c-0.1-0.4-0.2-2.5-0.2-2.5s-0.9-2.5-2.8-3.7c-1.5-0.9-3.1,0.2-3.1,0.2s5.8-5.3,11.5-17.1  c3.9-8.1,6.4-6.8,8.6-20.9C882.7,694.9,888.8,689.5,888.8,689.5z;                                               M888.9,689.5c0,0,8.5-1.9,16-1.8c7.5,0.1,13.4,4.5,13.4,4.5s6.4,7.3,8.8,16.9  c6.8,27.1,12.9,31.2,12.9,31.2s2.1,7.4-6,9.5c-2.9,0.8-5,0.3-5,0.3l0.2,2.5c0,0-4.7-7.7-14.3-4c-2.6,1-6.5-3.1-6.5-3.1  s-3.1-4.3-7.8,0.2c-1,0.9-2.6,6.9-4.4,3.7c-1.1-1.8-4.5-2.8-5.3-4.6c-0.8-1.7-4-1.2-6.3-1.6c-2.2-0.4-2.2-0.4-2.2-0.4  s1.2,1.4-1.3,3.7c-2.3,2.2-11.6,2.6-13-2.3c-0.1-0.4-0.2-2.5-0.2-2.5s-0.9-2.5-2.8-3.7c-1.5-0.9-3.1,0.2-3.1,0.2s1.8-7.9,9.8-18.2  c5.3-6.9,8-5.6,10.3-19.8C882.8,694.9,888.9,689.5,888.9,689.5z;                                             M888.9,689.5c0,0,8.5-1.9,16-1.8c7.5,0.1,13.4,4.5,13.4,4.5s3.1,7.5,5.6,17.1  c6.8,27.1,18,29,18,29s-0.3,5.8-6,9.5c-2.5,1.6-6.9,2.4-6.9,2.4l0.2,2.5c0,0-12.3,3.9-17.4-0.9c-2-1.9-3.4-6.1-3.4-6.1  s-3.1-4.3-7.8,0.2c-1,0.9-1.6,3-4.4,3.7c-2,0.5-4.5-0.7-5.3-2.4c-0.8-1.7-4-3.4-6.3-3.8c-2.2-0.4-2.2-0.4-2.2-0.4s1.2,1.4-1.3,3.7  c-2.3,2.2-11.6,2.6-13-2.3c-0.1-0.4-0.2-2.5-0.2-2.5s-0.9-2.5-2.8-3.7c-1.5-0.9-3.1,0.2-3.1,0.2s10.7-6.3,14.9-18.6  c1.6-4.8,3.6-15.8,5.2-19.4C884.1,695.3,888.9,689.5,888.9,689.5z" attributeName="d" attributeType="XML">
		</animate>
</path>
<polygon fill="none" points="143.5,1247.2 143.5,1411.3 335.6,1411.3 335.6,1267.5 335.6,1247.2 232.7,1247.2 "/>
<polygon fill="#FAB65B" points="2478.7,977.7 2229.6,918.6 2070.5,876 2070,1081.7 2478.7,1078.7 "/>
<path fill="#FAB65B" d="M2409.2,1463.5v-341.1h69.5v-43.7H2070l-1.1,384.8H2409.2z M2319.1,1171.6V1382.2H2133V1171.6H2319.1z"/>
<path fill="#6FCCDA" d="M2133,1171.6V1382.2h186.2V1171.6H2133z M2310.8,1372.6h-169.5v-191.3h169.5V1372.6z"/>
<rect x="50.6" y="1162.7" fill="#6FCCDA" width="369.5" height="48.7"/>
<polygon fill="#6FCCDA" points="335.6,1411.3 143.5,1411.3 143.5,1247.2 232.7,1247.2 50.6,1211.4 50.6,1463.6 420.1,1463.6 
	420.1,1284.1 335.6,1267.5 "/>
<rect x="420.1" y="1211.4" fill="#488C93" width="0" height="72.6"/>
<polygon fill="#488C93" points="50.6,1211.4 232.7,1247.2 335.6,1247.2 335.6,1267.5 420.1,1284.1 420.1,1211.4 "/>
<path fill="#FAB65B" d="M976.8,1439H1481.4V874.9L1227.6,697.2L976.8,874.9V1439z M1119.5,958.5h227.9V1160h-227.9V958.5z"/>
<path fill="#6FCCDA" d="M1227.5,666.6L951.8,861.9V1464.1h554.7V861.9L1227.5,666.6z M1481.4,1439H976.8V874.9L1227.6,697.3
	L1481.4,875V1439L1481.4,1439z"/>
<polygon fill="#FAB65B" points="808.6,1463.6 420.1,1463.6 420.1,881.5 612.9,725.7 808.6,886.1 "/>
<polygon fill="#6FCCDA" points="408.3,919 394.8,903 612.8,717.8 808.7,886 808.8,915.6 612.7,745.3 "/>
<polygon fill="#B27E3E" points="654.3,781.4 420.1,910.6 612.5,745.6 "/>
<polygon fill="#8A6D43" points="736.4,1071.9 496.8,1071.9 499.8,898.2 736.5,897.9 "/>
<g>
	<rect x="496.8" y="898.1" fill="#3463AE" width="112.4" height="164.7"/>
	<path fill="#6FCCDA" d="M614.4,1068H491.6V892.9H614.4V1068z M502.1,1057.5H604V903.3H502.1V1057.5z"/>
</g>
<g>
	<rect x="614.2" y="898.1" fill="#3463AE" width="112.399" height="164.7"/>
	<path fill="#6FCCDA" d="M731.8,1068H609V892.9h122.8V1068L731.8,1068z M619.4,1057.5H721.3V903.3H619.4V1057.5z"/>
</g>
<path fill="none" stroke="#54483E" stroke-width="0.5" stroke-linecap="round" stroke-miterlimit="10" d="M382.6,1014.4"/>
<path fill="none" stroke="#54483E" stroke-width="0.5" stroke-linecap="round" stroke-miterlimit="10" d="M382.6,1014.4"/>
<path fill="none" stroke="#54483E" stroke-width="0.5" stroke-linecap="round" stroke-miterlimit="10" d="M132,1002.5"/>
<path fill="none" stroke="#54483E" stroke-width="0.5" stroke-linecap="round" stroke-miterlimit="10" d="M132,1002.5"/>
<path fill="none" stroke="#54483E" stroke-width="0.5" stroke-linecap="round" stroke-miterlimit="10" d="M418.5,905.5"/>
<path fill="none" stroke="#54483E" stroke-width="0.5" stroke-linecap="round" stroke-miterlimit="10" d="M418.5,905.5"/>
<polygon fill="#FAB65B" points="434.8,1202.4 29.8,1202.4 29,1096.9 434.8,1096.9 "/>
<rect x="29.8" y="1199.7" fill="#F1D3B8" width="390.2" height="11.8"/>
<g>
	<rect x="49.5" y="1439.5" fill="#291524" width="369.5" height="5.5"/>
	<rect x="49.5" y="1436.7" fill="#9A886A" width="369.5" height="5.5"/>
</g>
<g>
	<rect x="417.3" y="1435.3" fill="#8A6D43" width="390.3" height="5.5"/>
	<rect x="417.3" y="1432.6" fill="#9A886A" width="390.3" height="5.5"/>
</g>
<rect x="29.4" y="881.5" fill="#F1D3B8" width="390.6" height="27.4"/>
<path fill="#3463AE" d="M667,1464.9H553V1250.1h114V1464.9z M565.5,1454.4h89v-193.9h-89V1454.4z"/>
<polygon fill="#6FCCDA" points="299.8,934.7 298.6,934.6 298.6,934.7 "/>
<polygon fill="#6FCCDA" points="418.5,947 402.6,945.3 402.6,1061.4 400.5,1061.4 400.5,1066.1 298.5,1066.1 298.5,1080.4 
	168.7,1080.4 168.7,1073.2 163,1073.2 163,1066.1 70.2,1066.1 70.2,1061.4 68.1,1061.4 68.1,934.7 163,934.7 163,920.5 50.6,908.9 
	50.6,1106.3 420.1,1106.3 420.1,908.9 "/>
<path fill="#488C93" d="M420.1,908.9L420.1,908.9L420.1,908.9z"/>
<polygon fill="#488C93" points="163,919.6 296.7,919.6 296.7,926.6 298.6,926.6 298.6,934.6 299.8,934.7 402.6,934.7 402.6,945.3 
	418.5,947 420.1,908.9 420.1,908.9 50.6,908.9 163,920.5 "/>
<rect x="70.2" y="1061.4" fill="#291524" width="92.8" height="4.6"/>
<path fill="#54483E" d="M78.6,943.6h72.7c0.4,0,0.6-0.3,0.6-0.699c0-0.4-0.3-0.7-0.6-0.7H78.6c-0.4,0-0.6,0.3-0.6,0.7
	C78,943.3,78.2,943.6,78.6,943.6z"/>
<path fill="#54483E" d="M151.2,950.6H78.6c-0.4,0-0.6,0.301-0.6,0.7c0,0.4,0.3,0.7,0.6,0.7h72.7c0.4,0,0.6-0.3,0.6-0.7
	C151.9,951,151.6,950.6,151.2,950.6z"/>
<path fill="#54483E" d="M151.2,959.1H78.6c-0.4,0-0.6,0.301-0.6,0.7c0,0.4,0.3,0.7,0.6,0.7h72.7c0.4,0,0.6-0.3,0.6-0.7
	C151.9,959.5,151.6,959.1,151.2,959.1z"/>
<path fill="#54483E" d="M151.2,967.6H78.6c-0.4,0-0.6,0.301-0.6,0.7c0,0.4,0.3,0.7,0.6,0.7h72.7c0.4,0,0.6-0.3,0.6-0.7
	C151.9,967.9,151.6,967.6,151.2,967.6z"/>
<path fill="#54483E" d="M151.2,976.1H78.6c-0.4,0-0.6,0.301-0.6,0.7c0,0.4,0.3,0.7,0.6,0.7h72.7c0.4,0,0.6-0.3,0.6-0.7
	C151.9,976.4,151.6,976.1,151.2,976.1z"/>
<path fill="#54483E" d="M151.2,984.6H78.6c-0.4,0-0.6,0.301-0.6,0.7c0,0.4,0.3,0.7,0.6,0.7h72.7c0.4,0,0.6-0.3,0.6-0.7
	C151.9,984.9,151.6,984.6,151.2,984.6z"/>
<path fill="#54483E" d="M151.2,993.1H78.6c-0.4,0-0.6,0.301-0.6,0.7c0,0.4,0.3,0.7,0.6,0.7h72.7c0.4,0,0.6-0.3,0.6-0.7
	C151.9,993.4,151.6,993.1,151.2,993.1z"/>
<path fill="#54483E" d="M151.2,1001.6H78.6c-0.4,0-0.6,0.301-0.6,0.7c0,0.4,0.3,0.7,0.6,0.7h72.7c0.4,0,0.6-0.3,0.6-0.7
	C151.9,1001.9,151.6,1001.6,151.2,1001.6z"/>
<path fill="#54483E" d="M151.2,1010.1H78.6c-0.4,0-0.6,0.301-0.6,0.7c0,0.4,0.3,0.7,0.6,0.7h72.7c0.4,0,0.6-0.3,0.6-0.7
	C151.9,1010.4,151.6,1010.1,151.2,1010.1z"/>
<path fill="#54483E" d="M151.2,1018.6H78.6c-0.4,0-0.6,0.301-0.6,0.7c0,0.4,0.3,0.7,0.6,0.7h72.7c0.4,0,0.6-0.3,0.6-0.7
	C151.9,1018.9,151.6,1018.6,151.2,1018.6z"/>
<path fill="#54483E" d="M151.2,1027.1H78.6c-0.4,0-0.6,0.301-0.6,0.7c0,0.4,0.3,0.7,0.6,0.7h72.7c0.4,0,0.6-0.3,0.6-0.7
	C151.9,1027.4,151.6,1027.1,151.2,1027.1z"/>
<path fill="#54483E" d="M151.2,1035.6H78.6c-0.4,0-0.6,0.301-0.6,0.7c0,0.4,0.3,0.7,0.6,0.7h72.7c0.4,0,0.6-0.3,0.6-0.7
	C151.9,1035.9,151.6,1035.6,151.2,1035.6z"/>
<path fill="#54483E" d="M151.2,1044.1H78.6c-0.4,0-0.6,0.301-0.6,0.7c0,0.4,0.3,0.7,0.6,0.7h72.7c0.4,0,0.6-0.3,0.6-0.7
	C151.9,1044.4,151.6,1044.1,151.2,1044.1z"/>
<path fill="#54483E" d="M151.2,1052.5H78.6c-0.4,0-0.6,0.3-0.6,0.7c0,0.399,0.3,0.7,0.6,0.7h72.7c0.4,0,0.6-0.301,0.6-0.7
	C151.9,1052.9,151.6,1052.5,151.2,1052.5z"/>
<rect x="298.5" y="1061.4" fill="#291524" width="101.9" height="4.6"/>
<polygon fill="#FAB65B" points="298.6,963 298.8,937.7 328.3,937.6 299.8,934.7 298.6,934.7 "/>
<path fill="#FAB65B" d="M299.8,934.7l-1,3l-0.2,25.3v98.4h101.9h2.1V945.3v-10.7L299.8,934.7L299.8,934.7z M389.3,1054H310.9
	c-0.4,0-0.7-0.3-0.7-0.7c0-0.399,0.3-0.7,0.7-0.7H389.3c0.4,0,0.7,0.301,0.7,0.7C390,1053.7,389.7,1054,389.3,1054z M389.3,1045.5
	H310.9c-0.4,0-0.7-0.3-0.7-0.7c0-0.399,0.3-0.7,0.7-0.7H389.3c0.4,0,0.7,0.301,0.7,0.7C390,1045.2,389.7,1045.5,389.3,1045.5z
	 M389.3,1037H310.9c-0.4,0-0.7-0.3-0.7-0.7c0-0.399,0.3-0.7,0.7-0.7H389.3c0.4,0,0.7,0.301,0.7,0.7
	C390,1036.7,389.7,1037,389.3,1037z M389.3,1028.5H310.9c-0.4,0-0.7-0.3-0.7-0.7c0-0.399,0.3-0.7,0.7-0.7H389.3
	c0.4,0,0.7,0.301,0.7,0.7C390,1028.2,389.7,1028.5,389.3,1028.5z M389.3,1020H310.9c-0.4,0-0.7-0.3-0.7-0.7c0-0.399,0.3-0.7,0.7-0.7
	H389.3c0.4,0,0.7,0.301,0.7,0.7C390,1019.7,389.7,1020,389.3,1020z M389.3,1011.5H310.9c-0.4,0-0.7-0.3-0.7-0.7
	c0-0.399,0.3-0.7,0.7-0.7H389.3c0.4,0,0.7,0.301,0.7,0.7C390,1011.2,389.7,1011.5,389.3,1011.5z M389.3,1003H310.9
	c-0.4,0-0.7-0.3-0.7-0.7c0-0.399,0.3-0.7,0.7-0.7H389.3c0.4,0,0.7,0.301,0.7,0.7C390,1002.7,389.7,1003,389.3,1003z M389.3,994.5
	H310.9c-0.4,0-0.7-0.3-0.7-0.7c0-0.399,0.3-0.7,0.7-0.7H389.3c0.4,0,0.7,0.301,0.7,0.7C390,994.2,389.7,994.5,389.3,994.5z
	 M389.3,986H310.9c-0.4,0-0.7-0.3-0.7-0.7c0-0.399,0.3-0.7,0.7-0.7H389.3c0.4,0,0.7,0.301,0.7,0.7C390,985.7,389.7,986,389.3,986z
	 M389.3,977.6H310.9c-0.4,0-0.7-0.3-0.7-0.699c0-0.4,0.3-0.7,0.7-0.7H389.3c0.4,0,0.7,0.3,0.7,0.7
	C390,977.2,389.7,977.6,389.3,977.6z M389.3,969.1H310.9c-0.4,0-0.7-0.3-0.7-0.699c0-0.4,0.3-0.7,0.7-0.7H389.3
	c0.4,0,0.7,0.3,0.7,0.7C390,968.7,389.7,969.1,389.3,969.1z M389.3,960.6H310.9c-0.4,0-0.7-0.3-0.7-0.699c0-0.4,0.3-0.7,0.7-0.7
	H389.3c0.4,0,0.7,0.3,0.7,0.7C390,960.2,389.7,960.6,389.3,960.6z M389.3,952.1H310.9c-0.4,0-0.7-0.3-0.7-0.699
	c0-0.4,0.3-0.7,0.7-0.7H389.3c0.4,0,0.7,0.3,0.7,0.7C390,951.8,389.7,952.1,389.3,952.1z M389.3,943.6h-3.7H310.9
	c-0.4,0-0.7-0.3-0.7-0.699c0-0.4,0.3-0.7,0.7-0.7H371.8h17.5c0.4,0,0.7,0.3,0.7,0.7C390,943.3,389.7,943.6,389.3,943.6z"/>
<path fill="#54483E" d="M310.9,942.2c-0.4,0-0.7,0.3-0.7,0.7c0,0.399,0.3,0.699,0.7,0.699H385.6l-13.8-1.399H310.9z"/>
<path fill="#54483E" d="M390,942.9c0-0.4-0.3-0.7-0.7-0.7h-17.5l13.8,1.399h3.7C389.7,943.6,390,943.3,390,942.9z"/>
<path fill="#54483E" d="M310.9,952.1H389.3c0.4,0,0.7-0.3,0.7-0.699c0-0.4-0.3-0.7-0.7-0.7H310.9c-0.4,0-0.7,0.3-0.7,0.7
	C310.1,951.8,310.5,952.1,310.9,952.1z"/>
<path fill="#54483E" d="M389.3,959.1H310.9c-0.4,0-0.7,0.301-0.7,0.7c0,0.4,0.3,0.7,0.7,0.7H389.3c0.4,0,0.7-0.3,0.7-0.7
	C390,959.5,389.7,959.1,389.3,959.1z"/>
<path fill="#54483E" d="M389.3,967.6H310.9c-0.4,0-0.7,0.301-0.7,0.7c0,0.4,0.3,0.7,0.7,0.7H389.3c0.4,0,0.7-0.3,0.7-0.7
	C390,968,389.7,967.6,389.3,967.6z"/>
<path fill="#54483E" d="M389.3,976.1H310.9c-0.4,0-0.7,0.301-0.7,0.7c0,0.4,0.3,0.7,0.7,0.7H389.3c0.4,0,0.7-0.3,0.7-0.7
	C390,976.4,389.7,976.1,389.3,976.1z"/>
<path fill="#54483E" d="M389.3,984.6H310.9c-0.4,0-0.7,0.301-0.7,0.7c0,0.4,0.3,0.7,0.7,0.7H389.3c0.4,0,0.7-0.3,0.7-0.7
	C390,984.9,389.7,984.6,389.3,984.6z"/>
<path fill="#54483E" d="M389.3,993.1H310.9c-0.4,0-0.7,0.301-0.7,0.7c0,0.4,0.3,0.7,0.7,0.7H389.3c0.4,0,0.7-0.3,0.7-0.7
	C390,993.4,389.7,993.1,389.3,993.1z"/>
<path fill="#54483E" d="M389.3,1001.6H310.9c-0.4,0-0.7,0.301-0.7,0.7c0,0.4,0.3,0.7,0.7,0.7H389.3c0.4,0,0.7-0.3,0.7-0.7
	C390,1001.9,389.7,1001.6,389.3,1001.6z"/>
<path fill="#54483E" d="M389.3,1010.1H310.9c-0.4,0-0.7,0.301-0.7,0.7c0,0.4,0.3,0.7,0.7,0.7H389.3c0.4,0,0.7-0.3,0.7-0.7
	C390,1010.4,389.7,1010.1,389.3,1010.1z"/>
<path fill="#54483E" d="M389.3,1018.6H310.9c-0.4,0-0.7,0.301-0.7,0.7c0,0.4,0.3,0.7,0.7,0.7H389.3c0.4,0,0.7-0.3,0.7-0.7
	C390,1018.9,389.7,1018.6,389.3,1018.6z"/>
<path fill="#54483E" d="M389.3,1027.1H310.9c-0.4,0-0.7,0.301-0.7,0.7c0,0.4,0.3,0.7,0.7,0.7H389.3c0.4,0,0.7-0.3,0.7-0.7
	C390,1027.4,389.7,1027.1,389.3,1027.1z"/>
<path fill="#54483E" d="M389.3,1035.6H310.9c-0.4,0-0.7,0.301-0.7,0.7c0,0.4,0.3,0.7,0.7,0.7H389.3c0.4,0,0.7-0.3,0.7-0.7
	C390,1035.9,389.7,1035.6,389.3,1035.6z"/>
<path fill="#54483E" d="M389.3,1044.1H310.9c-0.4,0-0.7,0.301-0.7,0.7c0,0.4,0.3,0.7,0.7,0.7H389.3c0.4,0,0.7-0.3,0.7-0.7
	C390,1044.4,389.7,1044.1,389.3,1044.1z"/>
<path fill="#54483E" d="M389.3,1052.5H310.9c-0.4,0-0.7,0.3-0.7,0.7c0,0.399,0.3,0.7,0.7,0.7H389.3c0.4,0,0.7-0.301,0.7-0.7
	C390,1052.9,389.7,1052.5,389.3,1052.5z"/>
<polygon fill="#291524" points="297.6,1061.4 297.6,1061.4 297.6,934.7 298.6,934.7 298.6,934.6 296.7,934.4 296.7,1073.2 
	168.7,1073.2 168.7,1080.4 298.5,1080.4 298.5,1066.1 297.6,1066.1 "/>
<polygon fill="#291524" points="298.6,934.6 298.6,926.6 296.7,926.6 296.7,934.4 "/>
<polygon fill="#291524" points="297.6,1061.4 297.6,1066.1 298.5,1066.1 298.5,1061.4 "/>
<polygon fill="#291524" points="297.6,934.7 297.6,1061.4 297.6,1061.4 298.6,963 298.6,934.7 "/>
<polygon fill="#291524" points="298.5,1061.4 298.6,963 297.6,1061.4 "/>
<polygon fill="#FAB65B" points="168.9,1061.4 168.8,1066.1 170.2,1066.1 170.2,1061.4 "/>
<polygon fill="#FAB65B" points="170.2,936.7 170.1,937.7 170.2,937.7 "/>
<polygon fill="#FAB65B" points="170.3,926.9 223.4,926.8 223.2,926.8 170.2,926.8 170.2,934.7 170.2,934.7 "/>
<polygon fill="#FAB65B" points="234.2,926.8 223.2,926.8 223.4,926.8 "/>
<path fill="#FAB65B" d="M170.2,934.7v2V934.7z"/>
<path fill="#FAB65B" d="M163,919.6v0.9v14.2H68.1v126.7h2.2H163v4.6v7.1h5.7h128V934.4v-7.7v-7L163,919.6L163,919.6z M151.2,1054
	H78.6c-0.4,0-0.6-0.3-0.6-0.7c0-0.399,0.3-0.7,0.6-0.7h72.7c0.4,0,0.6,0.301,0.6,0.7C151.9,1053.7,151.6,1054,151.2,1054z
	 M151.2,1045.5H78.6c-0.4,0-0.6-0.3-0.6-0.7c0-0.399,0.3-0.7,0.6-0.7h72.7c0.4,0,0.6,0.301,0.6,0.7
	C151.9,1045.2,151.6,1045.5,151.2,1045.5z M151.2,1037H78.6c-0.4,0-0.6-0.3-0.6-0.7c0-0.399,0.3-0.7,0.6-0.7h72.7
	c0.4,0,0.6,0.301,0.6,0.7C151.9,1036.7,151.6,1037,151.2,1037z M151.2,1028.5H78.6c-0.4,0-0.6-0.3-0.6-0.7c0-0.399,0.3-0.7,0.6-0.7
	h72.7c0.4,0,0.6,0.301,0.6,0.7C151.9,1028.2,151.6,1028.5,151.2,1028.5z M151.2,1020H78.6c-0.4,0-0.6-0.3-0.6-0.7
	c0-0.399,0.3-0.7,0.6-0.7h72.7c0.4,0,0.6,0.301,0.6,0.7C151.9,1019.7,151.6,1020,151.2,1020z M151.2,1011.5H78.6
	c-0.4,0-0.6-0.3-0.6-0.7c0-0.399,0.3-0.7,0.6-0.7h72.7c0.4,0,0.6,0.301,0.6,0.7C151.9,1011.2,151.6,1011.5,151.2,1011.5z
	 M151.2,1003H78.6c-0.4,0-0.6-0.3-0.6-0.7c0-0.399,0.3-0.7,0.6-0.7h72.7c0.4,0,0.6,0.301,0.6,0.7
	C151.9,1002.7,151.6,1003,151.2,1003z M151.2,994.5H78.6c-0.4,0-0.6-0.3-0.6-0.7c0-0.399,0.3-0.7,0.6-0.7h72.7
	c0.4,0,0.6,0.301,0.6,0.7C151.9,994.2,151.6,994.5,151.2,994.5z M151.2,986H78.6c-0.4,0-0.6-0.3-0.6-0.7c0-0.399,0.3-0.7,0.6-0.7
	h72.7c0.4,0,0.6,0.301,0.6,0.7C151.9,985.7,151.6,986,151.2,986z M151.2,977.6H78.6c-0.4,0-0.6-0.3-0.6-0.699c0-0.4,0.3-0.7,0.6-0.7
	h72.7c0.4,0,0.6,0.3,0.6,0.7C151.9,977.2,151.6,977.6,151.2,977.6z M151.2,969.1H78.6c-0.4,0-0.6-0.3-0.6-0.699
	c0-0.4,0.3-0.7,0.6-0.7h72.7c0.4,0,0.6,0.3,0.6,0.7C151.9,968.7,151.6,969.1,151.2,969.1z M151.2,960.6H78.6
	c-0.4,0-0.6-0.3-0.6-0.699c0-0.4,0.3-0.7,0.6-0.7h72.7c0.4,0,0.6,0.3,0.6,0.7C151.9,960.2,151.6,960.6,151.2,960.6z M151.2,952.1
	H78.6c-0.4,0-0.6-0.3-0.6-0.699c0-0.4,0.3-0.7,0.6-0.7h72.7c0.4,0,0.6,0.3,0.6,0.7C151.9,951.8,151.6,952.1,151.2,952.1z
	 M151.2,943.6H78.6c-0.4,0-0.6-0.3-0.6-0.699c0-0.4,0.3-0.7,0.6-0.7h72.7c0.4,0,0.6,0.3,0.6,0.7
	C151.9,943.3,151.6,943.6,151.2,943.6z M170.2,1066.1h-1.3v-4.6h1.3V1066.1z M282.4,1058.9H177.3v-125h105.1V1058.9z"/>
<rect x="-3.2" y="1464.1" fill="#7B7778" width="2511.3" height="56.2"/>
<rect x="-5.9" y="1504.7" fill="#555054" width="2521.6" height="295.399"/>
<path fill="#0E103B" d="M108.1,802.1"/>
<rect x="565.5" y="1260.5" fill="#232323" width="89" height="203.1"/>
<g>
	<polygon fill="#6FCCDA" points="1422.6,869.9 1032.2,869.9 1227.4,737.6 	"/>
	<path fill="#FAB65B" d="M1446.5,877.2h-438.1l219-148.4L1446.5,877.2z M1056.1,862.5h342.7L1227.4,746.4L1056.1,862.5z"/>
</g>
<polygon fill="#488C93" points="1072,863 1251.4,762.8 1228.3,747.1 1054.6,863 "/>
<g>
	<path fill="none" stroke="#988F86" stroke-width="0.25" stroke-miterlimit="10" d="M1480.2,885.2"/>
	<path fill="none" stroke="#988F86" stroke-width="0.25" stroke-miterlimit="10" d="M977.4,885.2"/>
	<path fill="none" stroke="#988F86" stroke-width="0.25" stroke-miterlimit="10" d="M1480.2,896.1"/>
	<path fill="none" stroke="#988F86" stroke-width="0.25" stroke-miterlimit="10" d="M977.4,896.1"/>
</g>
<g>
	<polygon fill="#FAB65B" points="1751.9,1105 1504.9,1232.4 1504.9,861.2 1751.9,861.2 	"/>
	<g>
		<g>
			<g>
				<g>
					<g>
						<defs>
							<polygon id="SVGID_1_" points="1742.1,1098.9 1512.3,1217.5 1512.3,872 1742.1,872 							"/>
						</defs>
						<clipPath id="SVGID_2_">
							<use xlink:href="#SVGID_1_"  overflow="visible"/>
						</clipPath>
						<g clip-path="url(#SVGID_2_)">
							<rect x="1495" y="859.8" fill="#ED6A49" width="264.4" height="4.2"/>
							<rect x="1495" y="871.1" fill="#ED6A49" width="264.4" height="4.2"/>
							<rect x="1495" y="882.4" fill="#ED6A49" width="264.4" height="4.199"/>
							<rect x="1495" y="893.6" fill="#ED6A49" width="264.4" height="4.2"/>
							<rect x="1495" y="904.9" fill="#ED6A49" width="264.4" height="4.199"/>
							<rect x="1495" y="916.1" fill="#ED6A49" width="264.4" height="4.2"/>
							<rect x="1495" y="927.4" fill="#ED6A49" width="264.4" height="4.199"/>
							<rect x="1495" y="938.7" fill="#ED6A49" width="264.4" height="4.2"/>
							<rect x="1495" y="949.9" fill="#ED6A49" width="264.4" height="4.199"/>
							<rect x="1495" y="961.2" fill="#ED6A49" width="264.4" height="4.2"/>
							<rect x="1495" y="972.4" fill="#ED6A49" width="264.4" height="4.199"/>
							<rect x="1495" y="983.7" fill="#ED6A49" width="264.4" height="4.2"/>
							<rect x="1495" y="994.9" fill="#ED6A49" width="264.4" height="4.199"/>
							<rect x="1495" y="1006.2" fill="#ED6A49" width="264.4" height="4.2"/>
							<rect x="1495" y="1017.5" fill="#ED6A49" width="264.4" height="4.2"/>
							<rect x="1495" y="1028.7" fill="#ED6A49" width="264.4" height="4.2"/>
							<rect x="1495" y="1040" fill="#ED6A49" width="264.4" height="4.2"/>
							<rect x="1495" y="1051.2" fill="#ED6A49" width="264.4" height="4.2"/>
							<rect x="1495" y="1062.5" fill="#ED6A49" width="264.4" height="4.2"/>
							<rect x="1495" y="1073.7" fill="#ED6A49" width="264.4" height="4.2"/>
							<rect x="1495" y="1085" fill="#ED6A49" width="264.4" height="4.2"/>
							<rect x="1495" y="1096.3" fill="#ED6A49" width="264.4" height="4.2"/>
							<rect x="1495" y="1107.5" fill="#ED6A49" width="264.4" height="4.2"/>
							<rect x="1495" y="1118.8" fill="#ED6A49" width="264.4" height="4.2"/>
							<rect x="1495" y="1130" fill="#ED6A49" width="264.4" height="4.2"/>
							<rect x="1495" y="1141.3" fill="#ED6A49" width="264.4" height="4.2"/>
							<rect x="1495" y="1152.5" fill="#ED6A49" width="264.4" height="4.2"/>
							<rect x="1495" y="1163.8" fill="#ED6A49" width="264.4" height="4.2"/>
							<rect x="1495" y="1175.1" fill="#ED6A49" width="264.4" height="4.2"/>
							<rect x="1495" y="1186.3" fill="#ED6A49" width="264.4" height="4.2"/>
							<rect x="1495" y="1197.6" fill="#ED6A49" width="264.4" height="4.2"/>
							<rect x="1495" y="1208.8" fill="#ED6A49" width="264.4" height="4.2"/>
							<rect x="1495" y="1220.1" fill="#ED6A49" width="264.4" height="4.2"/>
							<rect x="1495" y="1231.3" fill="#ED6A49" width="264.4" height="4.2"/>
							<rect x="1495" y="1242.6" fill="#ED6A49" width="264.4" height="4.2"/>
						</g>
					</g>
				</g>
			</g>
		</g>
	</g>
</g>
<rect x="976.8" y="1212.5" fill="#CE9D60" width="504.5" height="251.7"/>
<g>
	<g>
		<path fill="#B22225" d="M1118.4,1364.7l28.5-11.3l0.199-0.101l0.4-0.1c3.8-1.2,7.6-1.7,11.2-1.7c8.7,0,16.399,3.3,21.899,9.4
			c3,3.399,5.2,7.399,6.5,11.8c2.2-5.101,3.101-12.101-0.8-20.7C1166.6,1322,1118.4,1364.7,1118.4,1364.7z"/>
		<path fill="#020202" d="M1023,1356.3c-1.7,0-3.2-1.399-3.2-3.2l0,0c0-1.699,1.4-3.199,3.2-3.199l0,0h31.6
			c1.7,0,3.2,1.399,3.2,3.199l0,0c0,1.7-1.399,3.2-3.2,3.2l0,0H1023L1023,1356.3z"/>
		<path fill="#B22225" d="M1046.2,1362.1c-12,0-23.101,3.7-32.2,10c-4,0-15,0-15,0c-1.7,0-3.1,2.801-3.1,6.301l0,0l0,0l0,0
			c0,3.5,1.399,6.3,3.1,6.3h1.8c-7.3,9.6-11.6,21.5-11.6,34.399c0,3.101,0.2,6.101,0.7,9.101c0,0,5.699-1.2,5.3-9.101
			c0-28.1,22.899-51,51-51c12.6,0,24.1,4.601,33,12.2l6.2-2.5C1075.3,1368.1,1061.4,1362.1,1046.2,1362.1z"/>
		<path fill="#B22225" d="M1221.8,1398.9l6.8,9.6c-2.699,3.2-4.3,7.4-4.3,11.9c0,10.3,8.4,18.699,18.7,18.699
			s18.7-8.399,18.7-18.699c0-10.301-8.4-18.7-18.7-18.7c-1.9,0-3.7,0.3-5.5,0.8l-17-28.2c6.8-3.3,14.4-5.3,22.5-5.3
			c9.5,0,18.4,2.6,26,7.1c6.4,3.2,8.8-1.699,8.8-1.699c-9.7-7.4-21.8-11.7-34.8-11.7c-9.3,0-18,2.2-25.7,6.1l-1.7-2.699l-14.1-18.2
			c-1.4-2.2-4.4-2.8-6.6-1.4c-2.2,1.4-2.801,4.4-1.4,6.601l10.4,20.699l1.8,2.601c-12.5,10.6-20.5,26.399-20.5,44.1
			c0,8.9,2,17.4,5.7,25c0,0,5-2.8,3.399-8.5c-1.8-5.2-2.699-10.7-2.699-16.5c0-15.5,7-29.4,17.899-38.8l3.9,5.399"/>
		<path fill="#B22225" d="M1176.1,1364.8c-4-4.5-10.1-7.399-17.399-7.399c-3,0-6.101,0.5-9.5,1.5l-0.2,0.1l-108.9,43.4l0,0
			c-7.199,2.6-12.3,9.399-12.3,17.399c0,4.3,1.5,8.3,4,11.4l0,0l0,0c0.101,0.1,0.101,0.1,0.101,0.2l0,0c2,2.399,4.5,4.399,7.5,5.6
			l1.399-2.6l1.601-2.801c-0.301-0.1-0.5-0.199-0.7-0.3c-4.601-1.8-7.9-6.3-7.9-11.5c0-6.899,5.601-12.5,12.5-12.5
			c5.8,0,10.7,4,12.101,9.4h-6.9c-1-1.8-3-3-5.2-3c-3.3,0-6,2.7-6,6s2.601,5.899,5.8,6h0.4c2.2-0.101,4-1.3,5-3.101h6.9
			c-1,4-3.9,7.2-7.7,8.7h10c2-2.5,3.399-5.399,3.899-8.7h11.9c-0.3,3-1.1,5.9-2.2,8.601h15.2c0.8-2.8,1.3-5.7,1.5-8.601h6.7
			c0.5,0.9,1.5,1.601,2.6,1.601h20.5c-2.5-2.3-4.1-5.5-4.1-9.2c0-3,1.1-5.7,2.8-7.9H1102c-1.6-7.199-4.5-13.899-8.4-19.8l34.2-13.6
			h46.8c0.9,2.3,1.4,4.8,1.5,7.3c0,0.9-0.1,1.8-0.199,2.8l-3.7,24.9c2,0.8,3.9,1.899,5.6,3.2l4-27.2c0.2-1.2,0.301-2.4,0.301-3.601
			C1182.2,1375.2,1180.1,1369.3,1176.1,1364.8z M1064.8,1416.7c-1-6-4.899-11-10.2-13.601l12.9-5.1c5,4.8,8.4,11.4,9.1,18.8
			L1064.8,1416.7L1064.8,1416.7z M1097.3,1416.7h-6.2c-0.6-9.2-4-17.601-9.399-24.4l6.2-2.5
			C1093.4,1397.5,1096.8,1406.7,1097.3,1416.7z"/>
	</g>
	<path fill="#020202" d="M1116.9,1357.2c0,1.899-6.9,13.5-18.9,13.5c-8.1,0-13.6-4.601-18.7-6.4c-6.1-2.1-10.8-2.8-10.8-2.8
		c-3.3,0-4.3-1.8-4.3-3.9c0-2.1,2-3.899,3.899-3.899h45.301C1115.3,1353.7,1116.9,1355.2,1116.9,1357.2L1116.9,1357.2z"/>
	<path fill="#4C4C4D" d="M1107.4,1437.4h56.3c3.2,0,5.8-2.601,5.8-5.801c0-2-1-3.699-2.5-4.8c-0.9,2-1.6,4.601-7.5,4.7
		c-8.6,0-38.2,0-62.3,0C1101.4,1431.8,1105.1,1434.1,1107.4,1437.4z"/>
	<path fill="#4C4C4D" d="M1226.5,1339.5c0-8.1-1.8-14.6-4.1-14.8l0,0c0,0,0,0-0.101,0l0,0l0,0c-13.899,0-25.1,6.6-25.2,14.8
		c0.2,0,0.301,0,0.5,0c3.7,0,7.101,1.8,9.101,4.8l7.2,9.2c2.6,0.6,5.399,0.9,8.399,0.9l0,0l0,0c0,0,0,0,0.101,0l0,0
		C1224.7,1354.1,1226.5,1347.6,1226.5,1339.5z"/>
	<path fill="#4C4C4D" d="M1170.1,1383.1c0.101-0.6,0.101-1.3,0.101-1.8c0-0.399-0.101-0.899-0.101-1.3h-41c-1.699,0-3,1.4-3,3
		c0,0,0,13.2,0,20.3c0.101,0,0.301-0.1,0.4-0.1c4.4-3.8,10.9-6,17.7-6c7,0,13.5,2.3,17.899,6.2c1.7,0.5,3.301,1.3,4.601,2.399
		L1170.1,1383.1z"/>
	<path fill="#4C4C4D" d="M1185.4,1339c-2-3.3-4.7-3.4-5.601-3.4l0,0c-0.1,0-0.1,0-0.1,0l0,0h-0.2h-14.7l0,0c-1.699,0-3-1.3-3-3l0,0
		c0-1.699,1.301-3,3-3l0,0h14.301c0.199,0,0.399,0,0.699,0l0,0c1.9-0.1,7.4,0.7,10.801,6.4l0,0c0.899,1.4,0.399,3.3-1,4.1l0,0
		c-0.5,0.301-1,0.4-1.601,0.4l0,0C1186.9,1340.4,1185.9,1339.9,1185.4,1339L1185.4,1339z"/>
	<path fill="#020202" d="M1164.1,1411.6c-1.1-1.6-2.8-2.6-4.8-2.699c-3.1-3.4-8.7-5.7-15-5.7s-11.899,2.3-15,5.7l0,0
		c-3.5,0-6.3,2.8-6.3,6.3s2.8,6.3,6.3,6.3l0,0c3.101,3.4,8.601,5.7,15,5.7c6.4,0,11.9-2.3,15-5.7c2.101-0.1,3.9-1.3,5-3
		c6.3,0.3,11.3,5.5,11.3,11.8c0,6.5-5.3,11.801-11.899,11.801h-60.5c-1.101-2.801-3.9-4.7-7.101-4.7H1046.2l-6.7,11.8
		c-13.3-3.2-23.3-15.1-23.3-29.399c0-16.7,13.6-30.301,30.3-30.301c2.5,0,5,0.4,7.3,0.9l18.2-7.2c-7.2-5.1-16-8.1-25.5-8.1
		c-24.6,0-44.7,20.1-44.7,44.7c0,24.6,20.101,44.699,44.7,44.699c11.6,0,22.2-4.5,30.2-11.8h19.399c3.101,0,5.801-1.9,7-4.6h60.601
		c9.899,0,17.899-8,17.899-17.9C1181.5,1420.5,1173.8,1412.6,1164.1,1411.6z M1144,1419.7c-2.5,0-4.5-2-4.5-4.5s2-4.5,4.5-4.5
		s4.5,2,4.5,4.5C1148.6,1417.7,1146.5,1419.7,1144,1419.7z"/>
	<path fill="#020202" d="M1208.8,1391.7c-6.5,7.8-10.5,17.8-10.5,28.7c0,24.6,20.101,44.699,44.7,44.699
		c24.7,0,44.7-20.1,44.7-44.699c0-24.601-20.101-44.7-44.7-44.7c-4.7,0-9.1,0.7-13.4,2.1l7.801,12.9c1.8-0.3,3.699-0.5,5.6-0.5
		c16.7,0,30.3,13.6,30.3,30.3s-13.6,30.3-30.3,30.3s-30.3-13.6-30.3-30.3c0-5.4,1.5-10.5,4-14.9"/>
	<path fill="#020202" d="M1232.5,1414l6,8.5c0.9,1.4,2.4,2.2,4,2.2c0.9,0,1.8-0.2,2.6-0.8c2.2-1.4,2.801-4.4,1.4-6.601l-5.5-9.1
		c0.7-0.101,1.3-0.2,2-0.2c6.8,0,12.4,5.5,12.4,12.4c0,6.8-5.5,12.3-12.4,12.399c-6.8,0-12.4-5.5-12.4-12.399l0,0
		C1230.7,1418,1231.4,1415.9,1232.5,1414z"/>
	<g>
		<path fill="#4C4C4D" d="M1268.1,1357.2c-0.8,2.1-2.8,3.2-4.6,2.7c-7.5-2.4-15.4-3.4-23.3-3.101c-1.8,0.101-3.5-1.6-3.7-3.8
			c-0.1-1.3-0.2-2.7-0.4-4c-0.199-2.2,1.4-4.2,3.601-4.3c9.3-0.4,18.5,0.899,27.399,3.6c2.101,0.7,3.2,3,2.4,5.1
			C1269.1,1354.7,1268.6,1356,1268.1,1357.2z"/>
	</g>
</g>
<rect x="1829.1" y="979.4" fill="#FAB65B" width="252.301" height="485.399"/>
<polygon fill="#705F5F" points="2229.4,1122.1 2409.2,1122.1 2409.2,1149 "/>
<rect x="2229.4" y="925.2" fill="#705F5F" width="15.6" height="0.3"/>
<rect x="2229.4" y="932.9" fill="#705F5F" width="36.199" height="0.3"/>
<rect x="2229.4" y="940.7" fill="#705F5F" width="63.3" height="0.3"/>
<rect x="2229.4" y="948.4" fill="#705F5F" width="94.399" height="0.3"/>
<rect x="2229.4" y="956.2" fill="#705F5F" width="127.5" height="0.3"/>
<rect x="2229.4" y="963.9" fill="#705F5F" width="156" height="0.3"/>
<rect x="2229.4" y="971.7" fill="#705F5F" width="193.1" height="0.3"/>
<rect x="2229.4" y="979.4" fill="#705F5F" width="243.399" height="0.3"/>
<rect x="2229.4" y="987.2" fill="#705F5F" width="243.399" height="0.3"/>
<rect x="2229.4" y="995" fill="#705F5F" width="243.399" height="0.3"/>
<rect x="2229.4" y="1002.7" fill="#705F5F" width="243.399" height="0.3"/>
<rect x="2229.4" y="1010.5" fill="#705F5F" width="243.399" height="0.3"/>
<rect x="2229.4" y="1018.2" fill="#705F5F" width="243.399" height="0.3"/>
<rect x="2229.4" y="1026" fill="#705F5F" width="243.399" height="0.3"/>
<rect x="2229.4" y="1033.7" fill="#705F5F" width="243.399" height="0.3"/>
<rect x="2229.4" y="1041.5" fill="#705F5F" width="243.399" height="0.3"/>
<rect x="2229.4" y="1049.2" fill="#705F5F" width="243.399" height="0.3"/>
<rect x="2229.4" y="1057" fill="#705F5F" width="243.399" height="0.3"/>
<rect x="2229.4" y="1064.7" fill="#705F5F" width="243.399" height="0.3"/>
<rect x="2229.4" y="1072.5" fill="#705F5F" width="243.399" height="0.3"/>
<rect x="2229.4" y="1080.2" fill="#705F5F" width="243.399" height="0.3"/>
<rect x="2229.4" y="1088" fill="#705F5F" width="243.399" height="0.3"/>
<rect x="2229.4" y="1095.7" fill="#705F5F" width="243.399" height="0.3"/>
<rect x="2229.4" y="1103.5" fill="#705F5F" width="243.399" height="0.3"/>
<rect x="2229.4" y="1111.2" fill="#705F5F" width="243.399" height="0.3"/>
<rect x="2229.4" y="1119" fill="#705F5F" width="243.399" height="0.3"/>
<g>
	<rect x="1915.3" y="1176.4" fill="#046096" width="120.601" height="288.5"/>
	<g>
		<path fill="#016096" d="M2034.2,1460.4H1917.1v-279.5H2034.2V1460.4z M1931.2,1449.9h88.899V1191.3H1931.2V1449.9z"/>
		<rect x="1924.1" y="1186.1" fill="#DBE6E6" width="103" height="277.4"/>
	</g>
	<rect x="1924" y="1236.8" fill="#046096" width="103.3" height="4.601"/>
</g>
<rect x="138.2" y="1241.9" fill="none" stroke="#016096" stroke-width="12" stroke-miterlimit="10" width="202.8" height="174.8"/>
<g>
	<path fill="#3463AE" d="M1724.8,1426.4c-1-1.9-2.1-4.101-3.3-6.4c1-1.1,1.7-2.5,1.7-4.1c0-3.301-2.7-6-6-6h-1.2
		c-0.4-0.801-0.9-1.5-1.3-2.301c-7.8-13.3-17.601-26.5-31.601-42.6c-21.3-24.4-39.399-39.5-58.6-49c-19.8-9.8-41.6-14.2-70.8-14.2
		c-14.8,0-31,0.8-48.9,6.5c-23.3,7.4-42.899,21.601-58.2,42c-0.3,0.3-0.5,0.8-1,1.101c0,0-1.399,0.1-1.5,0.1
		c-37.3,0.3-73.899,13.3-87.8,25.8l0,0l-6.5,5.9c-1.399,0.7-10.7,0.399-10.7,6.5v11c0,0.2,0,0.399,0,0.5c0,0.8,0,1.7,0,2.5
		c-0.8,2-1.5,4-2.199,6.1h-2.2c-3.3,0-6,2.7-6,6c0,3.2,2.5,5.8,5.6,6c-0.2,3.8,0.2,6.5,0.2,6.5c4.2,0.4,6.7-1.399,7.2-5
		c2.5-18.6,21.8-31.2,41.399-31.2c21.5,0,39.301,15.801,42.5,36.4c0.301,2.2,3.801,10.7,18,10.7c18.5,0,141.9,0,141.9,0
		c11.2,0,12.5-8.3,12.8-10.4c3.101-20.7,21-36.6,42.601-36.6c20,0,36.899,13.8,41.699,32.3c0.9,3.4,3.801,10.8,20.7,10.8
		c8.9,0,15.101-1,17.4-1.399c0.7,0,1.399-0.2,2-0.5C1725.1,1432,1726.1,1428.9,1724.8,1426.4z M1546.5,1356.4h-2.1h-12.7h-70.4
		c-1.8,0-3.3-1.5-3.3-3.2c0-0.5,0.1-0.9,0.3-1.4c29.4-35.5,67-39.3,88.2-39.8V1356.4L1546.5,1356.4z M1653.3,1356.4h-96.6V1312
		c41.6,0.5,68.7,10.6,98.399,38.6C1655.5,1351,1660.7,1356.4,1653.3,1356.4z"/>
	<path fill="#010101" d="M1640.8,1428.4c3.8,0,6.9,3.1,6.9,6.899s-3.101,6.9-6.9,6.9s-6.899-3.101-6.899-6.9
		S1637,1428.4,1640.8,1428.4z"/>
	<path fill="#010101" d="M1640.8,1403.2c-17.7,0-32.1,14.399-32.1,32.1s14.399,32.101,32.1,32.101s32-14.4,32-32.101
		S1658.4,1403.2,1640.8,1403.2z M1640.8,1454.6c-10.7,0-19.3-8.699-19.3-19.3c0-10.7,8.7-19.3,19.3-19.3
		c10.601,0,19.3,8.7,19.3,19.3C1660.1,1445.9,1651.4,1454.6,1640.8,1454.6z"/>
	<circle fill="#010101" cx="1383" cy="1435.3" r="6.9"/>
	<path fill="#010101" d="M1383,1403.2c-2.8,0-5.4,0.399-8,1c-13.8,3.6-24.1,16.1-24.1,31.1c0,14.9,10.199,27.5,24.1,31
		c2.6,0.7,5.2,1,8,1c17.7,0,32.1-14.399,32.1-32.1C1415,1417.6,1400.7,1403.2,1383,1403.2z M1363.7,1435.3
		c0-10.7,8.7-19.3,19.3-19.3s19.3,8.7,19.3,19.3c0,10.601-8.7,19.3-19.3,19.3C1372.3,1454.6,1363.7,1445.9,1363.7,1435.3z"/>
</g>
<polygon fill="#FAB65B" points="951.8,1212.5 853.5,1137 853.5,861 951.8,861 "/>
<circle fill="#6FCCDA" cx="1979.3" cy="889.8" r="8.3"/>
<rect x="1965.8" y="866.5" fill="#6FCCDA" width="27" height="5.8"/>
<rect x="1965.8" y="856.9" fill="#6FCCDA" width="27" height="5.8"/>
<circle fill="#6FCCDA" cx="1979.3" cy="912.7" r="8.3"/>
<rect x="1965.8" y="866.5" fill="#8F9393" width="27" height="5.8"/>
<circle fill="#8F9393" cx="1979.3" cy="889.8" r="8.3"/>
<rect x="1965.8" y="856.9" fill="#8F9393" width="27" height="5.8"/>
<circle fill="#8F9393" cx="1979.3" cy="912.7" r="8.3"/>
<circle fill="#FFFFFF" cx="1979.3" cy="889.8" r="8.3"/>
<circle fill="#FFFFFF" cx="1979.3" cy="912.7" r="8.3"/>
<rect x="1965.8" y="856.9" fill="#FFFFFF" width="27" height="5.8"/>
<rect x="1965.8" y="866.5" fill="#FFFFFF" width="27" height="5.8"/>
<path fill="none" stroke="#4591CE" stroke-width="2" stroke-linecap="round" stroke-miterlimit="10" d="M609.7,233.8"/>
<path fill="none" stroke="#4591CE" stroke-width="2" stroke-linecap="round" stroke-miterlimit="10" d="M609.7,52.2"/>
<path fill="none" stroke="#4591CE" stroke-width="2" stroke-linecap="round" stroke-miterlimit="10" d="M699.8,110"/>
<path fill="none" stroke="#4591CE" stroke-width="2" stroke-linecap="round" stroke-miterlimit="10" d="M610.8,79.5"/>
<path fill="none" stroke="#4591CE" stroke-width="2" stroke-linecap="round" stroke-miterlimit="10" d="M529.8,108.1"/>
<path fill="#8F9393" d="M1799.7,782.9V1084H2101.1V782.9H1799.7z M1999.4,931.1c0,3.4-2.801,6.101-6.101,6.101h-155.5
	c-3.399,0-6.1-2.8-6.1-6.101V820.9c0-3.4,2.8-6.101,6.1-6.101h155.5c3.4,0,6.101,2.8,6.101,6.101V931.1z"/>
<path fill="#6FCCDA" d="M1788.1,762.2v310.5H2090V762.2H1788.1z M1999.4,931.1c0,3.4-2.801,6.101-6.101,6.101h-155.5
	c-3.399,0-6.1-2.8-6.1-6.101V820.9c0-3.4,2.8-6.101,6.1-6.101h155.5c3.4,0,6.101,2.8,6.101,6.101V931.1z"/>
<path fill="#3463AE" d="M1808,782.9V1052h261.7V782.9H1808z M1999.4,931.1c0,3.4-2.801,6.101-6.101,6.101h-155.5
	c-3.399,0-6.1-2.8-6.1-6.101V820.9c0-3.4,2.8-6.101,6.1-6.101h155.5c3.4,0,6.101,2.8,6.101,6.101V931.1z"/>
<rect x="1965.8" y="828.3" fill="#6FCCDA" width="27" height="5.8"/>
<rect x="1965.8" y="847.4" fill="#6FCCDA" width="27" height="5.8"/>
<rect x="1965.8" y="837.8" fill="#6FCCDA" width="27" height="5.8"/>
<rect x="1965.8" y="847.4" fill="#8F9393" width="27" height="5.8"/>
<rect x="1965.8" y="828.3" fill="#8F9393" width="27" height="5.8"/>
<rect x="1965.8" y="837.8" fill="#8F9393" width="27" height="5.8"/>
<path fill="#191918" d="M1993.3,814.8h-155.5c-3.399,0-6.1,2.8-6.1,6.101V931.1c0,3.4,2.8,6.101,6.1,6.101h155.5
	c3.4,0,6.101-2.8,6.101-6.101V820.9C1999.4,817.5,1996.7,814.8,1993.3,814.8z M1956.8,900c0,13.2-10.8,24-24,24h-64.2
	c-13.199,0-24-10.8-24-24v-48c0-13.2,10.801-24,24-24h64.2c13.2,0,24,10.8,24,24V900z M1979.3,921c-4.6,0-8.3-3.7-8.3-8.3
	c0-4.601,3.7-8.3,8.3-8.3c4.601,0,8.3,3.699,8.3,8.3C1987.6,917.3,1983.9,921,1979.3,921z M1979.3,898.1c-4.6,0-8.3-3.699-8.3-8.3
	c0-4.6,3.7-8.3,8.3-8.3c4.601,0,8.3,3.7,8.3,8.3C1987.6,894.4,1983.9,898.1,1979.3,898.1z M1992.8,872.3h-27v-5.8h27V872.3z
	 M1992.8,862.7h-27v-5.8h27V862.7z M1992.8,853.2h-27v-5.8h27V853.2z M1992.8,843.6h-27v-5.8h27V843.6z M1992.8,834.1h-27v-5.8h27
	V834.1z"/>
<rect x="1965.8" y="828.3" fill="#FFFFFF" width="27" height="5.8"/>
<rect x="1965.8" y="837.8" fill="#FFFFFF" width="27" height="5.8"/>
<rect x="1965.8" y="847.4" fill="#FFFFFF" width="27" height="5.8"/>
<path fill="#D7CAAF" d="M2006.5,926.8l-35.4-1c0,0,6.801-17.3,2.5-29.7c-2.399-6.899,28-6.699,26.2,0.301
	C1995.3,913.6,2006.5,926.8,2006.5,926.8z"/>
<path fill="#D7CAAF" d="M1967.9,883.7c0,0-3.5-3.3-2.801,1.6c0.7,4.9,3.7,10.9,4.5,9.101c0.801-1.801,1.4-3.601,1.4-4.2
	c0-0.7-3-6.2-3-6.2"/>
<path fill="#D7CAAF" d="M2004.9,883.2c0,0,3.5-3.3,2.8,1.6c-0.7,4.9-3.7,10.9-4.5,9.101c-0.8-1.801-1.4-3.601-1.4-4.2
	c0-0.7,3-6.2,3-6.2"/>
<path fill="#939293" d="M2002.9,871.3c3.6,4.3,6.3,11.601-0.9,23.9c-1.5,2.6-5.3,7.899-7.5,8.8c-5.9,2.5-11.8,1.6-16.6-0.6
	c-3-1.4-5.601-7.101-7.301-9.101c-3-3.5-7.3-18.399-1.8-24.1c1.601-1.601,5.101-4,5.3-3.7c0.5,0.7,3.7,7.5,12.301,7.7
	c10.899,0.3,11-6.9,11-6.9S2001.2,869.4,2002.9,871.3z"/>
<path fill="#E6E640" d="M1937.6,1045.5l6.101-100.3c0.899-22.5,10.5-17.4,20.3-22.9c8.9-5,7.6-7.7,9-8.8c1.2-0.9,4.9-0.4,13.2-0.4
	c1.2,0,14-1.699,15.1,0.601c3,6.7,7.5,9.1,15.601,10.399c12.8,2,21,13.101,23.1,20.4c0,0,10.8,22.8,2.699,101"/>
<path fill="#232323" d="M2059.2,1034.9c0,8.399-5.4,15.199-12.101,15.199h-183.6c-6.7,0-12.1-6.8-12.1-15.199V973.6
	c0-8.399,5.399-15.199,12.1-15.199h183.6c6.7,0,12.101,6.8,12.101,15.199V1034.9z"/>
<rect x="1939.9" y="781.1" fill="#6FCCDA" width="6.8" height="270.9"/>
<rect x="1806" y="912.8" fill="#6FCCDA" width="264.5" height="5"/>
<ellipse fill="#D7CAAF" cx="1985.6" cy="870.6" rx="13.2" ry="7.9"/>
<rect x="976.9" y="966.6" fill="#3463AE" width="118.5" height="4.2"/>
<rect x="1371.4" y="966.6" fill="#3463AE" width="110" height="4.2"/>
<rect x="976.9" y="989.3" fill="#3463AE" width="118.5" height="4.2"/>
<rect x="1371.4" y="989.3" fill="#3463AE" width="110" height="4.2"/>
<rect x="1371.4" y="1011.9" fill="#3463AE" width="110" height="4.199"/>
<rect x="976.9" y="1011.9" fill="#3463AE" width="118.5" height="4.199"/>
<rect x="1371.4" y="1034.5" fill="#3463AE" width="110" height="4.2"/>
<rect x="976.9" y="1034.5" fill="#3463AE" width="118.5" height="4.2"/>
<rect x="976.9" y="1057.1" fill="#3463AE" width="118.5" height="4.2"/>
<rect x="1371.4" y="1057.1" fill="#3463AE" width="110" height="4.2"/>
<rect x="976.9" y="1079.8" fill="#3463AE" width="118.5" height="4.2"/>
<rect x="1371.4" y="1079.8" fill="#3463AE" width="110" height="4.2"/>
<rect x="1371.4" y="1102.4" fill="#3463AE" width="110" height="4.199"/>
<rect x="976.9" y="1102.4" fill="#3463AE" width="118.5" height="4.199"/>
<rect x="976.9" y="1125" fill="#3463AE" width="118.5" height="4.2"/>
<rect x="1371.4" y="1125" fill="#3463AE" width="110" height="4.2"/>
<rect x="1371.4" y="1147.6" fill="#3463AE" width="110" height="4.2"/>
<rect x="976.9" y="1147.6" fill="#3463AE" width="118.5" height="4.2"/>
<rect x="976.9" y="1170.2" fill="#3463AE" width="118.5" height="4.2"/>
<rect x="1371.4" y="1170.2" fill="#3463AE" width="110" height="4.2"/>
<rect x="976.9" y="1192.9" fill="#3463AE" width="504.5" height="4.199"/>
<rect x="976.9" y="1213.9" fill="#3463AE" width="505" height="4.199"/>
<rect x="976.9" y="942.3" fill="#3463AE" width="118.5" height="4.2"/>
<rect x="1371.4" y="942.3" fill="#3463AE" width="109.899" height="4.2"/>
<rect x="976.9" y="918.9" fill="#3463AE" width="504.6" height="4.199"/>
<path fill="none" stroke="#54483E" stroke-width="0.5" stroke-linecap="round" stroke-miterlimit="10" d="M374.9,898.4"/>
<path fill="none" stroke="#54483E" stroke-width="0.5" stroke-linecap="round" stroke-miterlimit="10" d="M374.9,898.4"/>
<path fill="#0E103B" d="M103.5,795"/>
<g>
	<path fill="none" stroke="#988F86" stroke-width="0.25" stroke-miterlimit="10" d="M1436.7,878.1"/>
	<path fill="none" stroke="#988F86" stroke-width="0.25" stroke-miterlimit="10" d="M933.8,878.1"/>
	<path fill="none" stroke="#988F86" stroke-width="0.25" stroke-miterlimit="10" d="M1436.7,889"/>
	<path fill="none" stroke="#988F86" stroke-width="0.25" stroke-miterlimit="10" d="M933.8,889"/>
</g>
<g>
	
		<rect x="947.368" y="835.09" transform="matrix(-0.8193 0.5733 -0.5733 -0.8193 2226.791 981.0942)" fill="#F4F4F4" width="22.901" height="12.601"/>
	
		<rect x="943.747" y="838.102" transform="matrix(-0.8193 0.5733 -0.5733 -0.8193 2209.7783 1003.0526)" fill="#F4F4F4" width="6.2" height="23.201"/>
	
		<rect x="967.547" y="821.419" transform="matrix(-0.8194 0.5732 -0.5732 -0.8194 2243.4973 959.2206)" fill="#F4F4F4" width="6.2" height="23.201"/>
	<path fill="#F4F4F4" d="M985.1,823.9c0.2,0.399,0.2,0.8-0.199,1.1l-50.4,35.3c-0.4,0.2-0.8,0.2-1.1-0.2l0,0
		c-0.2-0.399-0.2-0.8,0.199-1.1l50.4-35.3C984.4,823.4,984.9,823.5,985.1,823.9L985.1,823.9z"/>
</g>
<g>
	<g id="Your_Icon_4_">
		<path fill="#5B3839" d="M211.4,791.4c0.4-1.5,0.3-1.101,1.5-1.601c1.1-0.5,4.8-0.2,6.3,0.101c1.5,0.3,3.2-0.801,5-0.7
			c1.8,0.1,16.3-1.101,22-1.5c5.7-0.4,12.1-0.3,13.5-1.7c1.4-1.4,5.2-2.2,7-2.9c1.8-0.699,5.1-1,7.9-5.1c2.8-4.2,1-7.5,0.4-11.1
			c-0.6-3.601-2.1-3.601-4.9-2.101c-2.8,1.5-3.8,5.4-4.4,7c-0.7,1.5-5,2.9-5,2.9s-7.9,1.6-11.2,1.6s-5.3,0-5.3,0
			c-1.1,0.101-4.7-0.399-7.2-0.7c-2.5-0.3-14.3-1.3-17.4-1.8c-3.1-0.6-6.1-1.899-8.2-2.8c-2.1-0.8-4.7-2.6-5.6-3.8"/>
	</g>
</g>
<g>
	<g id="Your_Icon_7_">
		<path fill="#5B3839" d="M209.8,779.1c0.1-1.399,0-1,0.9-1.699c0.9-0.601,4.1-1.101,5.5-1.101c1.4-0.1,2.6-1.3,4.2-1.6
			c1.6-0.2,13.7-4.101,18.6-5.601c4.8-1.5,10.3-2.6,11.2-4c0.9-1.5,4-2.899,5.4-3.8c1.4-0.899,4.2-1.8,5.8-5.899
			c1.6-4.101-0.6-6.601-1.8-9.601c-1.2-3-2.5-2.7-4.6-0.8c-2.1,1.8-2.2,5.4-2.5,6.8c-0.3,1.4-3.7,3.5-3.7,3.5s-6.5,2.9-9.3,3.601
			c-2.8,0.6-4.6,1.1-4.6,1.1c-0.9,0.3-4.1,0.6-6.3,0.8c-2.2,0.2-12.5,1.7-15.3,1.8c-2.7,0.101-5.6-0.5-7.6-0.8
			c-1.9-0.3-4.6-1.399-5.5-2.1"/>
	</g>
</g>
<path id="dog-body_1_" fill="#5B3839" d="M140.7,880.3c5.7,1.3,23,1.3,23,1.3h13.6h28.2c0-11.199-8.8-7.1-8.8-7.1
	c5.7-7.3,17.3-35.3-12.4-37.3c0,0,1.8-4.3,3.6-6.5c10.5-12.9,45.4-18.9,35.5-60.4c-2.4-10-19.4-22.7-7.5-27.7
	c3.1-1.3,10.2-9.6,10.4-10.6c0.2-1,1.5-3.3,2.1-3.7c1-0.7,1.5-1.2,2.3-3.399c0.8-2.2,0-7.2-0.5-9.101
	c-0.5-1.899-1.9-2.899-1.9-2.899s0.9-0.2-0.7-2.9c-1.4-2.5-4.3-0.8-5.2-0.5c-0.9,0.2-6.3,3.2-10.7,5.8c-4.4,2.601-6.1,0.101-7.9-0.5
	c-1.8-0.6-4.5-1.5-7.5,0c-1.7,0.8-4.8,2.3-8,4.5c-0.3,0-0.7,0.101-1,0.2c-1.3,0.4-2.4,0.4-5.1,2.8c-2.5,2.3-3.4,6.4-3.2,7.601l0,0
	c-1.7,5.399-3.3,10.1-3.3,12.5c0,3,2.2,4.6,1.2,12.1s-1.9,11.3-4.1,16.1c-12.4,25.2-21.1,53.4-28.6,70.9
	c-8.1,18.9-0.4,31.5-0.4,31.5"/>
<g>
	<path fill="#998462" d="M269.1,751.7c0.9,5.5-4,10.5-11,11.2c-7,0.699-13.4-3.101-14.3-8.601c-0.9-5.5,4-10.5,11-11.2
		C261.7,742.3,268.1,746.2,269.1,751.7z"/>
	<path fill="#FFFFFF" d="M263,770.9c-0.6,3.699-4.8,6.3-9.6,5.899l-0.9-0.1c-4.7-0.4-8.1-3.8-7.6-7.5l2.6-17.4
		c0.6-3.7,4.8-6.3,9.6-5.899l0.9,0.1c4.7,0.4,8.1,3.8,7.6,7.5L263,770.9z"/>
	<path fill="#AA9268" d="M266.5,766.2c0.9,5.5-4,10.5-11,11.2c-7,0.699-13.4-3.101-14.3-8.601c-0.9-5.5,4-10.5,11-11.2
		C259.1,756.9,265.6,760.8,266.5,766.2z"/>
	<path fill="#A08C6B" d="M253.3,783.4c-0.1,0.699-1.3,1.3-2.7,1.1l0,0c-1.4-0.1-2.5-0.8-2.4-1.5l2.4-16c0.1-0.7,1.3-1.3,2.7-1.1
		h-0.2c1.4,0.1,2.5,0.8,2.4,1.5L253.3,783.4z"/>
</g>
<path fill="#EADCBE" d="M916.3,637l8.2,7.1l20.1-25.899c0,0,5.5-9.2,7.4-13c1.9-3.9,9.3-4.2,11.3-7.601c1.9-3.399,3.4,2.5-0.7,4.7
	c-3,1.601-1.699,3.101-1.699,3.101s2.199-0.801,6.399-2c0.5-0.101,3.3,0.8-1.2,3c-0.199,0.1,2.9-1.101,2.601,0.899
	c-0.2,1.5-3.601,2.3-3.9,2.601c-0.399,0.5,3-1.9,3.101,0.3c0,1.6-5.301,2.6-4.7,2.8c0.2,0.1,2.1-1.2,2.399,0.6
	c0.2,1.301-7.6,4.2-8,4.4c-2.699,1.2-5.5,2.9-5.5,2.9S937.9,643.8,935.5,647.2c-2.4,3.399-11.8,15.7-14,13.7
	c-2.2-1.9-8.9-8.7-8.9-8.7v-12.3L916.3,637z">
<animateTransform  fill="remove" type="rotate" restart="always" calcMode="linear" additive="replace" accumulate="none" repeatDur="indefinite" dur="2s" values="0 916.3 637; 6 916.3 637; 0 916.3 637" attributeName="transform" attributeType="XML">
		</animateTransform>
</path>
<path fill="#6FCCDA" d="M887.2,679.8c-2-10.5-2-36-18.601-41.2c-9.199-2.899,0-31.399,0-31.399s23.9,21.6,29.801,18.3
	c2.8-1.5-14-14.4-15.7-17.8c-0.3-0.5,0.7-0.8,0.7-0.8c7.5,9.399,22.3,21,29.199,25.3c8.7,5.3,7,16.399-0.199,20.5
	c-0.301,0.2,4.399,21.1,4.899,28.7"/>
<path fill="#EADCBE" d="M893.2,576.5c0,0,1,2.3,1,6.9c0,4.699-0.101,4.5,0.899,6.1s4,3.5,3.101,4.8c-1,1.3-2.4,1.3-2.4,2.101
	c0,0.8,0.9,2.199,0,2.699c-0.899,0.5-2.7,0.7-2.2,1.301c0.5,0.6,1.5,0.8,1.301,1.3c-0.2,0.399-0.801,0.7-0.801,1.7s1,4.1-0.6,4.1
	s-5.5-0.6-7.4-0.8c-1.8-0.2-4.3-0.2-4.1,2.2c0.2,2.399-13.8,0.1-13.8-1.801c0-5.399,1.5-8.3,0.3-17c-1.2-8.699,8.7-17.8,8.7-17.8
	l9.399,2.4L893.2,576.5z"/>
<path fill="#3E2B2F" d="M919.8,853.4c0,0,2.7,1.6,0.8,4.199c-2.1,3-7.6,2.101-16.899,2.5c-9.3,0.301-26.5,0.2-29.601,0
	C869.9,859.9,870,857.2,869.7,854.9c-0.3-2.9,0.3-6.4,0.3-6.4s0.4,4.2,4,4.6c3.6,0.4,26.3,3.7,28.2,0.4c1.899-3.3-0.2-4.2,2.2-4.2
	C913.6,849.7,919.8,853.4,919.8,853.4z"/>
<path fill="#3E2B2F" d="M872.1,592.6c0-0.8,4.101-4.699,6.2,0.7c0.5,1.2,0.4,3.9,0.4,3.9s1.5-1.8,1.5-4.4c0-2.7,1.1-3.8,3.2-5
	c0.5-0.3-13.2-2.399-13.2-2.399S872.1,594.5,872.1,592.6z"/>
<path fill="#FCC87A" d="M864.9,640.8"/>
<path fill="#6FCCDA" d="M886.9,685.5"/>
<path id="girl-hair" fill="#3E2B2F" d="M875,572.7c-13.8,6.3-8.9,12.5-18,14.5s-13-1-24.2-5.8c-11.2-4.801-23.8-3.101-29.1,6.399
	s-14.8,5.5-18.101,11.2c-4.6,7.9-4.899,22.4,14.301,23.7c13.1,0.899,13.399-10,27.699-4.9c10.101,3.601,23.2,4,29.601-9.3
	c6.399-13.3,15-2.4,14.899-12.1c-0.1-4.9-0.6-5.801,8.801-7.301c0.1,0,3.3-0.6,4.199-4c0.5-2-0.3-4.199-0.3-4.1
	c3,2.2,2.101,6.4,2.101,6.4c6.3,0.2,8.199-2.8,8.199-2.8s0.7-5.601-3.1-10C888.8,570.9,881.6,569.6,875,572.7z">
<animate  fill="remove" restart="always" calcMode="linear" additive="replace" accumulate="none" repeatDur="indefinite" dur="2s" values="M875,572.7c-13.8,6.3-8.9,12.5-18,14.5c-9.1,2-13-1-24.2-5.8c-11.2-4.8-23.8-3.1-29.1,6.4  c-5.3,9.5-14.8,5.5-18.1,11.2c-4.6,7.9-4.9,22.4,14.3,23.7c13.1,0.9,13.4-10,27.7-4.9c10.1,3.6,23.2,4,29.6-9.3  c6.4-13.3,15-2.4,14.9-12.1c-0.1-4.9-0.6-5.8,8.8-7.3c0.1,0,3.3-0.6,4.2-4c0.5-2-0.3-4.2-0.3-4.1c3,2.2,2.1,6.4,2.1,6.4  c6.3,0.2,8.2-2.8,8.2-2.8s0.7-5.6-3.1-10C888.8,570.9,881.6,569.6,875,572.7z;                                                    M875.1,572.8c-13.8,6.3-8.9,12.5-18,14.4c-9.1,2-14.2-16.1-24.1-5.8  c-8.4,8.8-20.7-9.7-29,6.4c-7.5,14.4-7.9,2.2-17.9,6.1c-8.4,3.4-12,34.8,14.1,28.6c12.6-3,16.5,5.3,27.6-4.9  c10.7-9.8,23.1,4,29.5-9.3c6.4-13.3,15-2.4,14.8-12.1c-0.1-4.9-0.6-5.8,8.7-7.3c0.1,0,3.3-0.6,4.2-4c0.5-2-0.3-4.2-0.3-4.1  c3,2.2,2.1,6.4,2.1,6.4c6.2,0.2,8.2-2.8,8.2-2.8s0.7-5.5-3.1-9.9C888.8,571,881.7,569.7,875.1,572.8z;                                                   M875.1,572.8c-13.8,6.3-9,12-18,14.5c-12.5,3.4-15.8-11.5-24.2-5.8  c-14.8,9.9-19.8-9-29.1,6.4c-5.6,9.3-8.5,6.2-18.1,11.2c-9.8,5.2-1.9,31.1,14.3,23.7c14.6-6.7,16.9-3.6,27.7-4.9  c8.6-1.1,20.6,7.1,29.6-9.3c7.1-13,15-2.4,14.9-12.1c-0.1-4.9-0.6-5.8,8.8-7.3c0.1,0,3.3-0.6,4.2-4c0.5-2-0.3-4.2-0.3-4.1  c3,2.2,2.1,6.4,2.1,6.4c6.3,0.2,8.2-2.8,8.2-2.8s0.7-5.6-3.2-10C888.9,571,881.7,569.7,875.1,572.8z;                                                         M875.1,572.8c-13.8,6.3-8.9,12.5-18,14.4c-9.1,2-14.2-16.1-24.1-5.8  c-8.4,8.8-20.7-9.7-29,6.4c-7.5,14.4-7.9,2.2-17.9,6.1c-8.4,3.4-12,34.8,14.1,28.6c12.6-3,16.5,5.3,27.6-4.9  c10.7-9.8,23.1,4,29.5-9.3c6.4-13.3,15-2.4,14.8-12.1c-0.1-4.9-0.6-5.8,8.7-7.3c0.1,0,3.3-0.6,4.2-4c0.5-2-0.3-4.2-0.3-4.1  c3,2.2,2.1,6.4,2.1,6.4c6.2,0.2,8.2-2.8,8.2-2.8s0.7-5.5-3.1-9.9C888.8,571,881.7,569.7,875.1,572.8z;                                                    M875,572.7c-13.8,6.3-8.9,12.5-18,14.5c-9.1,2-13-1-24.2-5.8c-11.2-4.8-23.8-3.1-29.1,6.4  c-5.3,9.5-14.8,5.5-18.1,11.2c-4.6,7.9-4.9,22.4,14.3,23.7c13.1,0.9,13.4-10,27.7-4.9c10.1,3.6,23.2,4,29.6-9.3  c6.4-13.3,15-2.4,14.9-12.1c-0.1-4.9-0.6-5.8,8.8-7.3c0.1,0,3.3-0.6,4.2-4c0.5-2-0.3-4.2-0.3-4.1c3,2.2,2.1,6.4,2.1,6.4  c6.3,0.2,8.2-2.8,8.2-2.8s0.7-5.6-3.1-10C888.8,570.9,881.6,569.6,875,572.7z" attributeName="d" attributeType="XML">
		</animate>
</path>
<g id="fail-kite">
	<g>
		<g>
			<path fill="none" stroke="#FFFFFF" stroke-width="4" stroke-linecap="round" stroke-miterlimit="10" d="M2123,671.6
				c0,0,12.8,12.601,7.7,32c-5,19.4-15,24.801-3,47.301"/>
			<path fill="none" stroke="#FCEE22" stroke-width="4" stroke-linecap="round" stroke-miterlimit="10" d="M2122.9,671.7
				c0,0,14.699,9.5,12.699,29.399c-2,19.9-6.399,28,3.801,47.101"/>
		</g>
		<path fill="#FFFFFF" d="M2072.9,644.9c0,0,1.3-7.801,7-18.2c4.399-8.101,9.899-16.101,9.899-16.101l38.601,11.9l-2.4,48.8
			l-4,2.101L2072.9,644.9z"/>
	</g>
	<path id="fail-kite-string" fill="none" stroke="#FFFFFF" stroke-width="2" stroke-miterlimit="10" d="M1611.4,628.4
		c42.5-0.7,281.399,10.899,490.899,6"/>
	
		<animateTransform  fill="remove" type="rotate" restart="always" calcMode="linear" additive="replace" accumulate="none" repeatDur="indefinite" dur="4s" values="0 1611.4 628.4; -12 1611.4 628.4; -25 1611.4 628.4; -10 1611.4 628.4; 0 1611.4 628.4; 0 1611.4 628.4; 0 1611.4 628.4" attributeName="transform" attributeType="XML">
		</animateTransform>
</g>
<path fill="none" stroke="#FFFFFF" stroke-width="2" stroke-miterlimit="10" d="M1618.3,845.9c0,0,28.4-49.601-11.5-92.601
	c-39.899-43-57-32.899-58.6-61.899c-1.5-29.101,18.7-27.101,24.7-29.101c5.8-1.899-0.7-18.6,28.3-31.8"/>
<path fill="#EADCBE" d="M2162.4,680.3c-7.9,5.4-11.2,9.8-4.2,13.3c0.8,0.4-1.101,45.301,0.399,48.9s1.7,24.6,9.301,40.1
	c7.6,15.601,13,23.7,13,28.5c-0.2,10.5,8.3,19.101,8.3,19.101s17.8,58.899,12,66.399c-3.3,4.301-23.101,4.301-8.3,8.5
	c13.6,3.9,13.899,6.301,26.699,3.5c2.9-0.699-1.5-9.3-1.5-9.3s-6.5-24.1-5.1-49.7c1-18-5.5-28.8-7.7-32
	c-3.399-4.8-4.601-13.899-5.5-19.399c-1.601-10.8-4.7-33.8-4.7-33.8s0.801-6.9,2.4-15.101c2.199-11.7-11.301-21.6-11.301-21.6
	s-10.6-34.101,11.7-47.3c7.8-4.601,3.5-28.101,3.5-28.101s-10.7-11.399-14.2,0.4C2183.3,666.3,2168.7,676,2162.4,680.3z"/>
<path fill="#5A479D" d="M2187.1,716.5c1.4-10,0.801-23.2,15.601-39.4c7.5-8.199-1.5-29.6-1.5-29.6s-10.8-11.5-14.3,0.4
	c-4.101,13.8-24.301,24-30.601,28.3c-8,5.399-5.899,15.7,1.101,19.3c0.3,0.2-1.601,15.3-1.7,22.4"/>
<path fill="#EADCBE" d="M2176.6,619.7c0,0-0.8,2.2-0.6,6.6c0.2,4.4,0.3,4.2-0.6,5.8c-0.9,1.601-3.601,3.5-2.7,4.7
	c1,1.2,2.399,1.101,2.399,1.9c0,0.7-0.699,2.1,0.101,2.6c0.8,0.4,2.6,0.5,2.2,1.101c-0.4,0.6-1.4,0.899-1.2,1.3
	c0.2,0.399,0.8,0.6,0.8,1.6c0,0.9-0.7,3.9,0.8,3.9c1.5-0.101,5.2-0.8,6.9-1.101c1.7-0.199,4-0.399,3.899,1.9
	c-0.1,2.3,12.2,6.2,12.9,2.3c0.699-3.899-1.801-12.399-1-20.7c0.699-8.199-9-16.399-9-16.399l-8.7,2.7L2176.6,619.7z"/>
<path fill="#0E103B" d="M2175.6,615.8c0,0,1-3.6,5.4-6c3.9-2.1,22.9-12.2,27.4,7.4c3.699,16.1-13.4,25.3,0,34.7
	c5.3,3.699,12.1,1.5,12.1,1.5s-5.6,9.8-15.7,7.3c-10.1-2.5-15.6-12.2-9.2-23.601c2.9-5.199,4.101-9.1-2.5-8.1
	c-6.6,1-12.199-1.9-15.1-6.8C2175,617.5,2175.6,615.8,2175.6,615.8z"/>
<path fill="#EADCBE" d="M2159.1,731.5c-0.1,3.9-5.8,24.7-11.6,39.5c-6.1,15.3-10.9,22.4-11.3,27.1c-0.4,4.7,0.899,14,0.899,14
	s10.4,64.4,2,68.9c-4.699,2.5-11.199-0.6-23.3-0.4c-2.2,0-4.2-3.899-5.8-1.5c-2.2,3.301-0.101,4.5,13.199,9.2
	c13.301,4.7,24,10.3,28.101,7.4c2.399-1.8,2.5-9.101,2.5-9.101s0.7-23.199,5.899-42.1c4.9-17.7-2-28.5-2.699-32.3
	c-1.2-5.8,1.8-9.7,6.6-16c5.7-7.5,23.9-26.4,23.9-26.4s0.8-4.7,4.3-16s-4.2-23.3-4.2-23.3"/>
<path fill="#5A479D" d="M2108.3,878.6c0,0-2.8,0.7-1.899,3.601c1.1,3.3,6.199,4,14.6,6.8c8.301,2.8,23.9,7.4,26.7,8.1
	c3.8,0.9,4.5-1.399,5.399-3.5c1.101-2.5,1.5-5.899,1.5-5.899s-1.5,3.7-4.899,3.1c-3.399-0.7-24.8-3.8-25.601-7.4
	c-0.8-3.5,1.301-3.8-0.8-4.399C2115,876.9,2108.3,878.6,2108.3,878.6z"/>
<path fill="#6AC2CC" d="M2148.9,765.8c0,0,0.5-11.8,3.899-24.2c3.3-12.399,4.8-18,4.8-18l14.4,7.101l-5.301,37.5
	c0,0-7.6,0-11.699-0.601C2151.2,766.9,2148.9,765.8,2148.9,765.8z"/>
<path fill="#6FCCDA" d="M2157.6,723.5c0,6.8,0.101,12.5,0.7,13.8c1.3,3.101,1.601,18.3,6.101,32.5l32.3-3.399
	c-0.601-4-0.899-6.601-0.899-6.601s3.899-3.5,2.399-15.5c-1.399-12.1-11.601-22.1-11.601-22.1"/>
<path id="fail-girl-hand-left" fill="#EADCBE" d="M2191.7,675.1c-0.8-4-4.8-7.1-8.8-6.3L2149.3,676.9l0.2,0.199l-13.601,3.5
	l-31.5-22.699c0,0-7.1-7.101-9.8-10.2c-2.7-3.101-9.5-1.7-12.1-4.4c-2.5-2.6-2.601,3.101,1.699,4.2c3.101,0.8,2.301,2.5,2.301,2.5
	s-2.2-0.3-6.4-0.4c-0.5,0-2.8,1.5,1.8,2.4c0.2,0-2.899-0.4-2.2,1.5c0.601,1.3,3.9,1.2,4.101,1.4c0.5,0.399-3.2-1.101-2.8,1
	c0.3,1.399,5.399,1.199,5,1.5c-0.101,0.1-2.2-0.601-2,1.1c0.1,1.3,7.899,2.1,8.399,2.2c2.7,0.5,5.7,1.399,5.7,1.399
	s18.3,17.7,21.3,20.2s13.2,9.601,15.9,9.4c5.7-0.5,11.2-1.101,15.399-1.7h0.101l35.399-5.2C2190.4,683.8,2192.5,679.1,2191.7,675.1z
	">
<animateTransform  fill="remove" type="rotate" restart="always" calcMode="linear" additive="replace" accumulate="none" repeatDur="indefinite" dur="4s" values="0 2191.7 675.1; 20 2191.7 675.1; 20 2191.7 675.1; 20 2191.7 675.1; 20 2191.7 675.1; 20 2191.7 675.1; 0 2191.7 675.1; 0 2191.7 675.1; 0 2191.7 675.1; 0 2191.7 675.1" attributeName="transform" attributeType="XML">
		</animateTransform>
</path>
<path fill="#0E103B" d="M2221.1,612.5c1.7,3.3,0.301,7.4-3,9.1l-4.6,2.301c-2,1.199-7.8,12.699,0.2,22.199c0.6,0.801-8.9,0-8-16.3
	c0.399-6.399-0.601-7.6-1.3-8.899l0,0c-1.7-3.301-4.301-11.2,2.6-8.2l5-3.2C2215.3,607.8,2219.4,609.1,2221.1,612.5L2221.1,612.5z"
	/>
<polyline fill="#0E103B" points="2209.4,605.5 2211.4,603.8 2211.5,606.4 2206.6,615.1 "/>
<path fill="#5A479D" d="M2175,898.2c0,0-2.8,0.8-1.7,3.7c1.3,3.3,6.4,3.699,14.9,6.1s24.2,6.2,27.1,6.7c3.9,0.7,4.4-1.7,5.2-3.8
	c0.9-2.601,0-6.601,0-6.601s-0.1,4.5-3.5,4s-19.3-2.399-21.4-5.3c-2.8-4,4-4,1.801-4.5C2189,896.7,2175,898.2,2175,898.2z"/>
<g>
	<rect x="1606.8" y="842.8" fill="#F4F4F4" width="22.9" height="12.601"/>
	<rect x="1600.7" y="837.5" fill="#F4F4F4" width="6.2" height="23.2"/>
	<rect x="1629.8" y="837.5" fill="#F4F4F4" width="6.2" height="23.2"/>
	<path fill="#F4F4F4" d="M1650,849.9c0,0.399-0.4,0.8-0.8,0.8h-61.5c-0.4,0-0.8-0.4-0.8-0.8l0,0c0-0.4,0.399-0.801,0.8-0.801h61.5
		C1649.6,849.1,1650,849.4,1650,849.9L1650,849.9z"/>
</g>
<g>
	<path fill="#9B8D7B" d="M1536.2,776.5c-0.3,1.5,0.8,4.1,0.5,7.4c-0.7,6.899-2.9,8.199-3.5,9.8c-9.601,26.3-15.5,46.3-6.3,51.1
		c6.399,3.4,10.3,9.601,13.399,8.7c2-0.6-17.8,0.4-23.2,1.9c-7.1,1.899-12.1,0.5-9.3-8.9c2.601-8.6,4.601-14.9,6.101-21.8
		c3.199-15.4,1.199-18.601,1.1-25.9c-0.1-10.1,4.1-14.8,4.7-19.5c0.3-2.1,0.199-9.7-0.4-11.2c-2-5.8,0.7-18.899,0.1-24.199"/>
</g>
<g>
	<path fill="#B7A68A" d="M1547,776c-0.2,1.6,1.2,4,1.2,7.3c0,6.9-2.101,8.4-2.5,10.101c-7,27.199-10.9,47.6-1.3,51.5
		c6.699,2.699-3.601,9.5-8.801,11.5c-6.899,2.6-12,1.699-10.1-8c1.7-8.9,3.1-15.301,3.9-22.2c1.699-15.601-0.601-18.601-1.4-25.9
		c-1.1-10.1,2.6-15.1,2.8-19.899c0.101-2.101-0.8-9.7-1.5-11.101c-2.5-5.6-1.2-18.899-2.3-24.1"/>
</g>
<path fill="#2B589A" d="M1504.9,712.1c0,0-0.101,12.9,0.399,16.601c2.101,17.3,11.9,25.8,11.9,25.8c0.7,4.7-2.101,27.1-2.101,27.1
	l23-2.199L1533.7,699.3l-18.7,4.3L1504.9,712.1z"/>
<path fill="#3765B0" d="M1527.2,777l-3.2-27.5c0,0-9.2-0.2-14.4-7.6c-12.3-17.601-1.5-39.5-1.5-39.5l39.101,1.3l5.899,73L1527.2,777
	z"/>
<g>
	<path fill="#EADCBE" d="M1558.4,589.1c0,0-0.5,5.101,1.5,8.301c1.399,2.3,1.6,3.399,0.6,3.6c-1,0.1-2.1,0-2.1,0s-0.4,1.2,0,2
		c0.399,0.8,1.399,1.6,0.699,1.7c-0.699,0.2-3.3,0.8-2,1.6c1.301,0.8,1.2,1.2,0.601,1.7c-0.7,0.5-0.3,2.6-0.3,3.8
		s-0.801,4.2-4.101,3.4c-3.399-0.8-4.3-2-5.1-0.4c-0.8,1.601-3.2,14.601-3.2,14.601s-29.3-0.301-24.8-2.601
		c11.7-6,11.399-17.3,12-19.6c0.6-2.2-5.601-11.7-3.101-13.7s7.5-6,12.5-8.9C1559.1,574.7,1558.4,589.1,1558.4,589.1z"/>
</g>
<path fill="#230F14" d="M1539.2,595.2c0.399-4.3,1.3-6.4,4.3-6.601c1.3-0.1,7,0.5,9-0.1c3.6-1.1,3.9-2.9,4-2.7
	c0,0.5-1.2,1.9-2.2,2.7c-1.6,1.2-4,1.3-3.8,1.5c0.6,0.5,2.5,0.8,3.2,0.7c8.2-0.8,7.899-10.601,4.3-12.8c-14.2-8.5-26.2-4.5-31.2,2.3
	c-1.899,2.6-3.2,3.399-3.2,12.399c0,10.2,7.801,19.2,7.801,19.2s3.399-6.6,0.899-9.6c-3.399-4.2-2.899-6.8-1.6-8.6
	c0.6-0.801,2.7-2,4.8-0.101c1.601,1.4,0.801,4.4,0.801,4.4l2.8,0.6C1539.2,598.5,1539.1,596.3,1539.2,595.2z"/>
<path fill="#EADCBE" d="M1515.2,693.5c7.1-0.9,8.2-0.4,13.5-2.4c7.5-2.899,11.399-4.199,11.399-4.899c-0.1-4.2,2.9-3,3.7-7
	c0.8-3.5,3-2.9,3,0c0.101,2.899-1.7,3.2-1.2,4.3c0.2,0.6,1.4-0.1,1.4-0.1l11-3.801l2.6-1.6c0,0,1.101-0.2,1.301,0.7
	c0.199,0.8-1.9,2.5-3.101,3.2c-0.7,0.399-1.5,0.8-2.1,1.1c-0.601,0.3-0.9,0.5-0.9,0.5s0.601-0.1,1.4-0.3c0.5-0.101,1-0.3,1.5-0.601
	c1.5-0.699,3.3-2.8,3.8-1.6c0.9,2-3.8,4.3-3.8,4.3l-3.3,1.5l3.6-1.1c0,0,3.1-2.3,3.5-1.9c1.5,1.4-1.8,3.3-3.6,4.3
	c-1.5,0.801-3.2,1.2-3.2,1.2s2-0.5,2.5-0.6c0.399-0.101,1.5-0.9,2.1-1c1.4-0.3,1.7,1-0.3,2.1c-0.1,0.101-0.7,0.5-1.2,0.8
	c-0.899,0.4-2,0.9-2,0.9s-8.2,3.6-9.8,4.2c-3.3,1.1-4.1-0.2-4.1-0.2l-1,0.3c0,0-26.301,13.8-30.7,15.2"/>
<path fill="#6FCCDA" d="M1555.8,653.6c1.3-13.1-4-30.699-14.7-32.6c-53-9.2-50.399,91-42.899,97.5c2.1,1.8,5.2-1.3,7.5-3.1
	c9.3-7.4,25-14.9,37.2-0.2c2.699,3.2,4.899,2.8,4.899,2.8c4.601-3.6,0.7-10.2,0.101-19.2C1547.2,686,1555,661.8,1555.8,653.6z"/>
<path fill="#FFFFFF" d="M1606.1,627.9c0,0,9.2-1.801,12.601-1.7c3.5,0.1,1,1.7,1,1.7s-3.601,0.3-8.3,0.699c-4.7,0.4-6.9,0.9-6.9,0.9
	l0.9-1.6"/>
<g>
	<path fill="#FFFFFF" d="M1508.7,842.4c0,0-3.3,2.8-3.7,6.399c-0.4,3.101-0.9,6.9-0.9,6.9l0,0c0,0,27.5,4.6,38.5,3.899
		c0.7,0,0.7-1.1,0.5-1.8c-0.1-0.399-0.699-0.6-1.6-1c-3-1.3-9.9-4.6-11.8-7.7c-2.4-4-2.4-4-2.4-4s-2.899,2.301-7.899,1.601
		C1514.6,846.1,1508.7,842.4,1508.7,842.4z"/>
	<path fill="#2665B0" d="M1527.6,846.1c0,0-0.699,0.301-3.199,2.101c-1,0.7-1.101,1.2-0.801,1.7c0.5,1,1.801,0.399,3.7-0.801
		c1.3-0.899,1.4-1.1,1.4-1.1L1527.6,846.1z"/>
	<path fill="#2665B0" d="M1529.9,849.9c0,0-0.5,0.199-2.601,1.699c-0.8,0.601-0.899,1-0.7,1.4c0.4,0.8,1.5,0.3,3.101-0.7
		c1.1-0.7,1.5-1,1.5-1.1C1530.7,850.9,1529.9,849.9,1529.9,849.9z"/>
	<path fill="#2665B0" d="M1543.4,859.1L1543.4,859.1c-0.2,1.301-0.9,2.2-1.5,2.101l-36.801-4.7c-0.699-0.1-1.1-1.2-1-2.4l0,0"/>
</g>
<g>
	<path fill="#FFFFFF" d="M1526,844.4c0,0-3.3,3.6-3.3,7.699c0,3.601,0,7.9,0,7.9l0,0c0,0,31.6,1.2,43.899-1.2
		c0.801-0.2,0.7-1.3,0.301-2.1c-0.2-0.4-0.9-0.601-1.9-0.9c-3.6-1.1-11.8-3.7-14.3-7c-3.3-4.2-3.3-4.2-3.3-4.2s-3,3-8.601,3
		C1533.2,847.7,1526,844.4,1526,844.4z"/>
	<path fill="#2665B0" d="M1547.9,845.9c0,0-0.7,0.399-3.301,2.8c-1,0.899-1,1.5-0.699,2c0.699,1.1,2.1,0.2,4.1-1.5
		c1.4-1.2,1.4-1.4,1.4-1.4L1547.9,845.9z"/>
	<path fill="#2665B0" d="M1551,849.8c0,0-0.5,0.3-2.7,2.3c-0.899,0.801-0.8,1.301-0.6,1.7c0.6,0.9,1.7,0.2,3.399-1.2
		c1.101-1,1.601-1.399,1.5-1.399C1552,850.8,1551,849.8,1551,849.8z"/>
	<path fill="#2665B0" d="M1567.5,858.2L1567.5,858.2c0,1.399-0.6,2.6-1.4,2.6H1524c-0.8,0-1.4-1.2-1.4-2.6l0,0"/>
</g>
<g id="kite-white">
	<path fill="none" stroke="#FFFFFF" stroke-width="2" stroke-miterlimit="10" d="M960.9,605.4c0,0,683.6-63.9,923.1-330.9"/>
	<g>
		<path fill="#EEE83B" d="M1770.6,302.4c-0.899-0.5-1.399-1.6-1.1-2.6c0.3-0.8,6.5-20.2,26-27.9c21.2-8.4,31.9,0.7,42.1,9.4
			c3.2,2.7,6.601,5.6,10.2,7.9c5,3.1,9.9,4.1,14.7,2.9c9.5-2.3,15.6-12.4,15.7-12.5c0.6-1,2-1.4,3-0.8c1,0.6,1.399,2,0.8,3
			c-0.3,0.5-7,11.7-18.4,14.5c-6,1.5-12.1,0.3-18.1-3.5c-3.9-2.5-7.4-5.4-10.7-8.2c-10.1-8.6-18.899-16-37.7-8.6
			c-17.6,6.9-23.399,24.9-23.399,25.1c-0.4,1.2-1.601,1.8-2.7,1.4C1770.8,302.5,1770.7,302.4,1770.6,302.4z"/>
		<g>
			<path fill="#6FCBD9" d="M1865.3,286.2c-0.899-0.1-1.1-1.2-0.7-1.8l5.601-7.4c0.399-0.6,1.5-0.9,2,0.1c1.2,2.3,3.7,8.7,3.7,8.7
				l0.8,1.9C1876.6,287.6,1868,286.5,1865.3,286.2z"/>
			<path fill="#6FCBD9" d="M1885.4,287.1c0.899,0.1,1.199,1.2,0.699,1.7l-5.6,7.4c-0.4,0.6-1.5,0.9-2-0.1c-1.2-2.3-3.7-8.7-3.7-8.7
				l-0.8-1.9C1874.1,285.7,1882.6,286.7,1885.4,287.1z"/>
		</g>
		<g>
			<path fill="#6FCBD9" d="M1827.1,264.7c0-0.9,1.101-1.3,1.7-0.9l7.9,4.8c0.6,0.4,1,1.4,0.1,2c-2.2,1.4-8.3,4.5-8.3,4.5l-1.8,1
				C1826.8,276.1,1827,267.5,1827.1,264.7z"/>
			<path fill="#6FCBD9" d="M1828.2,284.9c0,0.9-1.101,1.3-1.7,0.9l-7.9-4.8c-0.6-0.4-1-1.4-0.1-2c2.2-1.4,8.3-4.5,8.3-4.5l1.8-1
				C1828.5,273.4,1828.3,282,1828.2,284.9z"/>
		</g>
		<g>
			<path fill="#6FCBD9" d="M1770.8,285.1c-0.899,0-1.3-1.1-0.899-1.7l4.8-7.9c0.399-0.6,1.399-1,2-0.1c1.399,2.2,4.5,8.2,4.5,8.2
				l1,1.8C1782.3,285.4,1773.7,285.2,1770.8,285.1z"/>
			<path fill="#6FCBD9" d="M1791,284c0.9,0,1.3,1.1,0.9,1.7l-4.801,7.9c-0.399,0.6-1.399,1-2,0.1c-1.399-2.2-4.5-8.2-4.5-8.2l-1-1.8
				C1779.6,283.7,1788.2,283.9,1791,284z"/>
		</g>
	</g>
	<path fill="#FFFFFF" d="M1882.1,281.7l71.5-49.7c0,0-1.399-15.9-6-29c-4-11.3-14.199-26.9-14.199-26.9s-13.2-2.5-34.5,4.5
		c-13.7,4.5-22.601,12-22.601,12l0,0l1.9,87.1"/>
	<circle fill="#6FCBD9" cx="1912.2" cy="217.7" r="21.5"/>
	
		<animateTransform  fill="remove" type="rotate" restart="always" calcMode="linear" additive="replace" accumulate="none" repeatDur="indefinite" dur="4s" values="-2 960.9 605.4;2 960.9 605.4;-2 960.9 605.4" attributeName="transform" attributeType="XML">
		</animateTransform>
</g>
<rect x="1794.31" y="153.414" transform="matrix(-0.894 -0.4481 0.4481 -0.894 3423.394 1303.6593)" fill="none" width="143.203" height="186.903"/>
<g id="kite-blue">
	<g>
		<g>
			<path fill="#FFFFFF" d="M851.8,399.5c-1.2-0.5-1.899-1.9-1.399-3.1c5.5-15.3,22.6-23.5,46.199-34.7l0.301-0.2
				c21.3-10.1,20-38.7,20-39c-0.101-1.4,1-2.5,2.3-2.6c1.399-0.1,2.5,1,2.6,2.3c0,0.3,0.4,8.1-2.1,17.4
				c-3.4,12.5-10.601,21.6-20.7,26.4l-0.3,0.2C876.1,376.9,859.8,384.7,855,398.1C854.6,399.3,853.2,400,851.8,399.5
				C851.9,399.5,851.9,399.5,851.8,399.5z"/>
			<path fill="#FCED20" d="M864,408.8c-1.1-0.399-1.7-1.6-1.5-2.8c3.1-16,18.7-26.6,40.4-41.4l0.3-0.2
				c19.6-13.3,13.8-41.3,13.8-41.6c-0.3-1.3,0.6-2.7,1.9-2.9c1.3-0.3,2.699,0.6,2.899,1.9c0.101,0.3,1.7,7.9,0.601,17.5
				c-1.5,12.8-7.101,22.9-16.4,29.3l-0.3,0.2C885,382.8,870,393,867.4,407c-0.301,1.3-1.601,2.2-2.9,2
				C864.3,408.9,864.2,408.9,864,408.8z"/>
		</g>
		<path fill="#6FCBD9" d="M904.5,251.3c0,0,8.7-5.1,23.6-8.1c11.601-2.3,23.9-3.5,23.9-3.5s10.9,10.8,16.3,19.3
			c7.9,12.5,15.2,24,15.2,24l-61.3,42l-5.3-2.1L904.5,251.3z"/>
	</g>
	
		<rect x="870.974" y="232.873" transform="matrix(-0.928 -0.3725 0.3725 -0.928 1644.0388 975.678)" fill="none" width="90.597" height="192.295"/>
	<path fill="none" stroke="#FFFFFF" stroke-width="2" stroke-miterlimit="10" d="M399.2,660c0,0-6.8-25.7,16.2-31.2
		c99-23.6,392.1-83.1,500.899-299.8"/>
	
		<animateTransform  fill="remove" type="rotate" restart="always" calcMode="linear" additive="replace" accumulate="none" repeatDur="indefinite" dur="4s" values="-3 399.2 660;3 399.2 660;-3 399.2 660" attributeName="transform" attributeType="XML">
		</animateTransform>
</g>
<path fill="none" stroke="#FFFFFF" stroke-width="2" stroke-miterlimit="10" d="M261.2,754.7c37.7-2.4,149.2-55.3,139.3-102.8"/>
<g id="kite-guy">
	<path fill="#232323" d="M300.6,729.6c0,0-0.1,12.801,0.4,16.5c2.1,17.301,11.8,25.7,11.8,25.7c2.2,15.101-23,97.101-23,97.101
		H310.4L327.3,808.8l1.8-91.899l-18.6,4.3L300.6,729.6z"/>
	<path fill="#232323" d="M350.1,871.5h-19.8l-1.1-58.7L319.6,770.9c0,0-9.1-0.2-14.3-7.601c-12.3-17.5-1.5-39.3-1.5-39.3l34.601-7.9
		l10.6,86.7L350.1,871.5z"/>
	<path fill="#EADCBE" d="M320.3,673.4c5.601,4.899,5,7.6,5.8,8.5c1.4,1.699,3,3.8,3,3.8s3.9-4.7,11.2-8.9c6.2-3.6,7.3-3.5,11.4-7.5
		c5.7-5.5,8.8-8.3,8.6-8.899c-1.7-3.801,1.5-3.801,0.7-7.9c-0.7-3.5,1.6-3.8,2.8-1.2c1.2,2.601-0.3,3.601,0.5,4.4
		c0.4,0.5,1.2-0.7,1.2-0.7l8.6-7.8l1.801-2.4c0,0,0.899-0.6,1.399,0.2c0.4,0.6-0.8,3.1-1.6,4.2c-0.5,0.7-1.101,1.3-1.5,1.8
		c-0.4,0.5-0.601,0.9-0.601,0.9s0.5-0.4,1.2-0.801c0.4-0.3,0.8-0.699,1.101-1.1c1.1-1.3,1.899-3.8,2.899-3
		c1.601,1.5-1.8,5.4-1.8,5.4l-2.4,2.699l2.9-2.399c0,0,2-3.3,2.5-3.101c1.9,0.7-0.3,3.7-1.6,5.4c-1.101,1.3-2.5,2.4-2.5,2.4
		s1.699-1.2,2.1-1.5c0.3-0.2,1-1.4,1.6-1.7c1.2-0.8,2,0.3,0.601,2.1c-0.101,0.101-0.4,0.8-0.8,1.2c-0.7,0.8-1.5,1.6-1.5,1.6
		s-6.101,6.5-7.4,7.7c-2.6,2.3-3.8,1.4-3.8,1.4l-0.8,0.7c0,0-18.7,22.8-22.2,25.8c-7.4,6.5-12.3,9.5-12.9,9.5
		c-0.7,0-12.7-4.3-19.1-11.4c-5.101-5.6-10.7-13.1-10.7-13.1l11.3-11.3C311.9,668.4,315.6,669.3,320.3,673.4z"/>
	<g>
		<path fill="#EADCBE" d="M353.9,607.1c0,0-0.5,5.101,1.5,8.301c1.399,2.3,1.6,3.399,0.6,3.6c-1,0.1-2.1,0-2.1,0s-0.4,1.2,0,2
			c0.399,0.8,1.399,1.6,0.6,1.7c-0.7,0.2-3.3,0.8-2,1.6s1.2,1.2,0.6,1.7c-0.699,0.5-0.3,2.6-0.3,3.8s-0.8,4.2-4.1,3.4
			s-4.2-1.9-5.101-0.4c-0.8,1.601-3.199,14.5-3.199,14.5S311.3,647,315.8,644.7c11.7-6,11.4-17.2,11.9-19.5
			c0.6-2.2-5.601-11.7-3.101-13.601c2.5-1.899,7.4-6,12.5-8.8C354.5,592.9,353.9,607.1,353.9,607.1z"/>
	</g>
	<path fill="#305DAB" d="M349.1,672.3c0.7-5.2-0.5-11.8-3.1-18.399c-2.5-6.5-7-11.9-12.3-12.7c-3.9-0.5-7.7-2.7-11-1.8
		C289.6,648.2,281,716.8,294.3,753.1c0.9,2.601,6.1,2.5,6.2-0.5c0.9-14.8,21.1-35.8,37.9-20.1c3.1,2.9,4.899,2.8,4.899,2.8
		c6.2-1.6,0.3-9.5-1.899-26.3C338.2,684.2,346.7,690.4,349.1,672.3z"/>
	<path fill="#230F14" d="M333.8,618.6c0,0-1.899-6.899,1.601-10.3c2.399-2.3,4.399-3,10.899-2.7c12.3,0.601,6.8-10.3,6.8-10.3
		s-0.899,1-3.8,0.3c-4.6-1.1-8-6.1-15.7-2.8c-3.199,1.4-4.1,4.3-4.1,4.3s-11.1,2.301-11.1,14.4c0,15.4,8.5,18.3,8.5,18.3
		s2.699-5.399,0.3-8.399c-1.8-2.2-4-6.5-1.601-8.101c2-1.399,3.601-0.3,4.9,2.2s1.2,3.7,1.2,3.7L333.8,618.6z"/>
	<path fill="#305DAB" d="M307.2,674.3c0,0,19.8,27.5,31.1,25.601c11.3-1.9,22.5-19.801,24.9-22c2.399-2.2-9.101-12.801-9.101-12.801
		s-13.3,9.2-15,11.301c-1.699,2.1-11.399-11.7-14.5-13.801c-3.1-2.1-4.1-2.6-4.1-2.6"/>
	<g>
		<g>
			<path fill="#FFF186" d="M291.5,864.4c0,0-3.3,3.6-3.3,7.699c0,3.601,0,7.9,0,7.9l0,0c0,0,31.399,1.2,43.7-1.2
				c0.8-0.1,0.699-1.3,0.3-2.1c-0.2-0.4-0.9-0.601-1.9-0.9c-3.6-1.1-11.8-3.7-14.3-6.899c-3.3-4.101-3.3-4.101-3.3-4.101s-3,3-8.6,3
				C298.6,867.7,291.5,864.4,291.5,864.4z"/>
			<path fill="#2665B0" d="M313.2,865.9c0,0-0.7,0.399-3.3,2.8c-1,0.899-1,1.5-0.7,2c0.7,1.1,2.1,0.2,4.1-1.5
				c1.4-1.2,1.4-1.4,1.4-1.4L313.2,865.9z"/>
			<path fill="#2665B0" d="M316.3,869.8c0,0-0.5,0.3-2.6,2.3c-0.9,0.801-0.8,1.301-0.601,1.7c0.601,0.9,1.7,0.2,3.4-1.2
				c1.1-1,1.6-1.399,1.5-1.399C317.3,870.8,316.3,869.8,316.3,869.8z"/>
			<path fill="#2665B0" d="M332.7,878.2L332.7,878.2c0,1.399-0.601,2.6-1.4,2.6h-41.9c-0.8,0-1.4-1.2-1.4-2.6l0,0"/>
		</g>
		<g>
			<path fill="#FFF186" d="M329.3,864.4c0,0-3.3,3.6-3.3,7.699c0,3.601,0.7,7.301,0.7,7.301l0.2,0.199c0,0,30.6,1.601,42.8-0.8
				c0.8-0.1,0.7-1.3,0.3-2.1c-0.2-0.4-0.9-0.601-1.9-0.9c-3.6-1.1-11.8-3.7-14.3-6.899c-3.3-4.101-3.3-4.101-3.3-4.101s-3,3-8.6,3
				C336.4,867.7,329.3,864.4,329.3,864.4z"/>
			<path fill="#2665B0" d="M351,865.9c0,0-0.7,0.399-3.3,2.8c-1,0.899-1,1.5-0.7,2c0.7,1.1,2.1,0.2,4.1-1.5c1.4-1.2,1.4-1.4,1.4-1.4
				L351,865.9z"/>
			<path fill="#2665B0" d="M354.1,869.8c0,0-0.5,0.3-2.6,2.3c-0.9,0.801-0.8,1.301-0.6,1.7c0.6,0.9,1.699,0.2,3.399-1.2
				c1.101-1,1.601-1.399,1.5-1.399C355.1,870.8,354.1,869.8,354.1,869.8z"/>
			<path fill="#2665B0" d="M370.5,878.2L370.5,878.2c0,1.399-0.6,2.6-1.4,2.6H327.2c-0.8,0-1.4-1.2-1.4-2.6l0,0"/>
		</g>
	</g>
	<g>
		<path fill="#EADCBE" d="M355,664.9c5.6,4.899,5,7.6,5.8,8.5c1.4,1.699,3,3.8,3,3.8s3.9-4.7,11.2-8.9c6.2-3.6,7.3-3.5,11.5-7.5
			c5.7-5.5,8.8-8.3,8.6-8.899c-1.699-3.801,1.5-3.801,0.7-7.9c-0.7-3.5,1.601-3.8,2.8-1.2c1.2,2.601-0.3,3.601,0.5,4.4
			c0.5,0.5,1.2-0.7,1.2-0.7l8.601-7.8l1.8-2.4c0,0,0.899-0.6,1.399,0.2c0.4,0.6-0.8,3.1-1.6,4.2c-0.5,0.6-1.1,1.3-1.5,1.8
			s-0.7,0.9-0.7,0.9s0.5-0.4,1.2-0.801c0.4-0.3,0.8-0.699,1.1-1.1c1.101-1.3,1.9-3.8,2.9-3c1.6,1.5-1.8,5.4-1.8,5.4l-2.4,2.699
			l2.9-2.399c0,0,2-3.3,2.5-3.101c1.899,0.7-0.3,3.7-1.601,5.4c-1.1,1.3-2.5,2.4-2.5,2.4s1.7-1.2,2.101-1.5
			c0.3-0.301,1-1.4,1.6-1.801c1.2-0.8,2,0.301,0.601,2.101c-0.101,0.1-0.4,0.8-0.801,1.2c-0.699,0.8-1.5,1.6-1.5,1.6
			s-6.1,6.5-7.399,7.7c-2.601,2.3-3.8,1.399-3.8,1.399l-0.801,0.7c0,0-18.699,22.8-22.199,25.8c-7.4,6.5-12.301,9.5-12.9,9.5
			c-0.7,0-12.7-4.3-19.1-11.399C341.3,678.6,335.7,671.1,335.7,671.1l11.3-11.3C346.6,660,350.4,660.9,355,664.9z"/>
		<path fill="#305DAB" d="M333.7,672.4c0,0,19.8,27.5,31.1,25.6s22.5-19.8,24.9-22c2.399-2.2-9.101-12.8-9.101-12.8
			s-13.3,9.2-15,11.3c-1.699,2-11.399-11.7-14.5-13.8C348,658.6,347,658.1,347,658.1"/>
		
			<animateTransform  fill="remove" type="rotate" restart="always" calcMode="linear" additive="replace" accumulate="none" repeatDur="indefinite" dur="2s" values="-10 355 664.9; 5 355 664.9; -10 355 664.9" attributeName="transform" attributeType="XML">
			</animateTransform>
	</g>
	<path fill="#305DAB" d="M323.2,635.2l-1.9,4.5l21.3,5.899l-1-4.3c0,0-8-0.899-10.199-2C329.1,638.3,323.2,635.2,323.2,635.2z"/>
</g>
<path id="dog-tail" fill="#5B3839" d="M143.5,872.2c-16.9-2.101-25.4-19.601-26.9-25.601c-0.5-2.199-5.9-5.1-5.8,0.101
	c-0.8,1.1,5.6,16.8,15.1,26.899c3.4,4.2,11.4,5.2,14.4,5.9c5.7,1.3,23,1.3,23,1.3">
<animate  fill="remove" restart="always" calcMode="linear" additive="replace" accumulate="none" repeatDur="indefinite" dur="0.5s" values="M143.5,872.2c-16.9-2.1-25.4-19.6-26.9-25.6c-0.5-2.2-5.9-5.1-5.8,0.1  c-0.8,1.1,5.6,16.8,15.1,26.9c3.4,4.2,11.4,5.2,14.4,5.9c5.7,1.3,23,1.3,23,1.3;                                             M143.5,872.2c-16.9-2.1-13.8-29.3-15.2-35.4c-0.5-2.2-2.1-4.9-5-1  c-1.9,2.6-1.7,28.7,6.7,37.6c3.4,4.2,7.3,5.4,10.4,6.1c5.7,1.3,23,1.3,23,1.3;                          M143.5,872.2c-16.9-2.1-25.4-19.6-26.9-25.6c-0.5-2.2-5.9-5.1-5.8,0.1  c-0.8,1.1,5.6,16.8,15.1,26.9c3.4,4.2,11.4,5.2,14.4,5.9c5.7,1.3,23,1.3,23,1.3;" attributeName="d" attributeType="XML">
		</animate>
</path>
<path fill="none" stroke="#FFFFFF" stroke-width="2" stroke-miterlimit="10" d="M952,838.4C928.5,790.8,898.4,625.5,963.3,604.3"/>
<g>
	<path fill="#EADCBE" d="M878.6,646.3c0,0,4.101,19,5.2,19.8c0.9,0.601,4.5,1.101,4.5,1.101l26.4,3.5l3.899-3.3
		c0,0,12.7-0.4,13.2-0.101c0.601,0.3-0.7,2.3-1.3,2.3s-6.2,0-6.2,0s5.3,0.4,5.5,0.601c0.4,0.5-1.2,2-1.5,2c-0.5,0-4.899,0-4.899,0
		s4,0.6,4.1,0.7c0.4,0.5-1.2,2.1-1.5,2.1c-0.8,0-4.5,0-4.5,0s3.5,0.3,3.6,0.5c0,0.1-0.899,1.7-1.399,1.7c-6.601,0-30.3,0.6-39.9,0.6
		c-1,0-4.1,0-4.899,0c-5.2,0-7-2.5-8.301-8.8c-0.399-1.8-5.699-22.6-5.699-22.6L878.6,646.3L878.6,646.3L878.6,646.3z"/>
	<path fill="#6FCCDA" d="M878.6,646.3c0,0,3.9-5.8,2.4-15.5c-0.9-5.6-5.3-8.399-9.6-8.399l0,0c-4.301,0-10,4.399-10.4,8.6
		c-0.9,9.5,4,15.3,4,15.3"/>
	
		<animateTransform  fill="remove" type="rotate" restart="always" calcMode="linear" additive="replace" accumulate="none" repeatDur="indefinite" dur="2s" values="12 878.6 646.3; -12 878.6 646.3; 12 878.6 646.3" attributeName="transform" attributeType="XML">
		</animateTransform>
</g>
<path id="fail-guy-hand" fill="#EADCBE" d="M1559.5,647.2c5.6,4.899,5,7.6,5.8,8.6c1.4,1.7,3,3.8,3,3.8s3.9-4.8,11.3-9
	c6.2-3.6,7.4-3.5,11.5-7.5c5.801-5.6,8.9-8.399,8.601-8.899c-1.7-3.9,1.5-3.9,0.7-7.9c-0.7-3.5,1.6-3.8,2.8-1.2
	c1.2,2.601-0.3,3.601,0.5,4.4c0.5,0.5,1.2-0.7,1.2-0.7l8.6-7.8c0,0,2.5,0.8,1.6,1.9c-0.5,0.699-1.1,1.3-1.5,1.8
	c-0.399,0.5-0.699,0.899-0.699,0.899s0.5-0.399,1.199-0.8c0.4-0.3,0.801-0.7,1.101-1.1c1.1-1.3,1.1,2.5,1.1,2.5l-2.399,2.7
	l2.899-2.4c0,0,2.2,0.7,0.9,2.3c-1.101,1.3-2.5,2.4-2.5,2.4s1.7-1.2,2.1-1.5c0.3-0.3,1.7,1.1,1.3,1.6c-0.699,0.8-1.5,1.7-1.5,1.7
	s-6.1,6.5-7.399,7.7c-2.601,2.3-3.9,1.399-3.9,1.399l-0.8,0.7c0,0-18.8,22.9-22.3,26c-7.4,6.5-12.4,9.5-13,9.5
	c-0.7,0-12.801-4.399-19.2-11.399c-5.2-5.7-10.8-13.2-10.8-13.2l11.3-11.3C1551.1,642.2,1554.9,643.1,1559.5,647.2z">
<animateTransform  fill="remove" type="rotate" restart="always" calcMode="linear" additive="replace" accumulate="none" repeatDur="indefinite" dur="4s" values="0 1559.5 647.2; -5 1559.5 647.2; -10 1559.5 647.2; -5 1559.5 647.2; -10 1559.5 647.2; -5 1559.5 647.2; 0 1559.5 647.2; 0 1559.5 647.2; 0 1559.5 647.2; 0 1559.5 647.2" attributeName="transform" attributeType="XML">
		</animateTransform>
</path>
</svg>
