<?xml version="1.0" encoding="utf-8"?>
<!-- Generator: Adobe Illustrator 16.0.0, SVG Export Plug-In . SVG Version: 6.00 Build 0)  -->
<!DOCTYPE svg PUBLIC "-//W3C//DTD SVG 1.1//EN" "http://www.w3.org/Graphics/SVG/1.1/DTD/svg11.dtd">
<svg version="1.1" id="Layer_1" xmlns="http://www.w3.org/2000/svg" xmlns:xlink="http://www.w3.org/1999/xlink" x="0px" y="0px"
	 width="1088.805px" height="906.504px" viewBox="0 0 1088.805 906.504" enable-background="new 0 0 1088.805 906.504"
	 xml:space="preserve">
<g>
	<path fill-rule="evenodd" clip-rule="evenodd" fill="#0A456D" d="M1085.647,412.771c7.561,24.195-0.075,42.082-6.052,59.187
		c-18.61,53.249-58.105,82.06-112.961,90.12c-13.066,1.921-22.168,7.246-31.067,16.759
		c-65.762,70.313-138.164,131.995-227.144,171.727c-62.68,27.988-128.659,35.267-196.367,31.736
		c-66.443-3.465-130.479-19.056-193.662-38.906c-35.636-11.195-55.805-4.334-77.854,26.529
		c-26.04,36.446-38.958,78.383-49.553,121.155c-4.167,16.82-10.212,19.882-24.157,9.202c-27.989-21.435-36.506-52.27-32.149-84.711
		c6.198-46.106,15.729-91.867,26.016-137.282c6.163-27.211,6.521-50.808-8.195-76.811C109.699,525.853,67.508,449.649,40.298,366.48
		C19.769,303.726,3.482,240.141,0.248,173.699c-1.844-37.85,6.813-73.418,19.531-108.46c1.641-4.519,3.063-9.181,3.951-13.894
		c8.378-44.453,46.1-63.744,86.432-43.012c13.165,6.767,26.436,15.215,36.436,25.908c32.536,34.791,71.151,61.668,109.319,89.436
		c37.49,27.273,71.102,58.861,97.419,97.506c2.341,3.438,4.435,7.045,7.095,11.296c-18.188,1.634-35.237,2.46-52.063,4.86
		c-18.805,2.68-23.848,14.869-13.82,31.08c1.404,2.271,2.839,4.803,4.906,6.346c30.143,22.465,44.666,55.778,60.647,87.887
		c17.212,34.578,44.983,56.415,82.616,58.833c48.377,3.104,84.063,21.606,112.954,61.517
		c25.802,35.645,60.598,64.072,101.451,82.543c67.951,30.722,134.651,19.907,198.265-12.41
		c27.407-13.925,51.301-34.81,76.589-52.814c3.57-2.541,5.989-6.7,7.957-10.923c-24.021,18.239-48.039,36.478-70.577,53.59
		c-9.127-18.009-14.819-30.838-21.916-42.835c-8.725-14.749-20.107-28.066-27.695-43.32c-14.205-28.561-5.433-60.656,20.623-80.716
		c1.754,1.528,5.449,3.432,5.256,4.779c-2.839,19.829,12.509,27.692,24.89,36.337c9.466,6.608,20.723,13.112,31.792,14.395
		c17.029,1.972,26.13,7.883,25.335,25.75c-0.087,1.931,1.321,3.925,2.6,7.442c10.933-20.644,28.204-24.573,47.093-18.375
		c28.654,9.403,54.755,2.056,80.585-9.003c5.578-2.389,10.09-7.444,14.812-11.591
		C1076.422,422.602,1079.682,418.859,1085.647,412.771z M793.735,590.76c-9.11,1.062-13.829,1.584-18.542,2.164
		c-75.771,9.317-144.461-5.472-199.392-61.896c-22.763-23.385-43.546-48.848-63.658-74.592
		c-8.625-11.037-17.564-14.828-29.966-13.351c7.673,18.001,15.322,35.048,22.229,52.389c7.931,19.92,14.46,40.42,22.915,60.104
		c17.77,41.36,44.408,75.523,88.257,90.612c25.051,8.622,51.745,14.942,78.084,16.784c43.313,3.03,83.752-8.141,120.947-39.935
		c-8.832,2.223-13.856,3.379-18.825,4.753c-32.589,9.01-65.547,11.174-98.581,3.476c-12.372-2.885-26.608-4.571-33.349-22.261
		c7.141-0.864,12.581-2.355,17.889-1.983c9.624,0.676,19.131,3.132,28.752,3.654C738.53,612.193,766.208,611.415,793.735,590.76z
		 M83.064,11.533c-0.585,1.196-1.172,2.393-1.759,3.59c4.709,2.916,10.075,5.138,14.004,8.871
		c12.275,11.661,24.503,23.446,35.82,36.02c13.139,14.598,23.216,32.695,38.285,44.663c37.221,29.562,69.012,62.589,86.77,107.486
		c1.557,3.937,3.603,8.165,6.646,10.889c2.794,2.498,7.626,4.983,10.901,4.305c19.056-3.951,37.918-8.838,59.633-14.081
		c-14.041-14.521-26.296-29.484-40.803-41.793C238.319,125.465,183.513,80.107,128.476,35.04
		c-9.805-8.028-21.561-13.763-32.729-19.993C92.023,12.97,87.32,12.654,83.064,11.533z M249.714,337.863
		c17.918,3.549,19.869,1.328,15.272-16.246c-1.044-3.988-0.772-8.393-0.687-12.598c0.402-19.521-4.229-37.547-18.212-51.619
		c-14.334-14.425-29.368-28.229-44.921-41.33c-5.265-4.434-15.345-9.915-19.131-7.754c-5.621,3.214-9.659,12.477-10.796,19.725
		C163.712,276.037,201.478,328.306,249.714,337.863z M935.181,472.751c6.959,4.378,18.742,8.85,18.43,12.185
		c-0.747,7.957-6.217,16.181-11.613,22.803c-6.007,7.371-14.314,12.819-21.098,19.624c-4.197,4.21-7.422,9.387-11.701,14.93
		c60.921,14.023,158.629-44.678,146.499-87.539c-13.772,17.001-31.477,16.45-50.14,12.849c-15.234-2.938-30.594-5.268-45.94-7.576
		C947.542,458.207,939.044,462.951,935.181,472.751z M874.916,521.544c19.096-15.016,35.821-28.171,49.914-39.254
		c-2.17-4.618-4.82-8.598-5.95-12.971c-4.061-15.716-16.577-22.582-30.024-26.116c-20.077-5.273-40.792-8.099-50.681-30.054
		c-0.112-0.25-0.946-0.174-7.244-1.146C826.735,456.725,865.273,482.311,874.916,521.544z M182.57,168.207
		c-6.409,19.703,3.091,29.108,21.134,24.005C195.99,183.449,189.283,175.827,182.57,168.207z"/>
	<path fill-rule="evenodd" clip-rule="evenodd" fill="#0A456D" d="M515.34,424.443c-27.022-4.175-54.018-8.557-81.08-12.467
		c-26.025-3.758-43.848-19.108-56.935-40.478c-8.38-13.683-13.973-29.155-22.981-42.346c-12.24-17.918-26.499-34.461-40.006-51.503
		c-3.646-4.598-8.382-8.447-11.431-13.375c-5.87-9.484-3.842-16.476,8.126-18.316c106.607-16.394,237.6,37.094,291.874,128.092
		c8.35,13.998,14.2,30.11,18.043,46.011c4.172,17.251-2.355,22.618-20,19.983c-28.678-4.285-57.316-8.818-85.975-13.246
		C515.098,426.015,515.219,425.229,515.34,424.443z"/>
	<path fill-rule="evenodd" clip-rule="evenodd" fill="#0A456D" d="M13.865,310.063c15.008,43.097,30.214,86.766,45.186,129.754
		c-7.658,7.545-16.643,15.685-24.773,24.603c-8.913,9.773-15.367,8.532-22.688-2.037C-16.002,422.544-14.802,347.852,13.865,310.063
		z"/>
	<path fill-rule="evenodd" clip-rule="evenodd" fill="#0A456D" d="M793.735,590.76c-27.526,20.655-55.205,21.434-83.237,19.918
		c-9.621-0.522-19.129-2.979-28.752-3.654c-5.308-0.372-10.748,1.119-17.889,1.983c6.741,17.689,20.977,19.376,33.349,22.261
		c33.033,7.698,65.991,5.534,98.581-3.476c4.968-1.374,9.993-2.53,18.825-4.753c-37.195,31.794-77.635,42.965-120.947,39.935
		c-26.34-1.842-53.033-8.162-78.084-16.784c-43.85-15.089-70.488-49.252-88.257-90.612c-8.455-19.684-14.984-40.184-22.915-60.104
		c-6.907-17.341-14.557-34.388-22.229-52.389c12.402-1.478,21.341,2.313,29.966,13.351c20.112,25.744,40.896,51.207,63.658,74.592
		c54.93,56.425,123.62,71.214,199.392,61.896C779.906,592.344,784.625,591.821,793.735,590.76z"/>
	<path fill-rule="evenodd" clip-rule="evenodd" fill="#0A456D" d="M83.064,11.533c4.255,1.121,8.959,1.437,12.683,3.514
		c11.168,6.23,22.924,11.965,32.729,19.993c55.037,45.067,109.843,90.425,164.086,136.442
		c14.507,12.309,26.762,27.271,40.803,41.793c-21.715,5.243-40.577,10.13-59.633,14.081c-3.275,0.679-8.107-1.807-10.901-4.305
		c-3.042-2.724-5.089-6.952-6.646-10.889c-17.758-44.897-49.548-77.925-86.77-107.486c-15.069-11.968-25.146-30.065-38.285-44.663
		c-11.317-12.573-23.545-24.358-35.82-36.02c-3.93-3.733-9.295-5.955-14.004-8.871C81.892,13.926,82.479,12.729,83.064,11.533z"/>
	<path fill-rule="evenodd" clip-rule="evenodd" fill="#0A456D" d="M249.714,337.863c-48.236-9.558-86.002-61.826-78.475-109.822
		c1.138-7.248,5.176-16.511,10.796-19.725c3.787-2.161,13.867,3.32,19.131,7.754c15.553,13.102,30.587,26.905,44.921,41.33
		c13.982,14.072,18.614,32.098,18.212,51.619c-0.086,4.205-0.357,8.609,0.687,12.598
		C269.583,339.191,267.632,341.412,249.714,337.863z"/>
	<path fill-rule="evenodd" clip-rule="evenodd" fill="#0A456D" d="M935.181,472.751c3.863-9.8,12.361-14.544,24.437-12.726
		c15.347,2.309,30.706,4.639,45.94,7.576c18.663,3.602,36.367,4.152,50.14-12.849c12.13,42.861-85.578,101.563-146.499,87.539
		c4.278-5.543,7.504-10.72,11.701-14.93c6.784-6.805,15.091-12.253,21.098-19.624c5.396-6.622,10.866-14.846,11.613-22.803
		C953.923,481.601,942.14,477.129,935.181,472.751z"/>
	<path fill-rule="evenodd" clip-rule="evenodd" fill="#0A456D" d="M874.916,521.544c-9.642-39.233-48.181-64.819-43.985-109.541
		c6.298,0.973,7.132,0.896,7.244,1.146c9.889,21.955,30.604,24.78,50.681,30.054c13.447,3.534,25.963,10.4,30.024,26.116
		c1.13,4.373,3.78,8.353,5.95,12.971C910.737,493.373,894.011,506.528,874.916,521.544z"/>
	<path fill-rule="evenodd" clip-rule="evenodd" fill="#0A456D" d="M182.57,168.207c6.713,7.62,13.42,15.242,21.134,24.005
		C185.661,197.315,176.161,187.91,182.57,168.207z"/>
</g>
</svg>
